0
SECTION
2
HEADER
9
$INSUNITS
70
1
9
$ACADVER
1
AC1014
9
$HANDSEED
5
FFFF
0
ENDSEC
0
SECTION
2
TABLES
0
TABLE
2
VPORT
5
8
100
AcDbSymbolTable
0
ENDTAB
0
TABLE
2
LTYPE
5
5
100
AcDbSymbolTable
0
LTYPE
5
14
100
AcDbSymbolTableRecord
100
AcDbLinetypeTableRecord
2
BYBLOCK
70
0
0
LTYPE
5
15
100
AcDbSymbolTableRecord
100
AcDbLinetypeTableRecord
2
BYLAYER
70
0
0
LTYPE
5
16
100
AcDbSymbolTableRecord
100
AcDbLinetypeTableRecord
2
DASHED
70
0
3
Dashed __ __ __ __ __ __ __ __ __ __ __ __ __ _
72
65
73
2
40
0.75
49
0.5
74
0
49
-0.25
74
0
0
ENDTAB
0
TABLE
2
LAYER
5
2
100
AcDbSymbolTable
70
2
0
LAYER
5
50
100
AcDbSymbolTableRecord
100
AcDbLayerTableRecord
2
0
70
0
62
7
6
CONTINUOUS
0
ENDTAB
0
TABLE
2
STYLE
5
3
100
AcDbSymbolTable
70
1
0
STYLE
5
11
100
AcDbSymbolTableRecord
100
AcDbTextStyleTableRecord
2
STANDARD
70
0
0
ENDTAB
0
TABLE
2
VIEW
5
6
100
AcDbSymbolTable
70
0
0
ENDTAB
0
TABLE
2
UCS
5
7
100
AcDbSymbolTable
70
0
0
ENDTAB
0
TABLE
2
APPID
5
9
100
AcDbSymbolTable
70
2
0
APPID
5
12
100
AcDbSymbolTableRecord
100
AcDbRegAppTableRecord
2
ACAD
70
0
0
ENDTAB
0
TABLE
2
DIMSTYLE
5
A
100
AcDbSymbolTable
70
1
0
ENDTAB
0
TABLE
2
BLOCK_RECORD
5
1
100
AcDbSymbolTable
70
1
0
BLOCK_RECORD
5
1F
100
AcDbSymbolTableRecord
100
AcDbBlockTableRecord
2
*MODEL_SPACE
0
BLOCK_RECORD
5
1B
100
AcDbSymbolTableRecord
100
AcDbBlockTableRecord
2
*PAPER_SPACE
0
ENDTAB
0
ENDSEC
0
SECTION
2
BLOCKS
0
BLOCK
5
20
100
AcDbEntity
100
AcDbBlockBegin
2
*MODEL_SPACE
0
ENDBLK
5
21
100
AcDbEntity
100
AcDbBlockEnd
0
BLOCK
5
1C
100
AcDbEntity
100
AcDbBlockBegin
2
*PAPER_SPACE
0
ENDBLK
5
1D
100
AcDbEntity
100
AcDbBlockEnd
0
ENDSEC
0
SECTION
2
ENTITIES
0
LINE
5
100
100
AcDbEntity
8
0
100
AcDbLine
10
3.6154094488188973
20
-0.025094478525693961
30
0
11
3.6154094488188973
21
0.048111999289134011
31
0
0
LINE
5
101
100
AcDbEntity
8
0
100
AcDbLine
10
3.6154094488188973
20
0.048111999289134011
30
0
11
3.4904094488188968
21
0.048111999289133865
31
0
0
LINE
5
102
100
AcDbEntity
8
0
100
AcDbLine
10
3.4904094488188968
20
0.048111999289133865
30
0
11
3.4904094488188968
21
0.17311199928913401
31
0
0
LINE
5
103
100
AcDbEntity
8
0
100
AcDbLine
10
3.4904094488188968
20
0.17311199928913401
30
0
11
3.6154094488188973
21
0.17311199928913401
31
0
0
LINE
5
104
100
AcDbEntity
8
0
100
AcDbLine
10
3.6154094488188973
20
0.17311199928913401
30
0
11
3.6154094488188973
21
0.2988081402346206
31
0
0
SPLINE
5
105
100
AcDbEntity
8
0
100
AcDbSpline
70
4
71
5
72
250
73
244
74
0
42
0.000000001
43
0.0000000001
44
0.0000000001
40
0.14971471586928839
40
0.14971471586928839
40
0.14971471586928839
40
0.14971471586928839
40
0.14971471586928839
40
0.14971471586928839
40
0.15000000000000011
40
0.15100000000000011
40
0.15200000000000011
40
0.15300000000000011
40
0.15400000000000011
40
0.15500000000000011
40
0.15600000000000011
40
0.15700000000000011
40
0.15800000000000011
40
0.15900000000000011
40
0.16000000000000011
40
0.16100000000000012
40
0.16200000000000012
40
0.16300000000000012
40
0.16400000000000012
40
0.16500000000000012
40
0.16600000000000012
40
0.16700000000000012
40
0.16800000000000012
40
0.16900000000000012
40
0.17000000000000012
40
0.17100000000000012
40
0.17200000000000013
40
0.17300000000000013
40
0.17400000000000013
40
0.17500000000000013
40
0.17600000000000013
40
0.17700000000000013
40
0.17800000000000013
40
0.17900000000000013
40
0.18000000000000013
40
0.18100000000000013
40
0.18200000000000013
40
0.18300000000000013
40
0.18400000000000014
40
0.18500000000000014
40
0.18600000000000014
40
0.18700000000000014
40
0.18800000000000014
40
0.18900000000000014
40
0.19000000000000014
40
0.19100000000000014
40
0.19200000000000014
40
0.19300000000000014
40
0.19400000000000014
40
0.19500000000000015
40
0.19600000000000015
40
0.19700000000000015
40
0.19800000000000015
40
0.19900000000000015
40
0.20000000000000015
40
0.20100000000000015
40
0.20200000000000015
40
0.20300000000000015
40
0.20400000000000015
40
0.20500000000000015
40
0.20600000000000016
40
0.20700000000000016
40
0.20800000000000016
40
0.20900000000000016
40
0.21000000000000016
40
0.21100000000000016
40
0.21200000000000016
40
0.21300000000000016
40
0.21400000000000016
40
0.21500000000000016
40
0.21600000000000016
40
0.21700000000000016
40
0.21800000000000017
40
0.21900000000000017
40
0.22000000000000017
40
0.22100000000000017
40
0.22200000000000017
40
0.22300000000000017
40
0.22400000000000017
40
0.22500000000000017
40
0.22600000000000017
40
0.22700000000000017
40
0.22800000000000017
40
0.22900000000000018
40
0.23000000000000018
40
0.23100000000000018
40
0.23200000000000018
40
0.23300000000000018
40
0.23400000000000018
40
0.23500000000000018
40
0.23600000000000018
40
0.23700000000000018
40
0.23800000000000018
40
0.23900000000000018
40
0.24000000000000019
40
0.24100000000000019
40
0.24200000000000019
40
0.24300000000000019
40
0.24400000000000019
40
0.24500000000000019
40
0.24600000000000019
40
0.24700000000000019
40
0.24800000000000019
40
0.24900000000000019
40
0.25000000000000017
40
0.25100000000000017
40
0.25200000000000017
40
0.25300000000000017
40
0.25400000000000017
40
0.25500000000000017
40
0.25600000000000017
40
0.25700000000000017
40
0.25800000000000017
40
0.25900000000000017
40
0.26000000000000018
40
0.26100000000000018
40
0.26200000000000018
40
0.26300000000000018
40
0.26400000000000018
40
0.26500000000000018
40
0.26600000000000018
40
0.26700000000000018
40
0.26800000000000018
40
0.26900000000000018
40
0.27000000000000018
40
0.27100000000000019
40
0.27200000000000019
40
0.27300000000000019
40
0.27400000000000019
40
0.27500000000000019
40
0.27600000000000019
40
0.27700000000000019
40
0.27800000000000019
40
0.27900000000000019
40
0.28000000000000019
40
0.28100000000000019
40
0.28200000000000019
40
0.2830000000000002
40
0.2840000000000002
40
0.2850000000000002
40
0.2860000000000002
40
0.2870000000000002
40
0.2880000000000002
40
0.2890000000000002
40
0.2900000000000002
40
0.2910000000000002
40
0.2920000000000002
40
0.2930000000000002
40
0.29400000000000021
40
0.29500000000000021
40
0.29600000000000021
40
0.29700000000000021
40
0.29800000000000021
40
0.29900000000000021
40
0.30000000000000021
40
0.30100000000000021
40
0.30200000000000021
40
0.30300000000000021
40
0.30400000000000021
40
0.30500000000000022
40
0.30600000000000022
40
0.30700000000000022
40
0.30800000000000022
40
0.30900000000000022
40
0.31000000000000022
40
0.31100000000000022
40
0.31200000000000022
40
0.31300000000000022
40
0.31400000000000022
40
0.31500000000000022
40
0.31600000000000023
40
0.31700000000000023
40
0.31800000000000023
40
0.31900000000000023
40
0.32000000000000023
40
0.32100000000000023
40
0.32200000000000023
40
0.32300000000000023
40
0.32400000000000023
40
0.32500000000000023
40
0.32600000000000023
40
0.32700000000000023
40
0.32800000000000024
40
0.32900000000000024
40
0.33000000000000024
40
0.33100000000000024
40
0.33200000000000024
40
0.33300000000000024
40
0.33400000000000024
40
0.33500000000000024
40
0.33600000000000024
40
0.33700000000000024
40
0.33800000000000024
40
0.33900000000000025
40
0.34000000000000025
40
0.34100000000000025
40
0.34200000000000025
40
0.34300000000000025
40
0.34400000000000025
40
0.34500000000000025
40
0.34600000000000025
40
0.34700000000000025
40
0.34800000000000025
40
0.34900000000000025
40
0.35000000000000026
40
0.35100000000000026
40
0.35200000000000026
40
0.35300000000000026
40
0.35400000000000026
40
0.35500000000000026
40
0.35600000000000026
40
0.35700000000000026
40
0.35800000000000026
40
0.35900000000000026
40
0.36000000000000026
40
0.36100000000000027
40
0.36200000000000027
40
0.36300000000000027
40
0.36400000000000027
40
0.36500000000000027
40
0.36600000000000027
40
0.36700000000000027
40
0.36800000000000027
40
0.36900000000000027
40
0.37000000000000027
40
0.37100000000000027
40
0.37200000000000027
40
0.37300000000000028
40
0.37400000000000028
40
0.37500000000000028
40
0.37600000000000028
40
0.37700000000000028
40
0.37800000000000028
40
0.37900000000000028
40
0.38000000000000028
40
0.38100000000000028
40
0.38200000000000028
40
0.38300000000000028
40
0.38400000000000029
40
0.38500000000000029
40
0.38600000000000029
40
0.38700000000000029
40
0.38788564620273636
40
0.38788564620273636
40
0.38788564620273636
40
0.38788564620273636
40
0.38788564620273636
40
0.38788564620273636
41
1
41
1
41
1
41
1
41
1
41
1
41
1
41
1
41
1
41
1
41
1
41
1
41
1
41
1
41
1
41
1
41
1
41
1
41
1
41
1
41
1
41
1
41
1
41
1
41
1
41
1
41
1
41
1
41
1
41
1
41
1
41
1
41
1
41
1
41
1
41
1
41
1
41
1
41
1
41
1
41
1
41
1
41
1
41
1
41
1
41
1
41
1
41
1
41
1
41
1
41
1
41
1
41
1
41
1
41
1
41
1
41
1
41
1
41
1
41
1
41
1
41
1
41
1
41
1
41
1
41
1
41
1
41
1
41
1
41
1
41
1
41
1
41
1
41
1
41
1
41
1
41
1
41
1
41
1
41
1
41
1
41
1
41
1
41
1
41
1
41
1
41
1
41
1
41
1
41
1
41
1
41
1
41
1
41
1
41
1
41
1
41
1
41
1
41
1
41
1
41
1
41
1
41
1
41
1
41
1
41
1
41
1
41
1
41
1
41
1
41
1
41
1
41
1
41
1
41
1
41
1
41
1
41
1
41
1
41
1
41
1
41
1
41
1
41
1
41
1
41
1
41
1
41
1
41
1
41
1
41
1
41
1
41
1
41
1
41
1
41
1
41
1
41
1
41
1
41
1
41
1
41
1
41
1
41
1
41
1
41
1
41
1
41
1
41
1
41
1
41
1
41
1
41
1
41
1
41
1
41
1
41
1
41
1
41
1
41
1
41
1
41
1
41
1
41
1
41
1
41
1
41
1
41
1
41
1
41
1
41
1
41
1
41
1
41
1
41
1
41
1
41
1
41
1
41
1
41
1
41
1
41
1
41
1
41
1
41
1
41
1
41
1
41
1
41
1
41
1
41
1
41
1
41
1
41
1
41
1
41
1
41
1
41
1
41
1
41
1
41
1
41
1
41
1
41
1
41
1
41
1
41
1
41
1
41
1
41
1
41
1
41
1
41
1
41
1
41
1
41
1
41
1
41
1
41
1
41
1
41
1
41
1
41
1
41
1
41
1
41
1
41
1
41
1
41
1
41
1
41
1
41
1
41
1
41
1
41
1
41
1
41
1
41
1
41
1
41
1
41
1
41
1
41
1
41
1
10
3.6154094488188195
20
0.29880814023463437
30
0
10
3.6147665040620103
20
0.29892245385619443
30
0
10
3.6118695511311278
20
0.299437350696652
30
0
10
3.6067161905811735
20
0.30035191371617481
30
0
10
3.5993015388717393
20
0.30166426076420327
30
0
10
3.5896183140263571
20
0.30337152834718117
30
0
10
3.5783037311303008
20
0.30535700344821354
30
0
10
3.5669729504486831
20
0.30733578718796828
30
0
10
3.555626105488058
20
0.30930768201452147
30
0
10
3.5442633194904181
20
0.31127247314210876
30
0
10
3.5328847170412705
20
0.31322995433767048
30
0
10
3.5214904359754047
20
0.31517995439026908
30
0
10
3.5100806385351562
20
0.31712236186736376
30
0
10
3.4986555245129929
20
0.31905715441808619
30
0
10
3.4872153205448058
20
0.32098437341824221
30
0
10
3.4757602666704233
20
0.32290409234658651
30
0
10
3.4642906041169508
20
0.32481638797666601
30
0
10
3.4528065620101125
20
0.32672130908194036
30
0
10
3.4413083458471521
20
0.32861884924786788
30
0
10
3.4297961218610631
20
0.33050891009158384
30
0
10
3.4182700240996295
20
0.33239131751921441
30
0
10
3.4067301694889314
20
0.33426585660718666
30
0
10
3.3951766699710997
20
0.33613229969353364
30
0
10
3.3836096465194219
20
0.33799043875730761
30
0
10
3.3720292408236592
20
0.33984011258041752
30
0
10
3.360435631762583
20
0.34168124454110116
30
0
10
3.3488290341457772
20
0.34351384111176431
30
0
10
3.3372096819909673
20
0.34533795611969992
30
0
10
3.3255778163431198
20
0.34715366502887868
30
0
10
3.3139336707876703
20
0.34896103420348756
30
0
10
3.3022774589757762
20
0.35076009442088585
30
0
10
3.2906093588132257
20
0.35255080749017892
30
0
10
3.2789295060809245
20
0.35433305223343836
30
0
10
3.2672380113567359
20
0.35610665823793908
30
0
10
3.2555349724682259
20
0.35787143044776476
30
0
10
3.2438204887446878
20
0.3596271774448993
30
0
10
3.2320946744400803
20
0.3613737380270291
30
0
10
3.220357672656847
20
0.36311100882139186
30
0
10
3.2086096686549901
20
0.3648389706149418
30
0
10
3.1968508770493744
20
0.36655766046128119
30
0
10
3.1850815293096737
20
0.3682671443613536
30
0
10
3.1733018613567192
20
0.36996749027379794
30
0
10
3.1615121006486873
20
0.37165873976239638
30
0
10
3.1497124545843787
20
0.37334088309067609
30
0
10
3.1379030955262377
20
0.37501382549829765
30
0
10
3.1260841637790819
20
0.37667740035565883
30
0
10
3.1142557775554436
20
0.37833140069703175
30
0
10
3.1024180405860333
20
0.37997560432124361
30
0
10
3.0905710508943125
20
0.38160980258140076
30
0
10
3.0787149086485761
20
0.38323382525596267
30
0
10
3.0668497254403699
20
0.3848475727917236
30
0
10
3.0549756293781893
20
0.38645102564724682
30
0
10
3.043092763294267
20
0.38804421546910994
30
0
10
3.0312012845146019
20
0.38962720498438402
30
0
10
3.0193013640072159
20
0.39120006435198407
30
0
10
3.0073931857812721
20
0.39276284911169135
30
0
10
2.9954769462139486
20
0.39431557724784522
30
0
10
2.9835528533116857
20
0.39585820718280107
30
0
10
2.9716211201788902
20
0.39739065233967208
30
0
10
2.9596819585062466
20
0.39891279527200291
30
0
10
2.947735572216919
20
0.40042450172019212
30
0
10
2.9357821506706521
20
0.40192563522298025
30
0
10
2.9238218629344486
20
0.40341607026640203
30
0
10
2.9118548493798899
20
0.40489570915330553
30
0
10
2.8998812253348438
20
0.40636448206108772
30
0
10
2.8879010914821803
20
0.40782233772140725
30
0
10
2.8759145420858037
20
0.40926923706081481
30
0
10
2.8639216743201685
20
0.41070514546306369
30
0
10
2.8519225966564847
20
0.4121300259730144
30
0
10
2.839917438783671
20
0.41354383125390365
30
0
10
2.8279063573571372
20
0.41494649869892486
30
0
10
2.8158895278315343
20
0.41633795589766498
30
0
10
2.803867138530769
20
0.41771812444284961
30
0
10
2.7918393839083318
20
0.41908692433754507
30
0
10
2.7798064579962558
20
0.42044427826240988
30
0
10
2.7677685481409871
20
0.42179011563057228
30
0
10
2.7557258276494196
20
0.42312437744973846
30
0
10
2.7436784572183783
20
0.4244470146877849
30
0
10
2.7316265882056427
20
0.42575798528671233
30
0
10
2.7195703652262919
20
0.42705725165309927
30
0
10
2.707509929116203
20
0.42834477792866993
30
0
10
2.6954454195433883
20
0.42962052740123485
30
0
10
2.6833769782449499
20
0.43088445974322181
30
0
10
2.6713047503294924
20
0.43213652871882557
30
0
10
2.6592288825568153
20
0.4333766806118019
30
0
10
2.647149522317946
20
0.43460485247531228
30
0
10
2.635066816341721
20
0.43582097047657531
30
0
10
2.6229809094981897
20
0.43702494814752735
30
0
10
2.6108919436077258
20
0.4382166848020434
30
0
10
2.5988000561170375
20
0.43939606353302546
30
0
10
2.5867053829475002
20
0.44056296046956839
30
0
10
2.5746080615767664
20
0.44171725467623379
30
0
10
2.56250823394566
20
0.44285883752741628
30
0
10
2.550406049640205
20
0.44398762295911404
30
0
10
2.5383016684866027
20
0.44510355581707228
30
0
10
2.5261952645594739
20
0.44620662480355655
30
0
10
2.5140870249277691
20
0.44729685828768417
30
0
10
2.5019771433552673
20
0.4483743036728341
30
0
10
2.4898658153976063
20
0.4494390113308207
30
0
10
2.4777532328986327
20
0.45049101653868107
30
0
10
2.4656395788115231
20
0.4515303225683503
30
0
10
2.4535250217199107
20
0.45255688257440374
30
0
10
2.4414097109440589
20
0.45357058399763456
30
0
10
2.4292937804194956
20
0.45457127048384932
30
0
10
2.4171773521031659
20
0.45555876205449269
30
0
10
2.4050605395875073
20
0.45653287550796323
30
0
10
2.3929434515581547
20
0.45749344569338879
30
0
10
2.3808261954780687
20
0.4584403441430821
30
0
10
2.3687088807725525
20
0.4593735045464723
30
0
10
2.3565916241598255
20
0.46029291825112628
30
0
10
2.3444745563789913
20
0.46119861146805929
30
0
10
2.3323578283304927
20
0.462090628182937
30
0
10
2.3202416178196335
20
0.46296901037474264
30
0
10
2.3081261352097862
20
0.46383378015749493
30
0
10
2.2960116315323154
20
0.46468491925801941
30
0
10
2.2838983996033764
20
0.46552235514039819
30
0
10
2.2717867404154277
20
0.46634597970903946
30
0
10
2.2596769334621123
20
0.46715566400035485
30
0
10
2.2475692066082233
20
0.46795127412674198
30
0
10
2.2354637037127825
20
0.46873268737563534
30
0
10
2.2233604589355411
20
0.46949980662906698
30
0
10
2.2112593534235585
20
0.47025257966275263
30
0
10
2.1991601728319914
20
0.4709909901349813
30
0
10
2.1870627003948333
20
0.47171503871905496
30
0
10
2.1749667960803287
20
0.47242472783556605
30
0
10
2.1628724863886024
20
0.47312004411959652
30
0
10
2.1507800383881532
20
0.47380094362482172
30
0
10
2.1386900675956002
20
0.47446733158403998
30
0
10
2.1266035426625978
20
0.47511905847791719
30
0
10
2.1145215537199138
20
0.47575595324686809
30
0
10
2.1024451268474134
20
0.47637784934454402
30
0
10
2.0903750223609823
20
0.47698461311711365
30
0
10
2.0783115350290893
20
0.47757617238710054
30
0
10
2.0662543051858147
20
0.47815254212807357
30
0
10
2.0542020936606411
20
0.47871385898384711
30
0
10
2.042153015324943
20
0.47926030388164498
30
0
10
2.0301048242024988
20
0.47979201133450317
30
0
10
2.0180551757860403
20
0.48030898598782823
30
0
10
2.0060019087514798
20
0.4808110105204163
30
0
10
1.9939432955608922
20
0.48129757027019587
30
0
10
1.9818783627402781
20
0.48176773850688853
30
0
10
1.9698069590006295
20
0.48222020561903345
30
0
10
1.9577295700661628
20
0.48265345346723038
30
0
10
1.9456472021473312
20
0.48306588991937988
30
0
10
1.9335612369717008
20
0.48345600088890595
30
0
10
1.9214732999265824
20
0.48382249202883459
30
0
10
1.9093851203534764
20
0.48416444164762956
30
0
10
1.8972984015966721
20
0.48448142935633204
30
0
10
1.8852147749225707
20
0.48477341353714792
30
0
10
1.8731357470108221
20
0.48504062611719673
30
0
10
1.8610626512030399
20
0.48528346234320863
30
0
10
1.8489965941236941
20
0.48550236912088957
30
0
10
1.8369384113796965
20
0.48569774229885249
30
0
10
1.8248886012859391
20
0.4858697988919744
30
0
10
1.8128473663743956
20
0.48601857540314125
30
0
10
1.8008147036198581
20
0.48614398306759166
30
0
10
1.7887904782721871
20
0.48624584451787373
30
0
10
1.7767745064114198
20
0.48632393909855115
30
0
10
1.7647666293482631
20
0.48637804233579718
30
0
10
1.752766802188499
20
0.48640797307510414
30
0
10
1.7407751416275652
20
0.48641362054927151
30
0
10
1.7287918766343442
20
0.48639492462236861
30
0
10
1.7168173180011517
20
0.4863518651055701
30
0
10
1.7048518205249168
20
0.48628444750908006
30
0
10
1.6928957480491866
20
0.4861926902305666
30
0
10
1.6809494379497296
20
0.48607661132681551
30
0
10
1.6690131640209886
20
0.48593621491765532
30
0
10
1.6570871487669343
20
0.48577149208260512
30
0
10
1.6451715784302972
20
0.48558242253780126
30
0
10
1.6332666168011154
20
0.48536897605005319
30
0
10
1.6213724200282933
20
0.48513111390604824
30
0
10
1.609489149863842
20
0.48486879048871179
30
0
10
1.5976169904454174
20
0.48458195447700975
30
0
10
1.5857561497801904
20
0.48427055181148365
30
0
10
1.5739068522760282
20
0.48393452975436591
30
0
10
1.5620693340707885
20
0.48357384053082708
30
0
10
1.5502438370617126
20
0.48318844532821015
30
0
10
1.5384306038208093
20
0.48277831771467727
30
0
10
1.5266298713328781
20
0.48234344834302401
30
0
10
1.5148418679076836
20
0.48188384563170461
30
0
10
1.5030668163130043
20
0.4813995282963322
30
0
10
1.4913049355905266
20
0.48089051963057428
30
0
10
1.4795564434159483
20
0.48035684103485421
30
0
10
1.4678215581847496
20
0.4797985059879179
30
0
10
1.4561005013154196
20
0.47921551353932873
30
0
10
1.4443934991737488
20
0.47860784283653379
30
0
10
1.4327007812449721
20
0.47797545863277113
30
0
10
1.4210225785539299
20
0.47731831603541536
30
0
10
1.4093591220193649
20
0.47663636550754607
30
0
10
1.3977106407725444
20
0.4759295578412141
30
0
10
1.3860773606408574
20
0.47519784895642936
30
0
10
1.374459502160515
20
0.47444120527251005
30
0
10
1.3628572837348121
20
0.47365960276454622
30
0
10
1.3512709254913624
20
0.47285302521351508
30
0
10
1.3397006528047
20
0.47202146274697343
30
0
10
1.3281467001544534
20
0.47116491024805662
30
0
10
1.3166093143847932
20
0.47028336584276659
30
0
10
1.3050887593876812
20
0.46937682929841285
30
0
10
1.2935853132663477
20
0.46844530077529983
30
0
10
1.282099262592777
20
0.46748877968194757
30
0
10
1.2706308976982554
20
0.46650726353669031
30
0
10
1.2591805073411337
20
0.46550074673859887
30
0
10
1.2477483740885229
20
0.46446921958203213
30
0
10
1.2363347682704304
20
0.46341266665249359
30
0
10
1.2249399476809455
20
0.46233106785231548
30
0
10
1.2135641610200192
20
0.46122440119017366
30
0
10
1.2022076502194379
20
0.46009264498785707
30
0
10
1.1908706532280509
20
0.45893578044922334
30
0
10
1.1795534066031275
20
0.45775379379192754
30
0
10
1.1682561481768681
20
0.45654667926759124
30
0
10
1.1569791197419634
20
0.45531443889322915
30
0
10
1.1457225698855431
20
0.45405707929170108
30
0
10
1.1344867566541301
20
0.45277460942260916
30
0
10
1.123271950560397
20
0.45146703777550495
30
0
10
1.1120784368128622
20
0.45013437019315283
30
0
10
1.1009065194439658
20
0.44877660643239409
30
0
10
1.0897565182215452
20
0.44739374132899223
30
0
10
1.0786287588091459
20
0.44598577025734398
30
0
10
1.067523565051465
20
0.44455269320709073
30
0
10
1.0564412498439895
20
0.44309451984471154
30
0
10
1.0453821078724734
20
0.44161127318345333
30
0
10
1.0343464043939643
20
0.44010299627378274
30
0
10
1.0233343795065224
20
0.43856974698739837
30
0
10
1.0123462641718115
20
0.4370115836634641
30
0
10
1.0013822925002125
20
0.43542855380197215
30
0
10
0.99044271628120506
20
0.43382068064542045
30
0
10
0.97952781690870272
20
0.43218795265811605
30
0
10
0.96863792260485937
20
0.4305303066908821
30
0
10
0.95777340100188713
20
0.42884764101261802
30
0
10
0.94693464026070395
20
0.42713984233669888
30
0
10
0.93612203405081129
20
0.42540680803672926
30
0
10
0.92533596441787447
20
0.4236484711903335
30
0
10
0.91457678674410903
20
0.4218648224728484
30
0
10
0.90384481067422684
20
0.42005593852200268
30
0
10
0.89314031359004664
20
0.41822195722921807
30
0
10
0.88246355939070276
20
0.41636304435625171
30
0
10
0.87181481559386242
20
0.41447936288880144
30
0
10
0.86119437075569283
20
0.41257104189457167
30
0
10
0.85060255267174711
20
0.41063814404109111
30
0
10
0.84028132305459735
20
0.40872540781939143
30
0
10
0.83209486746456707
20
0.40718552818045833
30
0
10
0.82602767900587604
20
0.40603161794298742
30
0
10
0.82206838237416879
20
0.40527316335788655
30
0
10
0.82020997375329696
20
0.40491595705824174
30
0
0
LINE
5
106
100
AcDbEntity
8
0
100
AcDbLine
10
0.82020997375329696
20
0.40491595705824163
30
0
11
0.75893499940211662
21
0.39260224444738506
31
0
0
SPLINE
5
107
100
AcDbEntity
8
0
100
AcDbSpline
70
4
71
5
72
49
73
43
74
0
42
0.000000001
43
0.0000000001
44
0.0000000001
40
0.39377703887203674
40
0.39377703887203674
40
0.39377703887203674
40
0.39377703887203674
40
0.39377703887203674
40
0.39377703887203674
40
0.39400000000000029
40
0.3950000000000003
40
0.3960000000000003
40
0.3970000000000003
40
0.3980000000000003
40
0.3990000000000003
40
0.4000000000000003
40
0.4010000000000003
40
0.4020000000000003
40
0.4030000000000003
40
0.4040000000000003
40
0.4050000000000003
40
0.40600000000000031
40
0.40700000000000031
40
0.40800000000000031
40
0.40900000000000031
40
0.41000000000000031
40
0.41100000000000031
40
0.41200000000000031
40
0.41300000000000031
40
0.41400000000000031
40
0.41500000000000031
40
0.41600000000000031
40
0.41700000000000031
40
0.41800000000000032
40
0.41900000000000032
40
0.42000000000000032
40
0.42100000000000032
40
0.42200000000000032
40
0.42300000000000032
40
0.42400000000000032
40
0.42500000000000032
40
0.42600000000000032
40
0.42700000000000032
40
0.42800000000000032
40
0.42900000000000033
40
0.43000000000000033
40
0.43000663547305362
40
0.43000663547305362
40
0.43000663547305362
40
0.43000663547305362
40
0.43000663547305362
40
0.43000663547305362
41
1
41
1
41
1
41
1
41
1
41
1
41
1
41
1
41
1
41
1
41
1
41
1
41
1
41
1
41
1
41
1
41
1
41
1
41
1
41
1
41
1
41
1
41
1
41
1
41
1
41
1
41
1
41
1
41
1
41
1
41
1
41
1
41
1
41
1
41
1
41
1
41
1
41
1
41
1
41
1
41
1
41
1
41
1
10
0.75893499940211595
20
0.3926022444473849
30
0
10
0.75847534541959594
20
0.39250578080077442
30
0
10
0.75595454082148728
20
0.39197633361226292
30
0
10
0.75137686973236539
20
0.39101061780005042
30
0
10
0.74475147904680561
20
0.38960166771664301
30
0
10
0.73609252105310596
20
0.38773885358907284
30
0
10
0.72587322943806676
20
0.38550869055867093
30
0
10
0.71568738981164981
20
0.38325383779790306
30
0
10
0.70553554143481145
20
0.38097416579654442
30
0
10
0.69541822326165348
20
0.37866955708876587
30
0
10
0.68533594345068594
20
0.37633994216262773
30
0
10
0.67528914386882644
20
0.37398534193468208
30
0
10
0.66527818180830345
20
0.37160588788976623
30
0
10
0.65530336840895154
20
0.36920176857061165
30
0
10
0.64536499691509952
20
0.36677318944837772
30
0
10
0.63546337596769109
20
0.36432032580458457
30
0
10
0.62559885836637807
20
0.36184328256375392
30
0
10
0.61577187797756139
20
0.35934204081434817
30
0
10
0.60598293584461027
20
0.3568164885885925
30
0
10
0.59623257467897706
20
0.35426647066349493
30
0
10
0.58652135641765246
20
0.35169183394014719
30
0
10
0.57684984048046306
20
0.34909247007718497
30
0
10
0.5672185568911855
20
0.34646837050788809
30
0
10
0.55762799918586992
20
0.34381963541283933
30
0
10
0.54807864453629307
20
0.34114641982318245
30
0
10
0.53857096736982835
20
0.33844889461870237
30
0
10
0.52910545510141527
20
0.33572720294285202
30
0
10
0.51968262419706146
20
0.33298141515253521
30
0
10
0.51030303243856856
20
0.33021149453696863
30
0
10
0.50096726474541198
20
0.32741733616603674
30
0
10
0.49167592212949002
20
0.32459879716610929
30
0
10
0.48242960933120832
20
0.3217557304827684
30
0
10
0.47322892326173532
20
0.31888801676572537
30
0
10
0.46407444043541135
20
0.31599559813669426
30
0
10
0.45496673041338592
20
0.31307846764623215
30
0
10
0.44590636980324871
20
0.31013665745500618
30
0
10
0.43689395648579782
20
0.30717022746924544
30
0
10
0.42793012276531761
20
0.30417925379987798
30
0
10
0.42078663533917776
20
0.30176290279288709
30
0
10
0.41544865263766556
20
0.29993861585032761
30
0
10
0.41189623149984739
20
0.29871618034086855
30
0
10
0.41011671685181456
20
0.29810170852635076
30
0
10
0.41010498687664243
20
0.29809765803816252
30
0
0
LINE
5
108
100
AcDbEntity
8
0
100
AcDbLine
10
0.41010498687664249
20
0.29809765803816252
30
0
11
0.3513357112424722
21
0.27682743844750196
31
0
0
SPLINE
5
109
100
AcDbEntity
8
0
100
AcDbSpline
70
4
71
5
72
66
73
60
74
0
42
0.000000001
43
0.0000000001
44
0.0000000001
40
0.43679179195868467
40
0.43679179195868467
40
0.43679179195868467
40
0.43679179195868467
40
0.43679179195868467
40
0.43679179195868467
40
0.43700000000000033
40
0.43800000000000033
40
0.43900000000000033
40
0.44000000000000034
40
0.44100000000000034
40
0.44200000000000034
40
0.44300000000000034
40
0.44400000000000034
40
0.44500000000000034
40
0.44600000000000034
40
0.44700000000000034
40
0.44800000000000034
40
0.44900000000000034
40
0.45000000000000034
40
0.45100000000000035
40
0.45200000000000035
40
0.45300000000000035
40
0.45400000000000035
40
0.45500000000000035
40
0.45600000000000035
40
0.45700000000000035
40
0.45800000000000035
40
0.45900000000000035
40
0.46000000000000035
40
0.46100000000000035
40
0.46200000000000035
40
0.46300000000000036
40
0.46400000000000036
40
0.46500000000000036
40
0.46600000000000036
40
0.46700000000000036
40
0.46800000000000036
40
0.46900000000000036
40
0.47000000000000036
40
0.47100000000000036
40
0.47200000000000036
40
0.47300000000000036
40
0.47400000000000037
40
0.47500000000000037
40
0.47600000000000037
40
0.47700000000000037
40
0.47800000000000037
40
0.47900000000000037
40
0.48000000000000037
40
0.48100000000000037
40
0.48200000000000037
40
0.48300000000000037
40
0.48400000000000037
40
0.48500000000000038
40
0.48600000000000038
40
0.48700000000000038
40
0.48800000000000038
40
0.48900000000000038
40
0.49000000000000038
40
0.4908045102710728
40
0.4908045102710728
40
0.4908045102710728
40
0.4908045102710728
40
0.4908045102710728
40
0.4908045102710728
41
1
41
1
41
1
41
1
41
1
41
1
41
1
41
1
41
1
41
1
41
1
41
1
41
1
41
1
41
1
41
1
41
1
41
1
41
1
41
1
41
1
41
1
41
1
41
1
41
1
41
1
41
1
41
1
41
1
41
1
41
1
41
1
41
1
41
1
41
1
41
1
41
1
41
1
41
1
41
1
41
1
41
1
41
1
41
1
41
1
41
1
41
1
41
1
41
1
41
1
41
1
41
1
41
1
41
1
41
1
41
1
41
1
41
1
41
1
41
1
10
0.35133571124246288
20
0.27682743844749846
30
0
10
0.35098263976994076
20
0.27669343709733873
30
0
10
0.34893450332589854
20
0.27591553172737959
30
0
10
0.34519859170373524
20
0.27449048250490021
30
0
10
0.3397906513526005
20
0.27241134017457763
30
0
10
0.33273526129786263
20
0.26966744351175381
30
0
10
0.32441000207433501
20
0.26638256015075346
30
0
10
0.31614343078829404
20
0.2630729638289
30
0
10
0.3079365786859049
20
0.25973861987000058
30
0
10
0.29979039204244379
20
0.25637942919766432
30
0
10
0.29170570426815395
20
0.25299521553335874
30
0
10
0.28368330991238816
20
0.24958577123820178
30
0
10
0.2757240247508369
20
0.24615089568107218
30
0
10
0.26782874460198169
20
0.24269043154253969
30
0
10
0.25999852130487139
20
0.23920431432707645
30
0
10
0.25223455649029752
20
0.23569256070140235
30
0
10
0.24453813707868693
20
0.23215521374895198
30
0
10
0.236910588836904
20
0.22859230149388438
30
0
10
0.22935322087519325
20
0.22500378891638889
30
0
10
0.22186727845167933
20
0.22138953563597136
30
0
10
0.21445399357884221
20
0.21774932165901309
30
0
10
0.20711463439653147
20
0.21408287110765226
30
0
10
0.19985055016265471
20
0.21038987569795817
30
0
10
0.19266322998043509
20
0.20667002074619784
30
0
10
0.18555429722420533
20
0.20292299856452028
30
0
10
0.17852546581293979
20
0.19914851546510151
30
0
10
0.17157851103132579
20
0.19534629931699382
30
0
10
0.16471522789239254
20
0.19151611014495459
30
0
10
0.15793741632743555
20
0.18765773843193009
30
0
10
0.15124691440253793
20
0.18377097749605967
30
0
10
0.14464562149216778
20
0.17985560230096495
30
0
10
0.13813552533291523
20
0.17591134384715135
30
0
10
0.13171872789627062
20
0.17193787094732729
30
0
10
0.12539747736839363
20
0.16793480255646281
30
0
10
0.11917419706306222
20
0.16390171576925583
30
0
10
0.11305151983818877
20
0.15983815622275704
30
0
10
0.10703230724315524
20
0.15574364528478007
30
0
10
0.10111956960335097
20
0.15161767079038424
30
0
10
0.095316406516310986
20
0.14745968107206592
30
0
10
0.089625921175785633
20
0.14326907470196001
30
0
10
0.084051204150988879
20
0.13904520188524117
30
0
10
0.078595525286217216
20
0.13478740405312525
30
0
10
0.073262468480415038
20
0.13049504012041682
30
0
10
0.068056132552484341
20
0.1261675323816549
30
0
10
0.062981126986887709
20
0.12180434515567957
30
0
10
0.058042386994331958
20
0.11740490066007506
30
0
10
0.0532450478705771
20
0.11296851883534145
30
0
10
0.048594272424142368
20
0.10849433160655642
30
0
10
0.044095460263042757
20
0.10398144000761228
30
0
10
0.03975445209186533
20
0.099429059774060261
30
0
10
0.035577793036728068
20
0.094836726737788271
30
0
10
0.031572762585233359
20
0.09020427521490787
30
0
10
0.027747152376594249
20
0.085531582459207098
30
0
10
0.024109087067635083
20
0.080818337890250558
30
0
10
0.020666891854968457
20
0.076063903755501469
30
0
10
0.017555972875659867
20
0.071455371096344325
30
0
10
0.015247622807574723
20
0.067776105095079392
30
0
10
0.013634168934000728
20
0.065048162506787827
30
0
10
0.012633624245090694
20
0.063286599339747063
30
0
10
0.012195122514970361
20
0.062500000000039191
30
0
0
LINE
5
110
100
AcDbEntity
8
0
100
AcDbLine
10
0.012195122514970366
20
0.062500000000039177
30
0
11
0.062500000000000014
21
0.062499999999999938
31
0
0
LINE
5
111
100
AcDbEntity
8
0
100
AcDbLine
10
0.062500000000000014
20
0.062499999999999938
30
0
11
0.062499999999999993
21
-5.4636959873285258e-17
31
0
0
LINE
5
112
100
AcDbEntity
8
0
100
AcDbLine
10
0.062499999999999993
20
-5.4636959873285258e-17
30
0
11
0
21
0
31
0
0
SPLINE
5
113
100
AcDbEntity
8
0
100
AcDbSpline
70
4
71
5
72
77
73
71
74
0
42
0.000000001
43
0.0000000001
44
0.0000000001
40
0.50327823899318724
40
0.50327823899318724
40
0.50327823899318724
40
0.50327823899318724
40
0.50327823899318724
40
0.50327823899318724
40
0.50400000000000034
40
0.50500000000000034
40
0.50600000000000034
40
0.50700000000000034
40
0.50800000000000034
40
0.50900000000000034
40
0.51000000000000034
40
0.51100000000000034
40
0.51200000000000034
40
0.51300000000000034
40
0.51400000000000035
40
0.51500000000000035
40
0.51600000000000035
40
0.51700000000000035
40
0.51800000000000035
40
0.51900000000000035
40
0.52000000000000035
40
0.52100000000000035
40
0.52200000000000035
40
0.52300000000000035
40
0.52400000000000035
40
0.52500000000000036
40
0.52600000000000036
40
0.52700000000000036
40
0.52800000000000036
40
0.52900000000000036
40
0.53000000000000036
40
0.53100000000000036
40
0.53200000000000036
40
0.53300000000000036
40
0.53400000000000036
40
0.53500000000000036
40
0.53600000000000037
40
0.53700000000000037
40
0.53800000000000037
40
0.53900000000000037
40
0.54000000000000037
40
0.54100000000000037
40
0.54200000000000037
40
0.54300000000000037
40
0.54400000000000037
40
0.54500000000000037
40
0.54600000000000037
40
0.54700000000000037
40
0.54800000000000038
40
0.54900000000000038
40
0.55000000000000038
40
0.55100000000000038
40
0.55200000000000038
40
0.55300000000000038
40
0.55400000000000038
40
0.55500000000000038
40
0.55600000000000038
40
0.55700000000000038
40
0.55800000000000038
40
0.55900000000000039
40
0.56000000000000039
40
0.56100000000000039
40
0.56200000000000039
40
0.56300000000000039
40
0.56400000000000039
40
0.56500000000000039
40
0.56600000000000039
40
0.56700000000000039
40
0.56800000000000039
40
0.56821608440951898
40
0.56821608440951898
40
0.56821608440951898
40
0.56821608440951898
40
0.56821608440951898
40
0.56821608440951898
41
1
41
1
41
1
41
1
41
1
41
1
41
1
41
1
41
1
41
1
41
1
41
1
41
1
41
1
41
1
41
1
41
1
41
1
41
1
41
1
41
1
41
1
41
1
41
1
41
1
41
1
41
1
41
1
41
1
41
1
41
1
41
1
41
1
41
1
41
1
41
1
41
1
41
1
41
1
41
1
41
1
41
1
41
1
41
1
41
1
41
1
41
1
41
1
41
1
41
1
41
1
41
1
41
1
41
1
41
1
41
1
41
1
41
1
41
1
41
1
41
1
41
1
41
1
41
1
41
1
41
1
41
1
41
1
41
1
41
1
41
1
10
-3.2013843675753081e-20
20
1.2805537470301232e-19
30
0
10
0.00014218900089869714
20
-0.00071139651107079722
30
0
10
0.00050156528383188718
20
-0.0024043733033868179
30
0
10
0.001145570132094556
20
-0.0050643342021310222
30
0
10
0.0021892111613816263
20
-0.0086613062272252669
30
0
10
0.0037932166837147344
20
-0.013142149340545825
30
0
10
0.005804715900217903
20
-0.017780303026735847
30
0
10
0.008119942147681131
20
-0.022303841200746282
30
0
10
0.010727289194157103
20
-0.026708150678748127
30
0
10
0.013614307085350887
20
-0.030990102469655618
30
0
10
0.016768753652688158
20
-0.03514683519349418
30
0
10
0.020178288842115543
20
-0.039176395791299626
30
0
10
0.023830303952500392
20
-0.04307819381109592
30
0
10
0.027711941288899877
20
-0.046853177069024261
30
0
10
0.031810528910192058
20
-0.050503380259673401
30
0
10
0.036113943681100664
20
-0.05403162192641929
30
0
10
0.040610871096372105
20
-0.057441189479154088
30
0
10
0.045290858226320764
20
-0.060735637764392086
30
0
10
0.050144479975648949
20
-0.063918506899762098
30
0
10
0.055163270136023491
20
-0.066993233202385788
30
0
10
0.060339440588671481
20
-0.069963254172718051
30
0
10
0.065665616547576841
20
-0.072832077884422169
30
0
10
0.0711346790993473
20
-0.075603324534880348
30
0
10
0.076739923968062521
20
-0.078280645955697073
30
0
10
0.082475155418746254
20
-0.080867670620065044
30
0
10
0.088334805284869297
20
-0.083367940008609906
30
0
10
0.094313817054600749
20
-0.0857848347863127
30
0
10
0.10040754670652509
20
-0.088121510473617284
30
0
10
0.10661163730559316
20
-0.090380805910582174
30
0
10
0.11292199004565091
20
-0.092565265948143849
30
0
10
0.11933480285369245
20
-0.094677245712467925
30
0
10
0.12584658889380071
20
-0.096718991400162421
30
0
10
0.13245420395245475
20
-0.098692729533050791
30
0
10
0.13915474488087373
20
-0.10060068260477954
30
0
10
0.14594545838886988
20
-0.10244508145309374
30
0
10
0.15282362941302313
20
-0.10422819002249209
30
0
10
0.15978653090404463
20
-0.10595228813165401
30
0
10
0.16683153471864465
20
-0.10761953234569795
30
0
10
0.17395618087953285
20
-0.1092318577815527
30
0
10
0.18115828681016516
20
-0.11079082507126679
30
0
10
0.18843595244610345
20
-0.11229763455134709
30
0
10
0.19578743861509559
20
-0.11375335556117375
30
0
10
0.20321108661879142
20
-0.11515908065535395
30
0
10
0.21070519985083691
20
-0.11651615730207059
30
0
10
0.21826802270745954
20
-0.11782620694731748
30
0
10
0.22589782436048489
20
-0.11909090928130449
30
0
10
0.2335929497001098
20
-0.12031186206716972
30
0
10
0.24135189654427652
20
-0.12149037714589631
30
0
10
0.24917333756618945
20
-0.12262741654887653
30
0
10
0.25705605335183934
20
-0.1237237567326626
30
0
10
0.26499888651614756
20
-0.12478009877845934
30
0
10
0.2730006840055425
20
-0.12579720858057053
30
0
10
0.28106025424306635
20
-0.12677602006555791
30
0
10
0.28917639868737183
20
-0.12771755560907969
30
0
10
0.29734793663232573
20
-0.12862286266714479
30
0
10
0.30557373113160741
20
-0.12949294848958856
30
0
10
0.31385271813638127
20
-0.13032870478524849
30
0
10
0.32218390673542224
20
-0.13113091910797881
30
0
10
0.33056637220930229
20
-0.13190030962009891
30
0
10
0.33899925086103033
20
-0.13263755031165864
30
0
10
0.347481735700783
20
-0.1333433038062726
30
0
10
0.35601306655588394
20
-0.13401823909245514
30
0
10
0.36459250811833449
20
-0.13466302107729236
30
0
10
0.37321932944839681
20
-0.13527830549523354
30
0
10
0.38189278522105885
20
-0.13586473243903316
30
0
10
0.39061209029673322
20
-0.13642291856144875
30
0
10
0.39800233495974136
20
-0.13687028227382658
30
0
10
0.40366258963209201
20
-0.13719754750129867
30
0
10
0.40757358492031148
20
-0.13741651874852107
30
0
10
0.40972296522476309
20
-0.13753473003671252
30
0
10
0.41010498687663832
20
-0.13755567337561686
30
0
0
LINE
5
114
100
AcDbEntity
8
0
100
AcDbLine
10
0.41010498687663821
20
-0.13755567337561686
30
0
11
0.47254379636202903
21
-0.14032064535510383
31
0
0
SPLINE
5
115
100
AcDbEntity
8
0
100
AcDbSpline
70
4
71
5
72
41
73
35
74
0
42
0.000000001
43
0.0000000001
44
0.0000000001
40
0.57516517138290157
40
0.57516517138290157
40
0.57516517138290157
40
0.57516517138290157
40
0.57516517138290157
40
0.57516517138290157
40
0.5760000000000004
40
0.5770000000000004
40
0.5780000000000004
40
0.5790000000000004
40
0.5800000000000004
40
0.58100000000000041
40
0.58200000000000041
40
0.58300000000000041
40
0.58400000000000041
40
0.58500000000000041
40
0.58600000000000041
40
0.58700000000000041
40
0.58800000000000041
40
0.58900000000000041
40
0.59000000000000041
40
0.59100000000000041
40
0.59200000000000041
40
0.59300000000000042
40
0.59400000000000042
40
0.59500000000000042
40
0.59600000000000042
40
0.59700000000000042
40
0.59800000000000042
40
0.59900000000000042
40
0.60000000000000042
40
0.60100000000000042
40
0.60200000000000042
40
0.60300000000000042
40
0.60400000000000043
40
0.60476104794878804
40
0.60476104794878804
40
0.60476104794878804
40
0.60476104794878804
40
0.60476104794878804
40
0.60476104794878804
41
1
41
1
41
1
41
1
41
1
41
1
41
1
41
1
41
1
41
1
41
1
41
1
41
1
41
1
41
1
41
1
41
1
41
1
41
1
41
1
41
1
41
1
41
1
41
1
41
1
41
1
41
1
41
1
41
1
41
1
41
1
41
1
41
1
41
1
41
1
10
0.47254379636202803
20
-0.14032064535510383
30
0
10
0.47406755156391894
20
-0.14037330823964528
30
0
10
0.47741954406108739
20
-0.14048730811231297
30
0
10
0.48260857012104186
20
-0.1406575327751893
30
0
10
0.48964909080590752
20
-0.14087554789115458
30
0
10
0.4985609037838758
20
-0.14112973750830435
30
0
10
0.5078147183428291
20
-0.14137060959090111
30
0
10
0.51710554492629746
20
-0.14158988218486915
30
0
10
0.52643289962756756
20
-0.1417880678977417
30
0
10
0.5357963297364966
20
-0.1419657351962377
30
0
10
0.54519539772908021
20
-0.14212346794176431
30
0
10
0.5546296647021457
20
-0.14226182256361558
30
0
10
0.56409866974092737
20
-0.14238127787276186
30
0
10
0.57360192666570231
20
-0.14248221852403684
30
0
10
0.5831389444058569
20
-0.14256496537242422
30
0
10
0.59270924219964871
20
-0.14262979455582683
30
0
10
0.60231236533299037
20
-0.14267696018282164
30
0
10
0.61194790439456459
20
-0.14270671780390148
30
0
10
0.62161550023640333
20
-0.14271933958119801
30
0
10
0.63131482248974324
20
-0.14271511242571908
30
0
10
0.64104555362933635
20
-0.14269434012838619
30
0
10
0.65080737160021462
20
-0.14265734361088339
30
0
10
0.66059993118648674
20
-0.14260446262554155
30
0
10
0.67042285164422988
20
-0.14253605485974341
30
0
10
0.68027573151983756
20
-0.14245248584326489
30
0
10
0.69015815934969793
20
-0.14235412021044597
30
0
10
0.70006972601987694
20
-0.142241312389769
30
0
10
0.71001003630744008
20
-0.14211439764267603
30
0
10
0.71997872107818706
20
-0.14197368266337312
30
0
10
0.72997543492621852
20
-0.14181944969618354
30
0
10
0.73952078235916552
20
-0.14165996536326872
30
0
10
0.74708062447826185
20
-0.14152477777594349
30
0
10
0.75264077220832393
20
-0.14142065823293992
30
0
10
0.75619132006231349
20
-0.14135228606661437
30
0
10
0.7577264906201967
20
-0.1413223737136961
30
0
0
LINE
5
116
100
AcDbEntity
8
0
100
AcDbLine
10
0.7577264906201967
20
-0.1413223737136961
30
0
11
0.82020997375328086
21
-0.1398855941303597
31
0
0
SPLINE
5
117
100
AcDbEntity
8
0
100
AcDbSpline
70
4
71
5
72
47
73
41
74
0
42
0.000000001
43
0.0000000001
44
0.0000000001
40
0.61090684988659405
40
0.61090684988659405
40
0.61090684988659405
40
0.61090684988659405
40
0.61090684988659405
40
0.61090684988659405
40
0.61100000000000043
40
0.61200000000000043
40
0.61300000000000043
40
0.61400000000000043
40
0.61500000000000044
40
0.61600000000000044
40
0.61700000000000044
40
0.61800000000000044
40
0.61900000000000044
40
0.62000000000000044
40
0.62100000000000044
40
0.62200000000000044
40
0.62300000000000044
40
0.62400000000000044
40
0.62500000000000044
40
0.62600000000000044
40
0.62700000000000045
40
0.62800000000000045
40
0.62900000000000045
40
0.63000000000000045
40
0.63100000000000045
40
0.63200000000000045
40
0.63300000000000045
40
0.63400000000000045
40
0.63500000000000045
40
0.63600000000000045
40
0.63700000000000045
40
0.63800000000000046
40
0.63900000000000046
40
0.64000000000000046
40
0.64100000000000046
40
0.64200000000000046
40
0.64300000000000046
40
0.64400000000000046
40
0.64500000000000046
40
0.64508894376643622
40
0.64508894376643622
40
0.64508894376643622
40
0.64508894376643622
40
0.64508894376643622
40
0.64508894376643622
41
1
41
1
41
1
41
1
41
1
41
1
41
1
41
1
41
1
41
1
41
1
41
1
41
1
41
1
41
1
41
1
41
1
41
1
41
1
41
1
41
1
41
1
41
1
41
1
41
1
41
1
41
1
41
1
41
1
41
1
41
1
41
1
41
1
41
1
41
1
41
1
41
1
41
1
41
1
41
1
41
1
10
0.82020997375393034
20
-0.13988559413034263
30
0
10
0.82040085843027755
20
-0.13988057312429536
30
0
10
0.82264108705528716
20
-0.13982159335165487
30
0
10
0.826933529081472
20
-0.13970739195239792
30
0
10
0.83328479394485844
20
-0.13953507749623636
30
0
10
0.84170511898221445
20
-0.13930023259968025
30
0
10
0.85201552539284675
20
-0.13900286317009081
30
0
10
0.86235016175960322
20
-0.13869526696288564
30
0
10
0.87270874273364829
20
-0.13837768591988428
30
0
10
0.88309101058359341
20
-0.13805032356812799
30
0
10
0.89349672880562903
20
-0.13771335470209656
30
0
10
0.90392567178979988
20
-0.13736694053478687
30
0
10
0.91437761552095331
20
-0.13701124236423465
30
0
10
0.92485232852699018
20
-0.13664643502775772
30
0
10
0.93534956109030332
20
-0.13627272244527444
30
0
10
0.9458690403523673
20
-0.13589034597044164
30
0
10
0.956410484484016
20
-0.13549956962772691
30
0
10
0.96697361324059872
20
-0.13510066953856009
30
0
10
0.97755816061485634
20
-0.13469392128866137
30
0
10
0.9881638850454223
20
-0.13427958911214102
30
0
10
0.99879058459214576
20
-0.13385791192306842
30
0
10
1.0094380902583415
20
-0.1334291026389422
30
0
10
1.0201062478916267
20
-0.13299335437908769
30
0
10
1.0307949036674184
20
-0.13255084453024318
30
0
10
1.0415038880103948
20
-0.13210173969693642
30
0
10
1.0522330003648976
20
-0.131646200270747
30
0
10
1.0629819931131799
20
-0.13118438517012576
30
0
10
1.0737505880202292
20
-0.13071645517125646
30
0
10
1.0845384929762749
20
-0.13024257616084853
30
0
10
1.0953454190587815
20
-0.12976292258053773
30
0
10
1.106171096493612
20
-0.12927768041718829
30
0
10
1.1170152934054101
20
-0.12878705128389847
30
0
10
1.127877826069781
20
-0.12829125320230844
30
0
10
1.138758542497353
20
-0.12779051090925686
30
0
10
1.1496573108286594
20
-0.12728504818300865
30
0
10
1.1605740053843676
20
-0.1267750789254882
30
0
10
1.1695161078082241
20
-0.12635450724445593
30
0
10
1.1762797291365898
20
-0.12603481580994158
30
0
10
1.1808575500581675
20
-0.12581773777110439
30
0
10
1.1832449531860976
20
-0.12570434054638152
30
0
10
1.1834399606299211
20
-0.12569507680371211
30
0
0
LINE
5
118
100
AcDbEntity
8
0
100
AcDbLine
10
1.1834399606299211
20
-0.12569507680371211
30
0
11
1.1834399606299209
21
0.27533789757948418
31
0
0
LINE
5
119
100
AcDbEntity
8
0
100
AcDbLine
10
1.1834399606299209
20
0.27533789757948418
30
0
11
1.2771899606299209
21
0.27533789757948418
31
0
0
LINE
5
120
100
AcDbEntity
8
0
100
AcDbLine
10
1.2771899606299209
20
0.27533789757948418
30
0
11
1.2771899606299209
21
-0.12114077461600954
31
0
0
SPLINE
5
121
100
AcDbEntity
8
0
100
AcDbSpline
70
4
71
5
72
211
73
205
74
0
42
0.000000001
43
0.0000000001
44
0.0000000001
40
0.65358535603025403
40
0.65358535603025403
40
0.65358535603025403
40
0.65358535603025403
40
0.65358535603025403
40
0.65358535603025403
40
0.65400000000000047
40
0.65500000000000047
40
0.65600000000000047
40
0.65700000000000047
40
0.65800000000000047
40
0.65900000000000047
40
0.66000000000000048
40
0.66100000000000048
40
0.66200000000000048
40
0.66300000000000048
40
0.66400000000000048
40
0.66500000000000048
40
0.66600000000000048
40
0.66700000000000048
40
0.66800000000000048
40
0.66900000000000048
40
0.67000000000000048
40
0.67100000000000048
40
0.67200000000000049
40
0.67300000000000049
40
0.67400000000000049
40
0.67500000000000049
40
0.67600000000000049
40
0.67700000000000049
40
0.67800000000000049
40
0.67900000000000049
40
0.68000000000000049
40
0.68100000000000049
40
0.68200000000000049
40
0.6830000000000005
40
0.6840000000000005
40
0.6850000000000005
40
0.6860000000000005
40
0.6870000000000005
40
0.6880000000000005
40
0.6890000000000005
40
0.6900000000000005
40
0.6910000000000005
40
0.6920000000000005
40
0.6930000000000005
40
0.69400000000000051
40
0.69500000000000051
40
0.69600000000000051
40
0.69700000000000051
40
0.69800000000000051
40
0.69900000000000051
40
0.70000000000000051
40
0.70100000000000051
40
0.70200000000000051
40
0.70300000000000051
40
0.70400000000000051
40
0.70500000000000052
40
0.70600000000000052
40
0.70700000000000052
40
0.70800000000000052
40
0.70900000000000052
40
0.71000000000000052
40
0.71100000000000052
40
0.71200000000000052
40
0.71300000000000052
40
0.71400000000000052
40
0.71500000000000052
40
0.71600000000000052
40
0.71700000000000053
40
0.71800000000000053
40
0.71900000000000053
40
0.72000000000000053
40
0.72100000000000053
40
0.72200000000000053
40
0.72300000000000053
40
0.72400000000000053
40
0.72500000000000053
40
0.72600000000000053
40
0.72700000000000053
40
0.72800000000000054
40
0.72900000000000054
40
0.73000000000000054
40
0.73100000000000054
40
0.73200000000000054
40
0.73300000000000054
40
0.73400000000000054
40
0.73500000000000054
40
0.73600000000000054
40
0.73700000000000054
40
0.73800000000000054
40
0.73900000000000055
40
0.74000000000000055
40
0.74100000000000055
40
0.74200000000000055
40
0.74300000000000055
40
0.74400000000000055
40
0.74500000000000055
40
0.74600000000000055
40
0.74700000000000055
40
0.74800000000000055
40
0.74900000000000055
40
0.75000000000000056
40
0.75100000000000056
40
0.75200000000000056
40
0.75300000000000056
40
0.75400000000000056
40
0.75500000000000056
40
0.75600000000000056
40
0.75700000000000056
40
0.75800000000000056
40
0.75900000000000056
40
0.76000000000000056
40
0.76100000000000056
40
0.76200000000000057
40
0.76300000000000057
40
0.76400000000000057
40
0.76500000000000057
40
0.76600000000000057
40
0.76700000000000057
40
0.76800000000000057
40
0.76900000000000057
40
0.77000000000000057
40
0.77100000000000057
40
0.77200000000000057
40
0.77300000000000058
40
0.77400000000000058
40
0.77500000000000058
40
0.77600000000000058
40
0.77700000000000058
40
0.77800000000000058
40
0.77900000000000058
40
0.78000000000000058
40
0.78100000000000058
40
0.78200000000000058
40
0.78300000000000058
40
0.78400000000000059
40
0.78500000000000059
40
0.78600000000000059
40
0.78700000000000059
40
0.78800000000000059
40
0.78900000000000059
40
0.79000000000000059
40
0.79100000000000059
40
0.79200000000000059
40
0.79300000000000059
40
0.79400000000000059
40
0.7950000000000006
40
0.7960000000000006
40
0.7970000000000006
40
0.7980000000000006
40
0.7990000000000006
40
0.8000000000000006
40
0.8010000000000006
40
0.8020000000000006
40
0.8030000000000006
40
0.8040000000000006
40
0.8050000000000006
40
0.8060000000000006
40
0.80700000000000061
40
0.80800000000000061
40
0.80900000000000061
40
0.81000000000000061
40
0.81100000000000061
40
0.81200000000000061
40
0.81300000000000061
40
0.81400000000000061
40
0.81500000000000061
40
0.81600000000000061
40
0.81700000000000061
40
0.81800000000000062
40
0.81900000000000062
40
0.82000000000000062
40
0.82100000000000062
40
0.82200000000000062
40
0.82300000000000062
40
0.82400000000000062
40
0.82500000000000062
40
0.82600000000000062
40
0.82700000000000062
40
0.82800000000000062
40
0.82900000000000063
40
0.83000000000000063
40
0.83100000000000063
40
0.83200000000000063
40
0.83300000000000063
40
0.83400000000000063
40
0.83500000000000063
40
0.83600000000000063
40
0.83700000000000063
40
0.83800000000000063
40
0.83900000000000063
40
0.84000000000000064
40
0.84100000000000064
40
0.84200000000000064
40
0.84300000000000064
40
0.84400000000000064
40
0.84500000000000064
40
0.84600000000000064
40
0.84700000000000064
40
0.84800000000000064
40
0.84900000000000064
40
0.85000000000000064
40
0.85100000000000064
40
0.85200000000000065
40
0.85288535835633517
40
0.85288535835633517
40
0.85288535835633517
40
0.85288535835633517
40
0.85288535835633517
40
0.85288535835633517
41
1
41
1
41
1
41
1
41
1
41
1
41
1
41
1
41
1
41
1
41
1
41
1
41
1
41
1
41
1
41
1
41
1
41
1
41
1
41
1
41
1
41
1
41
1
41
1
41
1
41
1
41
1
41
1
41
1
41
1
41
1
41
1
41
1
41
1
41
1
41
1
41
1
41
1
41
1
41
1
41
1
41
1
41
1
41
1
41
1
41
1
41
1
41
1
41
1
41
1
41
1
41
1
41
1
41
1
41
1
41
1
41
1
41
1
41
1
41
1
41
1
41
1
41
1
41
1
41
1
41
1
41
1
41
1
41
1
41
1
41
1
41
1
41
1
41
1
41
1
41
1
41
1
41
1
41
1
41
1
41
1
41
1
41
1
41
1
41
1
41
1
41
1
41
1
41
1
41
1
41
1
41
1
41
1
41
1
41
1
41
1
41
1
41
1
41
1
41
1
41
1
41
1
41
1
41
1
41
1
41
1
41
1
41
1
41
1
41
1
41
1
41
1
41
1
41
1
41
1
41
1
41
1
41
1
41
1
41
1
41
1
41
1
41
1
41
1
41
1
41
1
41
1
41
1
41
1
41
1
41
1
41
1
41
1
41
1
41
1
41
1
41
1
41
1
41
1
41
1
41
1
41
1
41
1
41
1
41
1
41
1
41
1
41
1
41
1
41
1
41
1
41
1
41
1
41
1
41
1
41
1
41
1
41
1
41
1
41
1
41
1
41
1
41
1
41
1
41
1
41
1
41
1
41
1
41
1
41
1
41
1
41
1
41
1
41
1
41
1
41
1
41
1
41
1
41
1
41
1
41
1
41
1
41
1
41
1
41
1
41
1
41
1
41
1
41
1
41
1
41
1
41
1
41
1
41
1
41
1
41
1
41
1
41
1
41
1
41
1
41
1
41
1
41
1
41
1
41
1
10
1.2771899606299211
20
-0.12114077461600957
30
0
10
1.2781107450213012
20
-0.12109522701025599
30
0
10
1.2812526542731091
20
-0.12093975712859982
30
0
10
1.2866182401038802
20
-0.12067395608395033
30
0
10
1.2942123796217357
20
-0.12029707356735712
30
0
10
1.3040421982987236
20
-0.11980809035392848
30
0
10
1.3151907246026349
20
-0.11925210897382221
30
0
10
1.3263544084229906
20
-0.11869406487712679
30
0
10
1.3375330789381308
20
-0.11813404384667379
30
0
10
1.3487265685882459
20
-0.1175721337588297
30
0
10
1.3599347137851665
20
-0.1170084420582239
30
0
10
1.3711573554376395
20
-0.1164431107553555
30
0
10
1.3823943398827983
20
-0.11587633668109454
30
0
10
1.3936455170698105
20
-0.11530835656853186
30
0
10
1.4049107380739412
20
-0.11473942369571613
30
0
10
1.4161898528830754
20
-0.11416978775612029
30
0
10
1.4274827079718633
20
-0.11359967259962254
30
0
10
1.4387891441966574
20
-0.11302925670383453
30
0
10
1.4501089939500043
20
-0.112458647706056
30
0
10
1.4614420837037863
20
-0.11188789957271175
30
0
10
1.4727882377251069
20
-0.11131703900480557
30
0
10
1.484147281332846
20
-0.11074608826175816
30
0
10
1.4955190444714979
20
-0.11017509039130952
30
0
10
1.5069033648576691
20
-0.10960413131467976
30
0
10
1.5183000920688223
20
-0.10903336876836278
30
0
10
1.5297090855461326
20
-0.10846301697956622
30
0
10
1.5411302110474048
20
-0.10789331994198167
30
0
10
1.5525633376554087
20
-0.1073245290093497
30
0
10
1.5640083344881457
20
-0.10675687767892592
30
0
10
1.5754650676895654
20
-0.10619055991763099
30
0
10
1.5869333969092794
20
-0.10562570096547261
30
0
10
1.5984131743114367
20
-0.10506236749219577
30
0
10
1.609904244432744
20
-0.10450059240400963
30
0
10
1.6214064438838416
20
-0.10394039446076384
30
0
10
1.6329196008488656
20
-0.10338180095310821
30
0
10
1.6444435352933049
20
-0.10282486698278628
30
0
10
1.6559780572995035
20
-0.10226970144866884
30
0
10
1.6675229737311477
20
-0.10171646524773091
30
0
10
1.6790781002423358
20
-0.1011653527629016
30
0
10
1.6906432711699371
20
-0.10061657858859248
30
0
10
1.7022183513843046
20
-0.10007036171874166
30
0
10
1.7138032447903284
20
-0.099526911684264627
30
0
10
1.7253979104593453
20
-0.098986411730390592
30
0
10
1.7370023514707928
20
-0.098449011433465378
30
0
10
1.7486165735276975
20
-0.097914829155249739
30
0
10
1.7602405525252689
20
-0.097383952125290232
30
0
10
1.7718741964086981
20
-0.096856437010962998
30
0
10
1.783517314230249
20
-0.096332311382509472
30
0
10
1.7951695706170503
20
-0.095811572123895183
30
0
10
1.8068304842461655
20
-0.095294193940048608
30
0
10
1.8184995270472104
20
-0.094780161627525575
30
0
10
1.8301762028555002
20
-0.094269497204275451
30
0
10
1.841860135097287
20
-0.093762289874901497
30
0
10
1.8535511486622815
20
-0.093258722977688113
30
0
10
1.8652493589317014
20
-0.092759106529622812
30
0
10
1.8769552441838953
20
-0.092263894881580905
30
0
10
1.8886695832520497
20
-0.091773581572536261
30
0
10
1.900393405431217
20
-0.091288604634845644
30
0
10
1.9121279352508382
20
-0.090809249048716928
30
0
10
1.9238745404682154
20
-0.090335547799883842
30
0
10
1.9356346762367644
20
-0.08986718967252183
30
0
10
1.9474098375106106
20
-0.089403407694503875
30
0
10
1.959201416141293
20
-0.088943096720572656
30
0
10
1.9710105446707786
20
-0.088484958312314205
30
0
10
1.9828379497374709
20
-0.088027633466965072
30
0
10
1.9946837904635859
20
-0.087569845901264182
30
0
10
2.0065475288651204
20
-0.087110528129050221
30
0
10
2.0184277220287061
20
-0.086648986871588243
30
0
10
2.0303221574382238
20
-0.08618489842320895
30
0
10
2.042228192778508
20
-0.085718203606489116
30
0
10
2.0541430294487113
20
-0.085249034217081396
30
0
10
2.0660640220986011
20
-0.084777624527840933
30
0
10
2.0779889528429463
20
-0.084304233621670985
30
0
10
2.0899163686966711
20
-0.083829052383631544
30
0
10
2.1018457349314787
20
-0.083352151990584294
30
0
10
2.1137771600614448
20
-0.082873527464341845
30
0
10
2.1257112051340532
20
-0.082393122557708656
30
0
10
2.1376486599263447
20
-0.081910861994461334
30
0
10
2.149590332311742
20
-0.081426680715941141
30
0
10
2.1615368342360211
20
-0.080940554068642395
30
0
10
2.1734883628879369
20
-0.080452528542635779
30
0
10
2.1854447875389154
20
-0.079962705774433263
30
0
10
2.1974057457526452
20
-0.079471225055541272
30
0
10
2.2093707346848976
20
-0.078978246666813981
30
0
10
2.2213392077034806
20
-0.078483934253883461
30
0
10
2.2333106611529807
20
-0.077988439037125906
30
0
10
2.2452847444295174
20
-0.077491879648252632
30
0
10
2.2572612685892617
20
-0.076994341036168853
30
0
10
2.2692401551009405
20
-0.076495884634309744
30
0
10
2.2812214031924714
20
-0.075996555015032372
30
0
10
2.2932050487652362
20
-0.075496388168160941
30
0
10
2.3051911286311095
20
-0.07499541868876429
30
0
10
2.3171796383515453
20
-0.074493688383178436
30
0
10
2.3291705058560268
20
-0.073991251256313825
30
0
10
2.3411636089885217
20
-0.073488168356879519
30
0
10
2.3531587853163485
20
-0.072984504397928654
30
0
10
2.3651558449401042
20
-0.072480323717733025
30
0
10
2.3771545821381364
20
-0.071975686429144509
30
0
10
2.3891547872413259
20
-0.071470644706793859
30
0
10
2.401156259134237
20
-0.070965238426195995
30
0
10
2.4131588072590819
20
-0.070459499559733324
30
0
10
2.4251622525102285
20
-0.069953457570030339
30
0
10
2.4371664284508605
20
-0.069447144312579201
30
0
10
2.4491711825684979
20
-0.068940599445366235
30
0
10
2.4611763771068609
20
-0.068433874922103038
30
0
10
2.4731818910902814
20
-0.067927041613341191
30
0
10
2.4851876176886267
20
-0.067420187900270365
30
0
10
2.4971934573689012
20
-0.066913411074496221
30
0
10
2.5091993122701699
20
-0.066406810798235405
30
0
10
2.5212050799757582
20
-0.065900481603793068
30
0
10
2.5332106477772571
20
-0.065394506072780953
30
0
10
2.5452158861694358
20
-0.064888947082848702
30
0
10
2.5572206443283392
20
-0.064383842352728107
30
0
10
2.5692247569938673
20
-0.063879212082101136
30
0
10
2.5812280500721743
20
-0.063375065118317517
30
0
10
2.5932303466520232
20
-0.062871405611876707
30
0
10
2.6052314730272177
20
-0.062368239644929262
30
0
10
2.6172312642888569
20
-0.061865581446723876
30
0
10
2.6292295712153222
20
-0.06136346089168726
30
0
10
2.6412262584606263
20
-0.060861922365690713
30
0
10
2.6532212004253362
20
-0.060361021342065155
30
0
10
2.6652142779460175
20
-0.059860821748183489
30
0
10
2.6772053745684978
20
-0.059361392969658699
30
0
10
2.6891943731699355
20
-0.058862807082551379
30
0
10
2.7011811520150695
20
-0.058365135810595471
30
0
10
2.7131655825493999
20
-0.057868448235654693
30
0
10
2.7251475296286474
20
-0.057372809533210355
30
0
10
2.7371268511659061
20
-0.056878279469837076
30
0
10
2.7491033980012465
20
-0.056384910978957155
30
0
10
2.7610770137055742
20
-0.055892748743981396
30
0
10
2.773047534343005
20
-0.055401827681277188
30
0
10
2.7850147884467922
20
-0.054912171738773698
30
0
10
2.7969786011371109
20
-0.054423798507800644
30
0
10
2.8089387980968232
20
-0.053936723624158293
30
0
10
2.8208952094928956
20
-0.053450965125733128
30
0
10
2.8328476741659494
20
-0.052966548107354176
30
0
10
2.8447960431311357
20
-0.052483508595564297
30
0
10
2.8567401848439196
20
-0.052001899429813772
30
0
10
2.8686799812144161
20
-0.051521785610053189
30
0
10
2.880615319841612
20
-0.051043235319886311
30
0
10
2.892546087617534
20
-0.050566312550127938
30
0
10
2.9044721634382578
20
-0.050091068613102113
30
0
10
2.9163934120452319
20
-0.049617535158322797
30
0
10
2.9283096755629852
20
-0.049145714047666086
30
0
10
2.9402207722922071
20
-0.048675577181187459
30
0
10
2.9521265080803847
20
-0.048207083602091201
30
0
10
2.9640266848339176
20
-0.047740192662798685
30
0
10
2.9759211102372145
20
-0.047274878877438697
30
0
10
2.9878096068209787
20
-0.046811145814481737
30
0
10
2.999692021630278
20
-0.046349040968860201
30
0
10
3.0115682347337764
20
-0.045888668618602475
30
0
10
3.0234381468556708
20
-0.045430165920077037
30
0
10
3.0353016677992484
20
-0.044973680352784151
30
0
10
3.0471587047964448
20
-0.044519347149591805
30
0
10
3.0590091503829582
20
-0.044067265617080319
30
0
10
3.0708528716620367
20
-0.043617478546910268
30
0
10
3.0826896959064576
20
-0.043169943534931095
30
0
10
3.0945194180617852
20
-0.042724552687609024
30
0
10
3.1063418152151776
20
-0.042281167804467362
30
0
10
3.1181566584834868
20
-0.041839649671399748
30
0
10
3.129963726554974
20
-0.041399891439098051
30
0
10
3.1417628171864891
20
-0.040961846478706494
30
0
10
3.1535537628693149
20
-0.040525567902670458
30
0
10
3.1653364320329911
20
-0.040091207273929522
30
0
10
3.1771107143884922
20
-0.039658968396444103
30
0
10
3.1888765105688468
20
-0.039229073403559314
30
0
10
3.2006337197638075
20
-0.038801722845790206
30
0
10
3.2123822288009736
20
-0.038377060628481868
30
0
10
3.2241218991946856
20
-0.037955131390374645
30
0
10
3.2358525594349064
20
-0.037535858080033117
30
0
10
3.2475740154708808
20
-0.037119090229553141
30
0
10
3.2592860583094185
20
-0.036704640991726073
30
0
10
3.2709884727487153
20
-0.036292328617996097
30
0
10
3.2826810456166853
20
-0.035882015959108726
30
0
10
3.2943635742491675
20
-0.035473651014778465
30
0
10
3.3060358747906129
20
-0.035067306489772035
30
0
10
3.3176977786607411
20
-0.034663139511972772
30
0
10
3.3293491290866757
20
-0.034261351567945499
30
0
10
3.3409897776196957
20
-0.03386214894423531
30
0
10
3.3526195806407264
20
-0.033465701636105835
30
0
10
3.3642383959124764
20
-0.033072106007311308
30
0
10
3.3758460790030087
20
-0.032681337707992121
30
0
10
3.3874424806463881
20
-0.032293279090738633
30
0
10
3.3990274442361494
20
-0.031907762300853883
30
0
10
3.4106008033805817
20
-0.031524606152836955
30
0
10
3.4221623791909734
20
-0.031143657403487329
30
0
10
3.433711978246782
20
-0.030764825967836133
30
0
10
3.4452493888398044
20
-0.030388133335964532
30
0
10
3.456774385531205
20
-0.030013699354549155
30
0
10
3.468286737795375
20
-0.029641699313325814
30
0
10
3.4797862171782397
20
-0.029272331126678042
30
0
10
3.4912726055022438
20
-0.028905776724518266
30
0
10
3.5027457016247512
20
-0.028542169636764713
30
0
10
3.5142053313053938
20
-0.028181550668328729
30
0
10
3.5256513450631761
20
-0.027823868351474036
30
0
10
3.5370836065173514
20
-0.027469014570720603
30
0
10
3.5485019836524168
20
-0.027116849570863692
30
0
10
3.559906338469526
20
-0.02676723245368632
30
0
10
3.5712965182820327
20
-0.026420046718414823
30
0
10
3.5826723439536887
20
-0.026075234358389873
30
0
10
3.593773113806634
20
-0.025740652639260179
30
0
10
3.6025904703417906
20
-0.025476387333326897
30
0
10
3.6091321969638077
20
-0.025281173951717216
30
0
10
3.6134040140117754
20
-0.025154067354263579
30
0
10
3.6154094488187183
20
-0.025094478525699283
30
0
0
LINE
5
122
100
AcDbEntity
8
0
100
AcDbLine
10
1.4021899606299209
20
0.17301062008119908
30
0
11
1.4021899606299209
21
0.20089650282617511
31
0
0
SPLINE
5
123
100
AcDbEntity
8
0
100
AcDbSpline
70
0
71
3
72
14
73
10
74
0
42
0.000000001
43
0.0000000001
44
0.0000000001
40
0
40
0
40
0
40
0
40
0.12402962030034975
40
0.12402962030034975
40
0.24805924060069928
40
0.24805924060069928
40
0.37208886090104865
40
0.37208886090104865
40
0.48756443381998071
40
0.48756443381998071
40
0.48756443381998071
40
0.48756443381998071
10
1.5222125360598167
20
0.32579736449113283
30
0
10
1.505948592282923
20
0.32514923002446228
30
0
10
1.4899667357467787
20
0.32133058220059413
30
0
10
1.4603663387193271
20
0.30778214030949097
30
0
10
1.4470307941570646
20
0.29818187673120627
30
0
10
1.4247902485670996
20
0.27441000440864693
30
0
10
1.4160978792772709
20
0.26046566772044744
30
0
10
1.4049457851160343
20
0.2310795045562789
30
0
10
1.4021899606299211
20
0.21605077748745227
30
0
10
1.4021899606299211
20
0.20089650282617511
30
0
0
SPLINE
5
124
100
AcDbEntity
8
0
100
AcDbSpline
70
0
71
3
72
11
73
7
74
0
42
0.000000001
43
0.0000000001
44
0.0000000001
40
-0.3259027638725237
40
-0.3259027638725237
40
-0.3259027638725237
40
-0.3259027638725237
40
-0.32486248072389723
40
-0.32486248072389723
40
-0.32486248072389723
40
-0.28655012278222847
40
-0.28655012278222847
40
-0.28655012278222847
40
-0.28655012278222847
10
1.5222125360598275
20
0.32579736449113317
30
0
10
1.5261827860950248
20
0.32595558293583582
30
0
10
1.5301550732005094
20
0.32610946055549817
30
0
10
1.5341299469524905
20
0.32625901704986288
30
0
10
1.6805196930133783
20
0.33176700009483351
30
0
10
1.8301190488780583
20
0.33129666276809533
30
0
10
1.9812356418191477
20
0.32542198909521658
30
0
0
SPLINE
5
125
100
AcDbEntity
8
0
100
AcDbSpline
70
0
71
3
72
14
73
10
74
0
42
0.000000001
43
0.0000000001
44
0.0000000001
40
0
40
0
40
0
40
0
40
0.1240296203003536
40
0.1240296203003536
40
0.24805924060070714
40
0.24805924060070714
40
0.37208886090106091
40
0.37208886090106091
40
0.48787633946582187
40
0.48787633946582187
40
0.48787633946582187
40
0.48787633946582187
10
2.1013799212598419
20
0.20051633678976685
30
0
10
2.1013799212598419
20
0.21679318984755602
30
0
10
2.0982006899142638
20
0.23291442731854242
30
0
10
2.0858416633305263
20
0.26303083885381534
30
0
10
2.0767800271226982
20
0.27673808360911217
30
0
10
2.0539126135354571
20
0.29990757168480181
30
0
10
2.0403254610936425
20
0.30914830207084426
30
0
10
2.0113690132527231
20
0.321477726341028
30
0
10
1.996419379917733
20
0.32483171965671953
30
0
10
1.9812356418191137
20
0.32542198909522202
30
0
0
LINE
5
126
100
AcDbEntity
8
0
100
AcDbLine
10
2.1013799212598419
20
0.20051633678976685
30
0
11
2.1013799212598419
21
0.19318274356715906
31
0
0
SPLINE
5
127
100
AcDbEntity
8
0
100
AcDbSpline
70
0
71
3
72
14
73
10
74
0
42
0.000000001
43
0.0000000001
44
0.0000000001
40
0
40
0
40
0
40
0
40
0.12402962030034943
40
0.12402962030034943
40
0.24805924060069906
40
0.24805924060069906
40
0.37208886090104881
40
0.37208886090104881
40
0.48794438633880971
40
0.48794438633880971
40
0.48794438633880971
40
0.48794438633880971
10
1.9812090903586161
20
0.068276061897140181
30
0
10
1.9974737919864471
20
0.068904891303635987
30
0
10
2.0134601698355934
20
0.072704566659366976
30
0
10
2.0430766274308767
20
0.086217864604952954
30
0
10
2.0564235577001857
20
0.095802292701131761
30
0
10
2.0786923038158891
20
0.11954774970439264
30
0
10
2.0874012183120136
20
0.13348175910024948
30
0
10
2.0986059318051407
20
0.16290126186510109
30
0
10
2.101379921259841
20
0.1779786063706025
30
0
10
2.101379921259841
20
0.19318274356715906
30
0
0
SPLINE
5
128
100
AcDbEntity
8
0
100
AcDbSpline
70
0
71
3
72
8
73
4
74
0
42
0.000000001
43
0.0000000001
44
0.0000000001
40
-0.71537187467085561
40
-0.71537187467085561
40
-0.71537187467085561
40
-0.71537187467085561
40
-0.67700431144835227
40
-0.67700431144835227
40
-0.67700431144835227
40
-0.67700431144835227
10
1.9812090903586161
20
0.068276061897140181
30
0
10
1.8296647119015066
20
0.062417020413102035
30
0
10
1.6797577743406069
20
0.055455473034702663
30
0
10
1.5334088576192266
20
0.04816541464568215
30
0
0
SPLINE
5
129
100
AcDbEntity
8
0
100
AcDbSpline
70
0
71
3
72
16
73
12
74
0
42
0.000000001
43
0.0000000001
44
0.0000000001
40
0
40
0
40
0
40
0
40
0.1240296203003497
40
0.1240296203003497
40
0.24805924060069934
40
0.24805924060069934
40
0.37208886090104892
40
0.37208886090104892
40
0.44396997910101016
40
0.44396997910101016
40
0.51585109730097167
40
0.51585109730097167
40
0.51585109730097167
40
0.51585109730097167
10
1.4021899606299209
20
0.17301062008119908
30
0
10
1.4021899606299209
20
0.15673376702341041
30
0
10
1.4053691919754989
20
0.14061252955242454
30
0
10
1.4177282185592357
20
0.11049611801715256
30
0
10
1.4267898547670641
20
0.096788873261856131
30
0
10
1.4496572683543039
20
0.073619385186167285
30
0
10
1.4632444207961184
20
0.064378654800125085
30
0
10
1.4868994441772951
20
0.054306534732431584
30
0
10
1.4959691531431227
20
0.051605320467141585
30
0
10
1.5145428660365547
20
0.048294796735269013
30
0
10
1.5239873216916335
20
0.047696100976915914
30
0
10
1.5334088576166918
20
0.048165414645555758
30
0
0
LINE
5
130
100
AcDbEntity
8
0
100
AcDbLine
10
1.0584399606299211
20
0.16279165726589331
30
0
11
1.0584399606299209
21
0.13499610091866579
31
0
0
SPLINE
5
131
100
AcDbEntity
8
0
100
AcDbSpline
70
0
71
3
72
14
73
10
74
0
42
0.000000001
43
0.0000000001
44
0.0000000001
40
0
40
0
40
0
40
0
40
0.062014810150174605
40
0.062014810150174605
40
0.12402962030034932
40
0.12402962030034932
40
0.18604443045052432
40
0.18604443045052432
40
0.24369205296004473
40
0.24369205296004473
40
0.24369205296004473
40
0.24369205296004473
10
0.99846385456433029
20
0.072547082035997676
30
0
10
1.0065956425959803
20
0.0728757304416284
30
0
10
1.0145854939602073
20
0.074789555816033124
30
0
10
1.0293818738035234
20
0.081572113519227191
30
0
10
1.0360469408266602
20
0.086376000899594463
30
0
10
1.0471605158017956
20
0.098268199886194132
30
0
10
1.0515027719196661
20
0.10524281558836535
30
0
10
1.0570663485518825
20
0.11992797110111171
30
0
10
1.05843996062992
20
0.12743079612739017
30
0
10
1.05843996062992
20
0.13499610091866579
30
0
0
SPLINE
5
132
100
AcDbEntity
8
0
100
AcDbSpline
70
0
71
3
72
11
73
7
74
0
42
0.000000001
43
0.0000000001
44
0.0000000001
40
-0.62875124478033551
40
-0.62875124478033551
40
-0.62875124478033551
40
-0.62875124478033551
40
-0.6176796263364539
40
-0.6176796263364539
40
-0.6176796263364539
40
-0.5733010184077757
40
-0.5733010184077757
40
-0.5733010184077757
40
-0.5733010184077757
10
0.99846385456827402
20
0.072547082036157076
30
0
10
0.95959531131803899
20
0.070976199381723878
30
0
10
0.92124031312023524
20
0.069550003551425335
30
0
10
0.88346031192140817
20
0.068320980036186779
30
0
10
0.7320259151124876
20
0.063394658469529186
30
0
10
0.58904582279597772
20
0.061434634217249026
30
0
10
0.46376090302850892
20
0.066395739967399905
30
0
0
SPLINE
5
133
100
AcDbEntity
8
0
100
AcDbSpline
70
0
71
3
72
22
73
18
74
0
42
0.000000001
43
0.0000000001
44
0.0000000001
40
0
40
0
40
0
40
0
40
0.015503702537543702
40
0.015503702537543702
40
0.031007405075087313
40
0.031007405075087313
40
0.0465111076126309
40
0.0465111076126309
40
0.062014810150174508
40
0.062014810150174508
40
0.077518512687718102
40
0.077518512687718102
40
0.093022215225261759
40
0.093022215225261759
40
0.10142616452185431
40
0.10142616452185431
40
0.10983011381844654
40
0.10983011381844654
40
0.10983011381844654
40
0.10983011381844654
10
0.45913317935969394
20
0.09672653569129297
30
0
10
0.45721667344522293
20
0.096043433043306786
30
0
10
0.45545191550896647
20
0.094992525007104339
30
0
10
0.4524245614578386
20
0.092273403082535274
30
0
10
0.45119090849773136
20
0.090631185481803503
30
0
10
0.44942252796028387
20
0.086966308012319735
30
0
10
0.44890470706472374
20
0.084978686369688528
30
0
10
0.44866009719090555
20
0.080916831793120925
30
0
10
0.44893564681636405
20
0.078881432402818266
30
0
10
0.45025143546769303
20
0.075030822474951464
30
0
10
0.45127909483689654
20
0.073252425867042253
30
0
10
0.45395825593361844
20
0.070189650588089389
30
0
10
0.45558414342079639
20
0.068934553718054029
30
0
10
0.45839173972782765
20
0.067534115076690757
30
0
10
0.4594280109049737
20
0.067147708926627983
30
0
10
0.46156457995056743
20
0.066599571926217377
30
0
10
0.46265888596940202
20
0.066439378285481701
30
0
10
0.46376090278528448
20
0.066395739977031396
30
0
0
SPLINE
5
134
100
AcDbEntity
8
0
100
AcDbSpline
70
0
71
3
72
11
73
7
74
0
42
0.000000001
43
0.0000000001
44
0.0000000001
40
-0.43230948436537803
40
-0.43230948436537803
40
-0.43230948436537803
40
-0.43230948436537803
40
-0.41530527867408557
40
-0.41530527867408557
40
-0.41530527867408557
40
-0.37532719107485468
40
-0.37532719107485468
40
-0.37532719107485468
40
-0.37532719107485468
10
0.45913317935969578
20
0.096726535691293636
30
0
10
0.50370932583917571
20
0.11261486844687517
30
0
10
0.5513574409519556
20
0.12771784951057663
30
0
10
0.60134175979410376
20
0.14186247321842496
30
0
10
0.71885842088004703
20
0.17511748176846192
30
0
10
0.84878029324491222
20
0.20293931661837258
30
0
10
0.98624012631781055
20
0.22453437517106531
30
0
0
SPLINE
5
135
100
AcDbEntity
8
0
100
AcDbSpline
70
0
71
3
72
16
73
12
74
0
42
0.000000001
43
0.0000000001
44
0.0000000001
40
0
40
0
40
0
40
0
40
0.062014810150175882
40
0.062014810150175882
40
0.12402962030035181
40
0.12402962030035181
40
0.18604443045052765
40
0.18604443045052765
40
0.23043677676124372
40
0.23043677676124372
40
0.27482912307195934
40
0.27482912307195934
40
0.27482912307195934
40
0.27482912307195934
10
1.0584399606299211
20
0.16279165726589331
30
0
10
1.0584399606299211
20
0.17093008379478777
30
0
10
1.056850344957132
20
0.17899070253028088
30
0
10
1.0506708316652635
20
0.19404890829791713
30
0
10
1.0461400135613492
20
0.20090253067556546
30
0
10
1.0347063067677291
20
0.21248727471341011
30
0
10
1.0279127305468219
20
0.21710763990643131
30
0
10
1.0150647172460963
20
0.22257822137705469
30
0
10
1.0094117353524705
20
0.22409990181481873
30
0
10
0.99784873899167625
20
0.22553355816960904
30
0
10
0.99199530554090909
20
0.22543851880000962
30
0
10
0.98624012629626667
20
0.22453437516768185
30
0
0
SPLINE
5
136
100
AcDbEntity
8
0
100
AcDbSpline
70
0
71
3
72
11
73
7
74
0
42
0.000000001
43
0.0000000001
44
0.0000000001
40
-0.81829991045685702
40
-0.81829991045685702
40
-0.81829991045685702
40
-0.81829991045685702
40
-0.76150374936177712
40
-0.76150374936177712
40
-0.76150374936177712
40
-0.74140113683256958
40
-0.74140113683256958
40
-0.74140113683256958
40
-0.74140113683256958
10
3.2102831726567724
20
0.11789803337666666
30
0
10
2.9875415629824302
20
0.1098832480884815
30
0
10
2.7600700417467232
20
0.10054716864283984
30
0
10
2.5326842332524468
20
0.090971757531140868
30
0
10
2.4522025824741691
20
0.0875826062984702
30
0
10
2.3717842388526122
20
0.084173899490308304
30
0
10
2.2914894931846845
20
0.080818414823985496
30
0
0
SPLINE
5
137
100
AcDbEntity
8
0
100
AcDbSpline
70
0
71
3
72
16
73
12
74
0
42
0.000000001
43
0.0000000001
44
0.0000000001
40
0
40
0
40
0
40
0
40
0.06201481015017507
40
0.06201481015017507
40
0.12402962030034939
40
0.12402962030034939
40
0.1860444304505251
40
0.1860444304505251
40
0.22134748694334605
40
0.22134748694334605
40
0.25665054343616811
40
0.25665054343616811
40
0.25665054343616811
40
0.25665054343616811
10
2.2263799212598419
20
0.14326391213459286
30
0
10
2.2263799212598419
20
0.13512548560569848
30
0
10
2.2279695369326311
20
0.12706486687020557
30
0
10
2.2341490502244996
20
0.11200666110256963
30
0
10
2.2386798683284135
20
0.10515303872492131
30
0
10
2.2501135751220338
20
0.09356829468707685
30
0
10
2.2569071513429408
20
0.088947929494055861
30
0
10
2.2686576884930147
20
0.083944644604909829
30
0
10
2.2731089417129047
20
0.082609230514260043
30
0
10
2.2822244888390628
20
0.080946824448900279
30
0
10
2.2868605862014388
20
0.08062497468945605
30
0
10
2.2914894931187639
20
0.080818414821230519
30
0
0
LINE
5
138
100
AcDbEntity
8
0
100
AcDbLine
10
2.2263799212598419
20
0.14326391213459286
30
0
11
2.2263799212598419
21
0.24589483601837411
31
0
0
SPLINE
5
139
100
AcDbEntity
8
0
100
AcDbSpline
70
0
71
3
72
16
73
12
74
0
42
0.000000001
43
0.0000000001
44
0.0000000001
40
0
40
0
40
0
40
0
40
0.062014810150174259
40
0.062014810150174259
40
0.12402962030034936
40
0.12402962030034936
40
0.18604443045052388
40
0.18604443045052388
40
0.22362328819125071
40
0.22362328819125071
40
0.2612021459319776
40
0.2612021459319776
40
0.2612021459319776
40
0.2612021459319776
10
2.2932727367777472
20
0.30824027026841083
30
0
10
2.2851544370008523
20
0.30881227996997013
30
0
10
2.277002026380321
20
0.30779313647644202
30
0
10
2.2615467329484602
20
0.3026872721617615
30
0
10
2.2543916111661253
20
0.29864936618636861
30
0
10
2.2420318981686034
20
0.2880581698382817
30
0
10
2.2369454725462363
20
0.28160613707532339
30
0
10
2.2309926467641561
20
0.26997042978290836
30
0
10
2.2292740316391058
20
0.26532956488641657
30
0
10
2.2269636195875329
20
0.2557407666944107
30
0
10
2.2263799212598419
20
0.25082644464576609
30
0
10
2.2263799212598419
20
0.24589483601837411
30
0
0
SPLINE
5
140
100
AcDbEntity
8
0
100
AcDbSpline
70
0
71
3
72
8
73
4
74
0
42
0.000000001
43
0.0000000001
44
0.0000000001
40
-0.26031957622676066
40
-0.26031957622676066
40
-0.26031957622676066
40
-0.26031957622676066
40
-0.18260154486166086
40
-0.18260154486166086
40
-0.18260154486166086
40
-0.18260154486166086
10
2.2932727367825625
20
0.30824027026807166
30
0
10
2.602591400869398
20
0.28644589440185936
30
0
10
2.9136182318680599
20
0.25080680993159088
30
0
10
3.2137604445251888
20
0.20612941898640552
30
0
0
SPLINE
5
141
100
AcDbEntity
8
0
100
AcDbSpline
70
0
71
3
72
14
73
10
74
0
42
0.000000001
43
0.0000000001
44
0.0000000001
40
0
40
0
40
0
40
0
40
0.031007405075086866
40
0.031007405075086866
40
0.062014810150173738
40
0.062014810150173738
40
0.087636255313801828
40
0.087636255313801828
40
0.11325770047742995
40
0.11325770047742995
40
0.11325770047742995
40
0.11325770047742995
10
3.2404094488188973
20
0.17521998129319144
30
0
10
3.2404094488188973
20
0.17928919455763853
30
0
10
3.2396146409825026
20
0.18331950392538493
30
0
10
3.2365248843365686
20
0.19084860680920279
30
0
10
3.2342594752846114
20
0.19427541799802689
30
0
10
3.2290391281762245
20
0.19956472496828365
30
0
10
3.2263063763150917
20
0.20156103429788963
30
0
10
3.2203103548255756
20
0.20460578553922648
30
0
10
3.217086195550479
20
0.20563436739926663
30
0
10
3.2137604445251973
20
0.20612941898640386
30
0
0
LINE
5
142
100
AcDbEntity
8
0
100
AcDbLine
10
3.2404094488188973
20
0.17521998129319144
30
0
11
3.2404094488188973
21
0.14912782275693925
31
0
0
SPLINE
5
143
100
AcDbEntity
8
0
100
AcDbSpline
70
0
71
3
72
14
73
10
74
0
42
0.000000001
43
0.0000000001
44
0.0000000001
40
0
40
0
40
0
40
0
40
0.031007405075087716
40
0.031007405075087716
40
0.062014810150173981
40
0.062014810150173981
40
0.093022215225261828
40
0.093022215225261828
40
0.12220027040230294
40
0.12220027040230294
40
0.12220027040230294
40
0.12220027040230294
10
3.2102831726567724
20
0.11789803337666666
30
0
10
3.2143497541989201
20
0.11804435887895985
30
0
10
3.2183488763806722
20
0.11898357923220604
30
0
10
3.225762004831481
20
0.1223420778458762
30
0
10
3.2291051375520796
20
0.12472924702903045
30
0
10
3.234688190151231
20
0.13065069195753545
30
0
10
3.2368747330039369
20
0.134128355461933
30
0
10
3.2397056573840777
20
0.14150194812833591
30
0
10
3.2404094488188964
20
0.14529868165759002
30
0
10
3.2404094488188964
20
0.14912782275693925
30
0
0
ENDSEC
0
SECTION
2
OBJECTS
0
DICTIONARY
5
C
100
AcDbDictionary
3
ACAD_GROUP
350
D
3
ACAD_MLINESTYLE
350
17
0
DICTIONARY
5
D
100
AcDbDictionary
0
DICTIONARY
5
1A
330
C
100
AcDbDictionary
0
DICTIONARY
5
17
100
AcDbDictionary
0
ENDSEC
0
EOF
