0
SECTION
2
HEADER
9
$INSUNITS
70
1
9
$ACADVER
1
AC1014
9
$HANDSEED
5
FFFF
0
ENDSEC
0
SECTION
2
TABLES
0
TABLE
2
VPORT
5
8
100
AcDbSymbolTable
0
ENDTAB
0
TABLE
2
LTYPE
5
5
100
AcDbSymbolTable
0
LTYPE
5
14
100
AcDbSymbolTableRecord
100
AcDbLinetypeTableRecord
2
BYBLOCK
70
0
0
LTYPE
5
15
100
AcDbSymbolTableRecord
100
AcDbLinetypeTableRecord
2
BYLAYER
70
0
0
LTYPE
5
16
100
AcDbSymbolTableRecord
100
AcDbLinetypeTableRecord
2
DASHED
70
0
3
Dashed __ __ __ __ __ __ __ __ __ __ __ __ __ _
72
65
73
2
40
0.75
49
0.5
74
0
49
-0.25
74
0
0
ENDTAB
0
TABLE
2
LAYER
5
2
100
AcDbSymbolTable
70
3
0
LAYER
5
50
100
AcDbSymbolTableRecord
100
AcDbLayerTableRecord
2
1
70
0
62
7
6
DASHED
0
LAYER
5
51
100
AcDbSymbolTableRecord
100
AcDbLayerTableRecord
2
0
70
0
62
7
6
CONTINUOUS
0
ENDTAB
0
TABLE
2
STYLE
5
3
100
AcDbSymbolTable
70
1
0
STYLE
5
11
100
AcDbSymbolTableRecord
100
AcDbTextStyleTableRecord
2
STANDARD
70
0
0
ENDTAB
0
TABLE
2
VIEW
5
6
100
AcDbSymbolTable
70
0
0
ENDTAB
0
TABLE
2
UCS
5
7
100
AcDbSymbolTable
70
0
0
ENDTAB
0
TABLE
2
APPID
5
9
100
AcDbSymbolTable
70
2
0
APPID
5
12
100
AcDbSymbolTableRecord
100
AcDbRegAppTableRecord
2
ACAD
70
0
0
ENDTAB
0
TABLE
2
DIMSTYLE
5
A
100
AcDbSymbolTable
70
1
0
ENDTAB
0
TABLE
2
BLOCK_RECORD
5
1
100
AcDbSymbolTable
70
1
0
BLOCK_RECORD
5
1F
100
AcDbSymbolTableRecord
100
AcDbBlockTableRecord
2
*MODEL_SPACE
0
BLOCK_RECORD
5
1B
100
AcDbSymbolTableRecord
100
AcDbBlockTableRecord
2
*PAPER_SPACE
0
ENDTAB
0
ENDSEC
0
SECTION
2
BLOCKS
0
BLOCK
5
20
100
AcDbEntity
100
AcDbBlockBegin
2
*MODEL_SPACE
0
ENDBLK
5
21
100
AcDbEntity
100
AcDbBlockEnd
0
BLOCK
5
1C
100
AcDbEntity
100
AcDbBlockBegin
2
*PAPER_SPACE
0
ENDBLK
5
1D
100
AcDbEntity
100
AcDbBlockEnd
0
ENDSEC
0
SECTION
2
ENTITIES
0
LINE
5
100
100
AcDbEntity
8
0
100
AcDbLine
10
0.1174515159505256
20
0.12487342786145275
30
0
11
0.10000000000000003
21
0.15079652742590585
31
0
0
SPLINE
5
101
100
AcDbEntity
8
0
100
AcDbSpline
70
4
71
5
72
68
73
62
74
0
42
0.000000001
43
0.0000000001
44
0.0000000001
40
0.47119616522342539
40
0.47119616522342539
40
0.47119616522342539
40
0.47119616522342539
40
0.47119616522342539
40
0.47119616522342539
40
0.47200000000000036
40
0.47300000000000036
40
0.47400000000000037
40
0.47500000000000037
40
0.47600000000000037
40
0.47700000000000037
40
0.47800000000000037
40
0.47900000000000037
40
0.48000000000000037
40
0.48100000000000037
40
0.48200000000000037
40
0.48300000000000037
40
0.48400000000000037
40
0.48500000000000038
40
0.48600000000000038
40
0.48700000000000038
40
0.48800000000000038
40
0.48900000000000038
40
0.49000000000000038
40
0.49100000000000038
40
0.49200000000000038
40
0.49300000000000038
40
0.49400000000000038
40
0.49500000000000038
40
0.49600000000000039
40
0.49700000000000039
40
0.49800000000000039
40
0.49900000000000039
40
0.50000000000000033
40
0.50100000000000033
40
0.50200000000000033
40
0.50300000000000034
40
0.50400000000000034
40
0.50500000000000034
40
0.50600000000000034
40
0.50700000000000034
40
0.50800000000000034
40
0.50900000000000034
40
0.51000000000000034
40
0.51100000000000034
40
0.51200000000000034
40
0.51300000000000034
40
0.51400000000000035
40
0.51500000000000035
40
0.51600000000000035
40
0.51700000000000035
40
0.51800000000000035
40
0.51900000000000035
40
0.52000000000000035
40
0.52100000000000035
40
0.52200000000000035
40
0.52300000000000035
40
0.52400000000000035
40
0.52500000000000036
40
0.52600000000000036
40
0.52700000000000036
40
0.52792918401498423
40
0.52792918401498423
40
0.52792918401498423
40
0.52792918401498423
40
0.52792918401498423
40
0.52792918401498423
41
1
41
1
41
1
41
1
41
1
41
1
41
1
41
1
41
1
41
1
41
1
41
1
41
1
41
1
41
1
41
1
41
1
41
1
41
1
41
1
41
1
41
1
41
1
41
1
41
1
41
1
41
1
41
1
41
1
41
1
41
1
41
1
41
1
41
1
41
1
41
1
41
1
41
1
41
1
41
1
41
1
41
1
41
1
41
1
41
1
41
1
41
1
41
1
41
1
41
1
41
1
41
1
41
1
41
1
41
1
41
1
41
1
41
1
41
1
41
1
41
1
41
1
10
0.10000000000000976
20
0.15079652742591276
30
0
10
0.099061741958772459
20
0.15012961413410797
30
0
10
0.096964244664837967
20
0.14863070625067665
30
0
10
0.093732022059758086
20
0.14629267529812803
30
0
10
0.08940720805364552
20
0.14310335931099791
30
0
10
0.084051204150988879
20
0.13904520188524117
30
0
10
0.078595525286217216
20
0.13478740405312525
30
0
10
0.073262468480415038
20
0.13049504012041682
30
0
10
0.068056132552484341
20
0.1261675323816549
30
0
10
0.062981126986887709
20
0.12180434515567957
30
0
10
0.058042386994331958
20
0.11740490066007506
30
0
10
0.0532450478705771
20
0.11296851883534145
30
0
10
0.048594272424142368
20
0.10849433160655642
30
0
10
0.044095460263042757
20
0.10398144000761228
30
0
10
0.03975445209186533
20
0.099429059774060261
30
0
10
0.035577793036728068
20
0.094836726737788271
30
0
10
0.031572762585233359
20
0.09020427521490787
30
0
10
0.027747152376594249
20
0.085531582459207098
30
0
10
0.024109087067635083
20
0.080818337890250558
30
0
10
0.020666891854968457
20
0.076063903755501469
30
0
10
0.017429393334006612
20
0.07126785546010625
30
0
10
0.014406163170262278
20
0.066430433136963674
30
0
10
0.011607787307356059
20
0.061553035635160486
30
0
10
0.0090456303054596288
20
0.05663782420760629
30
0
10
0.0067315989983800749
20
0.051687339138391387
30
0
10
0.0046779085964715039
20
0.046704078503595967
30
0
10
0.0028966661005069149
20
0.041691230730865433
30
0
10
0.0013994186380472014
20
0.036653502428901828
30
0
10
0.00019677014220360493
20
0.031597816052030457
30
0
10
-0.00070138245273548567
20
0.02653228036723038
30
0
10
-0.001285408186595408
20
0.021464943534712375
30
0
10
-0.0015461262964630712
20
0.016403298765570853
30
0
10
-0.0014766837411070461
20
0.011356204337350991
30
0
10
-0.0010748427372348041
20
0.0063359584394759114
30
0
10
-0.00034293948199775253
20
0.0013585732860015669
30
0
10
0.00071477465816954669
20
-0.0035583725421416178
30
0
10
0.002094692001907812
20
-0.0083972637916424724
30
0
10
0.0037932166837147344
20
-0.013142149340545825
30
0
10
0.005804715900217903
20
-0.017780303026735847
30
0
10
0.008119942147681131
20
-0.022303841200746282
30
0
10
0.010727289194157103
20
-0.026708150678748127
30
0
10
0.013614307085350887
20
-0.030990102469655618
30
0
10
0.016768753652688158
20
-0.03514683519349418
30
0
10
0.020178288842115543
20
-0.039176395791299626
30
0
10
0.023830303952500392
20
-0.04307819381109592
30
0
10
0.027711941288899877
20
-0.046853177069024261
30
0
10
0.031810528910192058
20
-0.050503380259673401
30
0
10
0.036113943681100664
20
-0.05403162192641929
30
0
10
0.040610871096372105
20
-0.057441189479154088
30
0
10
0.045290858226320764
20
-0.060735637764392086
30
0
10
0.050144479975648949
20
-0.063918506899762098
30
0
10
0.055163270136023491
20
-0.066993233202385788
30
0
10
0.060339440588671481
20
-0.069963254172718051
30
0
10
0.065665616547576841
20
-0.072832077884422169
30
0
10
0.0711346790993473
20
-0.075603324534880348
30
0
10
0.076739923968062521
20
-0.078280645955697073
30
0
10
0.082475155418746254
20
-0.080867670620065044
30
0
10
0.088251813909445476
20
-0.083332528200698822
30
0
10
0.092948680786918647
20
-0.085232973011244426
30
0
10
0.096499429630178282
20
-0.086615297231023583
30
0
10
0.098858826588190549
20
-0.087511106434335337
30
0
10
0.10000000000029351
20
-0.087939218654762979
30
0
0
LINE
5
102
100
AcDbEntity
8
0
100
AcDbLine
10
0.10000000000029351
20
-0.087939218654762979
30
0
11
0.10990083406199211
21
-0.058299110947748443
31
0
0
LINE
5
103
100
AcDbEntity
8
0
100
AcDbLine
10
0.10990083406199211
20
-0.058299110947748443
30
0
11
0.13954094176889656
21
-0.068199945009740526
31
0
0
LINE
5
104
100
AcDbEntity
8
0
100
AcDbLine
10
0.13954094176889656
20
-0.068199945009740526
30
0
11
0.12964010770690446
21
-0.097840052716645018
31
0
0
SPLINE
5
105
100
AcDbEntity
8
0
100
AcDbSpline
70
4
71
5
72
41
73
35
74
0
42
0.000000001
43
0.0000000001
44
0.0000000001
40
0.53257229707756448
40
0.53257229707756448
40
0.53257229707756448
40
0.53257229707756448
40
0.53257229707756448
40
0.53257229707756448
40
0.53300000000000036
40
0.53400000000000036
40
0.53500000000000036
40
0.53600000000000037
40
0.53700000000000037
40
0.53800000000000037
40
0.53900000000000037
40
0.54000000000000037
40
0.54100000000000037
40
0.54200000000000037
40
0.54300000000000037
40
0.54400000000000037
40
0.54500000000000037
40
0.54600000000000037
40
0.54700000000000037
40
0.54800000000000038
40
0.54900000000000038
40
0.55000000000000038
40
0.55100000000000038
40
0.55200000000000038
40
0.55300000000000038
40
0.55400000000000038
40
0.55500000000000038
40
0.55600000000000038
40
0.55700000000000038
40
0.55800000000000038
40
0.55900000000000039
40
0.56000000000000039
40
0.56100000000000039
40
0.56129434407826284
40
0.56129434407826284
40
0.56129434407826284
40
0.56129434407826284
40
0.56129434407826284
40
0.56129434407826284
41
1
41
1
41
1
41
1
41
1
41
1
41
1
41
1
41
1
41
1
41
1
41
1
41
1
41
1
41
1
41
1
41
1
41
1
41
1
41
1
41
1
41
1
41
1
41
1
41
1
41
1
41
1
41
1
41
1
41
1
41
1
41
1
41
1
41
1
41
1
10
0.12964010770691459
20
-0.097840052716648057
30
0
10
0.13020585826540887
20
-0.098008513828508809
30
0
10
0.13209724939147194
20
-0.098568811518058755
30
0
10
0.13532966881866135
20
-0.099510045757729801
30
0
10
0.13993200597991401
20
-0.10081179141893011
30
0
10
0.14594545838886988
20
-0.10244508145309374
30
0
10
0.15282362941302313
20
-0.10422819002249209
30
0
10
0.15978653090404463
20
-0.10595228813165401
30
0
10
0.16683153471864465
20
-0.10761953234569795
30
0
10
0.17395618087953285
20
-0.1092318577815527
30
0
10
0.18115828681016516
20
-0.11079082507126679
30
0
10
0.18843595244610345
20
-0.11229763455134709
30
0
10
0.19578743861509559
20
-0.11375335556117375
30
0
10
0.20321108661879142
20
-0.11515908065535395
30
0
10
0.21070519985083691
20
-0.11651615730207059
30
0
10
0.21826802270745954
20
-0.11782620694731748
30
0
10
0.22589782436048489
20
-0.11909090928130449
30
0
10
0.2335929497001098
20
-0.12031186206716972
30
0
10
0.24135189654427652
20
-0.12149037714589631
30
0
10
0.24917333756618945
20
-0.12262741654887653
30
0
10
0.25705605335183934
20
-0.1237237567326626
30
0
10
0.26499888651614756
20
-0.12478009877845934
30
0
10
0.2730006840055425
20
-0.12579720858057053
30
0
10
0.28106025424306635
20
-0.12677602006555791
30
0
10
0.28917639868737183
20
-0.12771755560907969
30
0
10
0.29734793663232573
20
-0.12862286266714479
30
0
10
0.30557373113160741
20
-0.12949294848958856
30
0
10
0.31385271813638127
20
-0.13032870478524849
30
0
10
0.32218390673542224
20
-0.13113091910797881
30
0
10
0.33056637220930229
20
-0.13190030962009891
30
0
10
0.33780910870945313
20
-0.13253350265970965
30
0
10
0.34339218754030482
20
-0.13300216150131869
30
0
10
0.34729342301756233
20
-0.13332040589557764
30
0
10
0.34949836751908631
20
-0.13349737143777418
30
0
10
0.34999999999999343
20
-0.13353748214593567
30
0
0
LINE
5
106
100
AcDbEntity
8
0
100
AcDbLine
10
0.34999999999999343
20
-0.13353748214593567
30
0
11
0.35227157656124347
21
-0.10237015245719949
31
0
0
LINE
5
107
100
AcDbEntity
8
0
100
AcDbLine
10
0.35227157656124347
20
-0.10237015245719949
30
0
11
0.38343890624998017
21
-0.10464172901844285
31
0
0
LINE
5
108
100
AcDbEntity
8
0
100
AcDbLine
10
0.38343890624998017
20
-0.10464172901844285
30
0
11
0.38116732968873696
21
-0.13580905870717963
31
0
0
SPLINE
5
109
100
AcDbEntity
8
0
100
AcDbSpline
70
4
71
5
72
94
73
88
74
0
42
0.000000001
43
0.0000000001
44
0.0000000001
40
0.56491524197290544
40
0.56491524197290544
40
0.56491524197290544
40
0.56491524197290544
40
0.56491524197290544
40
0.56491524197290544
40
0.56500000000000039
40
0.56600000000000039
40
0.56700000000000039
40
0.56800000000000039
40
0.56900000000000039
40
0.5700000000000004
40
0.5710000000000004
40
0.5720000000000004
40
0.5730000000000004
40
0.5740000000000004
40
0.5750000000000004
40
0.5760000000000004
40
0.5770000000000004
40
0.5780000000000004
40
0.5790000000000004
40
0.5800000000000004
40
0.58100000000000041
40
0.58200000000000041
40
0.58300000000000041
40
0.58400000000000041
40
0.58500000000000041
40
0.58600000000000041
40
0.58700000000000041
40
0.58800000000000041
40
0.58900000000000041
40
0.59000000000000041
40
0.59100000000000041
40
0.59200000000000041
40
0.59300000000000042
40
0.59400000000000042
40
0.59500000000000042
40
0.59600000000000042
40
0.59700000000000042
40
0.59800000000000042
40
0.59900000000000042
40
0.60000000000000042
40
0.60100000000000042
40
0.60200000000000042
40
0.60300000000000042
40
0.60400000000000043
40
0.60500000000000043
40
0.60600000000000043
40
0.60700000000000043
40
0.60800000000000043
40
0.60900000000000043
40
0.61000000000000043
40
0.61100000000000043
40
0.61200000000000043
40
0.61300000000000043
40
0.61400000000000043
40
0.61500000000000044
40
0.61600000000000044
40
0.61700000000000044
40
0.61800000000000044
40
0.61900000000000044
40
0.62000000000000044
40
0.62100000000000044
40
0.62200000000000044
40
0.62300000000000044
40
0.62400000000000044
40
0.62500000000000044
40
0.62600000000000044
40
0.62700000000000045
40
0.62800000000000045
40
0.62900000000000045
40
0.63000000000000045
40
0.63100000000000045
40
0.63200000000000045
40
0.63300000000000045
40
0.63400000000000045
40
0.63500000000000045
40
0.63600000000000045
40
0.63700000000000045
40
0.63800000000000046
40
0.63900000000000046
40
0.64000000000000046
40
0.64100000000000046
40
0.64200000000000046
40
0.64300000000000046
40
0.64400000000000046
40
0.64500000000000046
40
0.64600000000000046
40
0.64651266586867606
40
0.64651266586867606
40
0.64651266586867606
40
0.64651266586867606
40
0.64651266586867606
40
0.64651266586867606
41
1
41
1
41
1
41
1
41
1
41
1
41
1
41
1
41
1
41
1
41
1
41
1
41
1
41
1
41
1
41
1
41
1
41
1
41
1
41
1
41
1
41
1
41
1
41
1
41
1
41
1
41
1
41
1
41
1
41
1
41
1
41
1
41
1
41
1
41
1
41
1
41
1
41
1
41
1
41
1
41
1
41
1
41
1
41
1
41
1
41
1
41
1
41
1
41
1
41
1
41
1
41
1
41
1
41
1
41
1
41
1
41
1
41
1
41
1
41
1
41
1
41
1
41
1
41
1
41
1
41
1
41
1
41
1
41
1
41
1
41
1
41
1
41
1
41
1
41
1
41
1
41
1
41
1
41
1
41
1
41
1
41
1
41
1
41
1
41
1
41
1
41
1
41
1
10
0.38116732969000278
20
-0.13580905870726334
30
0
10
0.38131468025560733
20
-0.13581880169755664
30
0
10
0.38320072696835084
20
-0.13594336526108361
30
0
10
0.3868306423026735
20
-0.13617956206752971
30
0
10
0.3922163897956597
20
-0.13652003380083971
30
0
10
0.3993764364828809
20
-0.1369534626266575
30
0
10
0.40818502284410141
20
-0.1374569557341116
30
0
10
0.41703708096175901
20
-0.13793398958912476
30
0
10
0.42593190350078419
20
-0.13838516644908752
30
0
10
0.43486886799897395
20
-0.13881110596697399
30
0
10
0.44384740832402997
20
-0.13921241717475685
30
0
10
0.45286698824572019
20
-0.13958967107422104
30
0
10
0.46192707602342681
20
-0.13994337589251737
30
0
10
0.47102711430317218
20
-0.14027394439481555
30
0
10
0.48016650568090358
20
-0.14058168639094393
30
0
10
0.48934463813750856
20
-0.14086686405685375
30
0
10
0.4985609037838758
20
-0.14112973750830435
30
0
10
0.5078147183428291
20
-0.14137060959090111
30
0
10
0.51710554492629746
20
-0.14158988218486915
30
0
10
0.52643289962756756
20
-0.1417880678977417
30
0
10
0.5357963297364966
20
-0.1419657351962377
30
0
10
0.54519539772908021
20
-0.14212346794176431
30
0
10
0.5546296647021457
20
-0.14226182256361558
30
0
10
0.56409866974092737
20
-0.14238127787276186
30
0
10
0.57360192666570231
20
-0.14248221852403684
30
0
10
0.5831389444058569
20
-0.14256496537242422
30
0
10
0.59270924219964871
20
-0.14262979455582683
30
0
10
0.60231236533299037
20
-0.14267696018282164
30
0
10
0.61194790439456459
20
-0.14270671780390148
30
0
10
0.62161550023640333
20
-0.14271933958119801
30
0
10
0.63131482248974324
20
-0.14271511242571908
30
0
10
0.64104555362933635
20
-0.14269434012838619
30
0
10
0.65080737160021462
20
-0.14265734361088339
30
0
10
0.66059993118648674
20
-0.14260446262554155
30
0
10
0.67042285164422988
20
-0.14253605485974341
30
0
10
0.68027573151983756
20
-0.14245248584326489
30
0
10
0.69015815934969793
20
-0.14235412021044597
30
0
10
0.70006972601987694
20
-0.142241312389769
30
0
10
0.71001003630744008
20
-0.14211439764267603
30
0
10
0.71997872107818706
20
-0.14197368266337312
30
0
10
0.72997543492621852
20
-0.14181944969618354
30
0
10
0.73999985343199892
20
-0.14165196101025734
30
0
10
0.75005167063335354
20
-0.14147146323519821
30
0
10
0.76013059623321255
20
-0.14127819177549633
30
0
10
0.77023635335697971
20
-0.14107237514174428
30
0
10
0.78036867390174258
20
-0.14085423952059409
30
0
10
0.79052729277724898
20
-0.14062401332026911
30
0
10
0.80071194228397824
20
-0.14038193195168253
30
0
10
0.81092234689499565
20
-0.14012824200871907
30
0
10
0.82115821676325185
20
-0.13986320690922488
30
0
10
0.83141924526141342
20
-0.13958710809905045
30
0
10
0.84170511898221445
20
-0.13930023259968025
30
0
10
0.85201552539284675
20
-0.13900286317009081
30
0
10
0.86235016175960322
20
-0.13869526696288564
30
0
10
0.87270874273364829
20
-0.13837768591988428
30
0
10
0.88309101058359341
20
-0.13805032356812799
30
0
10
0.89349672880562903
20
-0.13771335470209656
30
0
10
0.90392567178979988
20
-0.13736694053478687
30
0
10
0.91437761552095331
20
-0.13701124236423465
30
0
10
0.92485232852699018
20
-0.13664643502775772
30
0
10
0.93534956109030332
20
-0.13627272244527444
30
0
10
0.9458690403523673
20
-0.13589034597044164
30
0
10
0.956410484484016
20
-0.13549956962772691
30
0
10
0.96697361324059872
20
-0.13510066953856009
30
0
10
0.97755816061485634
20
-0.13469392128866137
30
0
10
0.9881638850454223
20
-0.13427958911214102
30
0
10
0.99879058459214576
20
-0.13385791192306842
30
0
10
1.0094380902583415
20
-0.1334291026389422
30
0
10
1.0201062478916267
20
-0.13299335437908769
30
0
10
1.0307949036674184
20
-0.13255084453024318
30
0
10
1.0415038880103948
20
-0.13210173969693642
30
0
10
1.0522330003648976
20
-0.131646200270747
30
0
10
1.0629819931131799
20
-0.13118438517012576
30
0
10
1.0737505880202292
20
-0.13071645517125646
30
0
10
1.0845384929762749
20
-0.13024257616084853
30
0
10
1.0953454190587815
20
-0.12976292258053773
30
0
10
1.106171096493612
20
-0.12927768041718829
30
0
10
1.1170152934054101
20
-0.12878705128389847
30
0
10
1.127877826069781
20
-0.12829125320230844
30
0
10
1.138758542497353
20
-0.12779051090925686
30
0
10
1.1496573108286594
20
-0.12728504818300865
30
0
10
1.1605740053843676
20
-0.1267750789254882
30
0
10
1.171508494747193
20
-0.12626079980469845
30
0
10
1.181393156918491
20
-0.12579290845753865
30
0
10
1.1890981673640193
20
-0.12542623371914371
30
0
10
1.1946151457606957
20
-0.1251627166152729
30
0
10
1.1979384244930555
20
-0.12500363682033408
30
0
10
1.1990649606299344
20
-0.12494967216291514
30
0
0
LINE
5
110
100
AcDbEntity
8
0
100
AcDbLine
10
1.1990649606299342
20
-0.12494967216291514
30
0
11
1.1990649606299206
21
0.39688136798932333
31
0
0
LINE
5
111
100
AcDbEntity
8
0
100
AcDbLine
10
1.1990649606299206
20
0.39688136798932333
30
0
11
1.2615649606299209
21
0.39688136798929757
31
0
0
LINE
5
112
100
AcDbEntity
8
0
100
AcDbLine
10
1.2615649606299209
20
0.39688136798929757
30
0
11
1.2615649606299211
21
-0.12191183647256251
31
0
0
SPLINE
5
113
100
AcDbEntity
8
0
100
AcDbSpline
70
4
71
5
72
359
73
353
74
0
42
0.000000001
43
0.0000000001
44
0.0000000001
40
0.65217670271097949
40
0.65217670271097949
40
0.65217670271097949
40
0.65217670271097949
40
0.65217670271097949
40
0.65217670271097949
40
0.65300000000000047
40
0.65400000000000047
40
0.65500000000000047
40
0.65600000000000047
40
0.65700000000000047
40
0.65800000000000047
40
0.65900000000000047
40
0.66000000000000048
40
0.66100000000000048
40
0.66200000000000048
40
0.66300000000000048
40
0.66400000000000048
40
0.66500000000000048
40
0.66600000000000048
40
0.66700000000000048
40
0.66800000000000048
40
0.66900000000000048
40
0.67000000000000048
40
0.67100000000000048
40
0.67200000000000049
40
0.67300000000000049
40
0.67400000000000049
40
0.67500000000000049
40
0.67600000000000049
40
0.67700000000000049
40
0.67800000000000049
40
0.67900000000000049
40
0.68000000000000049
40
0.68100000000000049
40
0.68200000000000049
40
0.6830000000000005
40
0.6840000000000005
40
0.6850000000000005
40
0.6860000000000005
40
0.6870000000000005
40
0.6880000000000005
40
0.6890000000000005
40
0.6900000000000005
40
0.6910000000000005
40
0.6920000000000005
40
0.6930000000000005
40
0.69400000000000051
40
0.69500000000000051
40
0.69600000000000051
40
0.69700000000000051
40
0.69800000000000051
40
0.69900000000000051
40
0.70000000000000051
40
0.70100000000000051
40
0.70200000000000051
40
0.70300000000000051
40
0.70400000000000051
40
0.70500000000000052
40
0.70600000000000052
40
0.70700000000000052
40
0.70800000000000052
40
0.70900000000000052
40
0.71000000000000052
40
0.71100000000000052
40
0.71200000000000052
40
0.71300000000000052
40
0.71400000000000052
40
0.71500000000000052
40
0.71600000000000052
40
0.71700000000000053
40
0.71800000000000053
40
0.71900000000000053
40
0.72000000000000053
40
0.72100000000000053
40
0.72200000000000053
40
0.72300000000000053
40
0.72400000000000053
40
0.72500000000000053
40
0.72600000000000053
40
0.72700000000000053
40
0.72800000000000054
40
0.72900000000000054
40
0.73000000000000054
40
0.73100000000000054
40
0.73200000000000054
40
0.73300000000000054
40
0.73400000000000054
40
0.73500000000000054
40
0.73600000000000054
40
0.73700000000000054
40
0.73800000000000054
40
0.73900000000000055
40
0.74000000000000055
40
0.74100000000000055
40
0.74200000000000055
40
0.74300000000000055
40
0.74400000000000055
40
0.74500000000000055
40
0.74600000000000055
40
0.74700000000000055
40
0.74800000000000055
40
0.74900000000000055
40
0.75000000000000056
40
0.75100000000000056
40
0.75200000000000056
40
0.75300000000000056
40
0.75400000000000056
40
0.75500000000000056
40
0.75600000000000056
40
0.75700000000000056
40
0.75800000000000056
40
0.75900000000000056
40
0.76000000000000056
40
0.76100000000000056
40
0.76200000000000057
40
0.76300000000000057
40
0.76400000000000057
40
0.76500000000000057
40
0.76600000000000057
40
0.76700000000000057
40
0.76800000000000057
40
0.76900000000000057
40
0.77000000000000057
40
0.77100000000000057
40
0.77200000000000057
40
0.77300000000000058
40
0.77400000000000058
40
0.77500000000000058
40
0.77600000000000058
40
0.77700000000000058
40
0.77800000000000058
40
0.77900000000000058
40
0.78000000000000058
40
0.78100000000000058
40
0.78200000000000058
40
0.78300000000000058
40
0.78400000000000059
40
0.78500000000000059
40
0.78600000000000059
40
0.78700000000000059
40
0.78800000000000059
40
0.78900000000000059
40
0.79000000000000059
40
0.79100000000000059
40
0.79200000000000059
40
0.79300000000000059
40
0.79400000000000059
40
0.7950000000000006
40
0.7960000000000006
40
0.7970000000000006
40
0.7980000000000006
40
0.7990000000000006
40
0.8000000000000006
40
0.8010000000000006
40
0.8020000000000006
40
0.8030000000000006
40
0.8040000000000006
40
0.8050000000000006
40
0.8060000000000006
40
0.80700000000000061
40
0.80800000000000061
40
0.80900000000000061
40
0.81000000000000061
40
0.81100000000000061
40
0.81200000000000061
40
0.81300000000000061
40
0.81400000000000061
40
0.81500000000000061
40
0.81600000000000061
40
0.81700000000000061
40
0.81800000000000062
40
0.81900000000000062
40
0.82000000000000062
40
0.82100000000000062
40
0.82200000000000062
40
0.82300000000000062
40
0.82400000000000062
40
0.82500000000000062
40
0.82600000000000062
40
0.82700000000000062
40
0.82800000000000062
40
0.82900000000000063
40
0.83000000000000063
40
0.83100000000000063
40
0.83200000000000063
40
0.83300000000000063
40
0.83400000000000063
40
0.83500000000000063
40
0.83600000000000063
40
0.83700000000000063
40
0.83800000000000063
40
0.83900000000000063
40
0.84000000000000064
40
0.84100000000000064
40
0.84200000000000064
40
0.84300000000000064
40
0.84400000000000064
40
0.84500000000000064
40
0.84600000000000064
40
0.84700000000000064
40
0.84800000000000064
40
0.84900000000000064
40
0.85000000000000064
40
0.85100000000000064
40
0.85200000000000065
40
0.85300000000000065
40
0.85400000000000065
40
0.85500000000000065
40
0.85600000000000065
40
0.85700000000000065
40
0.85800000000000065
40
0.85900000000000065
40
0.86000000000000065
40
0.86100000000000065
40
0.86200000000000065
40
0.86300000000000066
40
0.86400000000000066
40
0.86500000000000066
40
0.86600000000000066
40
0.86700000000000066
40
0.86800000000000066
40
0.86900000000000066
40
0.87000000000000066
40
0.87100000000000066
40
0.87200000000000066
40
0.87300000000000066
40
0.87400000000000067
40
0.87500000000000067
40
0.87600000000000067
40
0.87700000000000067
40
0.87800000000000067
40
0.87900000000000067
40
0.88000000000000067
40
0.88100000000000067
40
0.88200000000000067
40
0.88300000000000067
40
0.88400000000000067
40
0.88500000000000068
40
0.88600000000000068
40
0.88700000000000068
40
0.88800000000000068
40
0.88900000000000068
40
0.89000000000000068
40
0.89100000000000068
40
0.89200000000000068
40
0.89300000000000068
40
0.89400000000000068
40
0.89500000000000068
40
0.89600000000000068
40
0.89700000000000069
40
0.89800000000000069
40
0.89900000000000069
40
0.90000000000000069
40
0.90100000000000069
40
0.90200000000000069
40
0.90300000000000069
40
0.90400000000000069
40
0.90500000000000069
40
0.90600000000000069
40
0.90700000000000069
40
0.9080000000000007
40
0.9090000000000007
40
0.9100000000000007
40
0.9110000000000007
40
0.9120000000000007
40
0.9130000000000007
40
0.9140000000000007
40
0.9150000000000007
40
0.9160000000000007
40
0.9170000000000007
40
0.9180000000000007
40
0.91900000000000071
40
0.92000000000000071
40
0.92100000000000071
40
0.92200000000000071
40
0.92300000000000071
40
0.92400000000000071
40
0.92500000000000071
40
0.92600000000000071
40
0.92700000000000071
40
0.92800000000000071
40
0.92900000000000071
40
0.93000000000000071
40
0.93100000000000072
40
0.93200000000000072
40
0.93300000000000072
40
0.93400000000000072
40
0.93500000000000072
40
0.93600000000000072
40
0.93700000000000072
40
0.93800000000000072
40
0.93900000000000072
40
0.94000000000000072
40
0.94100000000000072
40
0.94200000000000073
40
0.94300000000000073
40
0.94400000000000073
40
0.94500000000000073
40
0.94600000000000073
40
0.94700000000000073
40
0.94800000000000073
40
0.94900000000000073
40
0.95000000000000073
40
0.95100000000000073
40
0.95200000000000073
40
0.95300000000000074
40
0.95400000000000074
40
0.95500000000000074
40
0.95600000000000074
40
0.95700000000000074
40
0.95800000000000074
40
0.95900000000000074
40
0.96000000000000074
40
0.96100000000000074
40
0.96200000000000074
40
0.96300000000000074
40
0.96400000000000075
40
0.96500000000000075
40
0.96600000000000075
40
0.96700000000000075
40
0.96800000000000075
40
0.96900000000000075
40
0.97000000000000075
40
0.97100000000000075
40
0.97200000000000075
40
0.97300000000000075
40
0.97400000000000075
40
0.97500000000000075
40
0.97600000000000076
40
0.97700000000000076
40
0.97800000000000076
40
0.97900000000000076
40
0.98000000000000076
40
0.98100000000000076
40
0.98200000000000076
40
0.98300000000000076
40
0.98400000000000076
40
0.98500000000000076
40
0.98600000000000076
40
0.98700000000000077
40
0.98800000000000077
40
0.98900000000000077
40
0.99000000000000077
40
0.99100000000000077
40
0.99200000000000077
40
0.99300000000000077
40
0.99400000000000077
40
0.99500000000000077
40
0.99600000000000077
40
0.99700000000000077
40
0.99800000000000078
40
0.99900000000000078
40
1
40
1
40
1
40
1
40
1
40
1
41
1
41
1
41
1
41
1
41
1
41
1
41
1
41
1
41
1
41
1
41
1
41
1
41
1
41
1
41
1
41
1
41
1
41
1
41
1
41
1
41
1
41
1
41
1
41
1
41
1
41
1
41
1
41
1
41
1
41
1
41
1
41
1
41
1
41
1
41
1
41
1
41
1
41
1
41
1
41
1
41
1
41
1
41
1
41
1
41
1
41
1
41
1
41
1
41
1
41
1
41
1
41
1
41
1
41
1
41
1
41
1
41
1
41
1
41
1
41
1
41
1
41
1
41
1
41
1
41
1
41
1
41
1
41
1
41
1
41
1
41
1
41
1
41
1
41
1
41
1
41
1
41
1
41
1
41
1
41
1
41
1
41
1
41
1
41
1
41
1
41
1
41
1
41
1
41
1
41
1
41
1
41
1
41
1
41
1
41
1
41
1
41
1
41
1
41
1
41
1
41
1
41
1
41
1
41
1
41
1
41
1
41
1
41
1
41
1
41
1
41
1
41
1
41
1
41
1
41
1
41
1
41
1
41
1
41
1
41
1
41
1
41
1
41
1
41
1
41
1
41
1
41
1
41
1
41
1
41
1
41
1
41
1
41
1
41
1
41
1
41
1
41
1
41
1
41
1
41
1
41
1
41
1
41
1
41
1
41
1
41
1
41
1
41
1
41
1
41
1
41
1
41
1
41
1
41
1
41
1
41
1
41
1
41
1
41
1
41
1
41
1
41
1
41
1
41
1
41
1
41
1
41
1
41
1
41
1
41
1
41
1
41
1
41
1
41
1
41
1
41
1
41
1
41
1
41
1
41
1
41
1
41
1
41
1
41
1
41
1
41
1
41
1
41
1
41
1
41
1
41
1
41
1
41
1
41
1
41
1
41
1
41
1
41
1
41
1
41
1
41
1
41
1
41
1
41
1
41
1
41
1
41
1
41
1
41
1
41
1
41
1
41
1
41
1
41
1
41
1
41
1
41
1
41
1
41
1
41
1
41
1
41
1
41
1
41
1
41
1
41
1
41
1
41
1
41
1
41
1
41
1
41
1
41
1
41
1
41
1
41
1
41
1
41
1
41
1
41
1
41
1
41
1
41
1
41
1
41
1
41
1
41
1
41
1
41
1
41
1
41
1
41
1
41
1
41
1
41
1
41
1
41
1
41
1
41
1
41
1
41
1
41
1
41
1
41
1
41
1
41
1
41
1
41
1
41
1
41
1
41
1
41
1
41
1
41
1
41
1
41
1
41
1
41
1
41
1
41
1
41
1
41
1
41
1
41
1
41
1
41
1
41
1
41
1
41
1
41
1
41
1
41
1
41
1
41
1
41
1
41
1
41
1
41
1
41
1
41
1
41
1
41
1
41
1
41
1
41
1
41
1
41
1
41
1
41
1
41
1
41
1
41
1
41
1
41
1
41
1
41
1
41
1
41
1
41
1
41
1
41
1
41
1
41
1
41
1
41
1
41
1
41
1
41
1
41
1
41
1
41
1
41
1
41
1
41
1
41
1
41
1
41
1
41
1
41
1
41
1
41
1
41
1
41
1
41
1
41
1
41
1
41
1
41
1
41
1
41
1
41
1
41
1
41
1
10
1.2615649606299211
20
-0.12191183647256247
30
0
10
1.2633895413329317
20
-0.12182202389425292
30
0
10
1.2674315110867946
20
-0.12162290925960952
30
0
10
1.2736944362648994
20
-0.12131387284588512
30
0
10
1.2821842193561928
20
-0.12089394518446435
30
0
10
1.2929090030236894
20
-0.1203619098881646
30
0
10
1.3040421982987236
20
-0.11980809035392848
30
0
10
1.3151907246026349
20
-0.11925210897382221
30
0
10
1.3263544084229906
20
-0.11869406487712679
30
0
10
1.3375330789381308
20
-0.11813404384667379
30
0
10
1.3487265685882459
20
-0.1175721337588297
30
0
10
1.3599347137851665
20
-0.1170084420582239
30
0
10
1.3711573554376395
20
-0.1164431107553555
30
0
10
1.3823943398827983
20
-0.11587633668109454
30
0
10
1.3936455170698105
20
-0.11530835656853186
30
0
10
1.4049107380739412
20
-0.11473942369571613
30
0
10
1.4161898528830754
20
-0.11416978775612029
30
0
10
1.4274827079718633
20
-0.11359967259962254
30
0
10
1.4387891441966574
20
-0.11302925670383453
30
0
10
1.4501089939500043
20
-0.112458647706056
30
0
10
1.4614420837037863
20
-0.11188789957271175
30
0
10
1.4727882377251069
20
-0.11131703900480557
30
0
10
1.484147281332846
20
-0.11074608826175816
30
0
10
1.4955190444714979
20
-0.11017509039130952
30
0
10
1.5069033648576691
20
-0.10960413131467976
30
0
10
1.5183000920688223
20
-0.10903336876836278
30
0
10
1.5297090855461326
20
-0.10846301697956622
30
0
10
1.5411302110474048
20
-0.10789331994198167
30
0
10
1.5525633376554087
20
-0.1073245290093497
30
0
10
1.5640083344881457
20
-0.10675687767892592
30
0
10
1.5754650676895654
20
-0.10619055991763099
30
0
10
1.5869333969092794
20
-0.10562570096547261
30
0
10
1.5984131743114367
20
-0.10506236749219577
30
0
10
1.609904244432744
20
-0.10450059240400963
30
0
10
1.6214064438838416
20
-0.10394039446076384
30
0
10
1.6329196008488656
20
-0.10338180095310821
30
0
10
1.6444435352933049
20
-0.10282486698278628
30
0
10
1.6559780572995035
20
-0.10226970144866884
30
0
10
1.6675229737311477
20
-0.10171646524773091
30
0
10
1.6790781002423358
20
-0.1011653527629016
30
0
10
1.6906432711699371
20
-0.10061657858859248
30
0
10
1.7022183513843046
20
-0.10007036171874166
30
0
10
1.7138032447903284
20
-0.099526911684264627
30
0
10
1.7253979104593453
20
-0.098986411730390592
30
0
10
1.7370023514707928
20
-0.098449011433465378
30
0
10
1.7486165735276975
20
-0.097914829155249739
30
0
10
1.7602405525252689
20
-0.097383952125290232
30
0
10
1.7718741964086981
20
-0.096856437010962998
30
0
10
1.783517314230249
20
-0.096332311382509472
30
0
10
1.7951695706170503
20
-0.095811572123895183
30
0
10
1.8068304842461655
20
-0.095294193940048608
30
0
10
1.8184995270472104
20
-0.094780161627525575
30
0
10
1.8301762028555002
20
-0.094269497204275451
30
0
10
1.841860135097287
20
-0.093762289874901497
30
0
10
1.8535511486622815
20
-0.093258722977688113
30
0
10
1.8652493589317014
20
-0.092759106529622812
30
0
10
1.8769552441838953
20
-0.092263894881580905
30
0
10
1.8886695832520497
20
-0.091773581572536261
30
0
10
1.900393405431217
20
-0.091288604634845644
30
0
10
1.9121279352508382
20
-0.090809249048716928
30
0
10
1.9238745404682154
20
-0.090335547799883842
30
0
10
1.9356346762367644
20
-0.08986718967252183
30
0
10
1.9474098375106106
20
-0.089403407694503875
30
0
10
1.959201416141293
20
-0.088943096720572656
30
0
10
1.9710105446707786
20
-0.088484958312314205
30
0
10
1.9828379497374709
20
-0.088027633466965072
30
0
10
1.9946837904635859
20
-0.087569845901264182
30
0
10
2.0065475288651204
20
-0.087110528129050221
30
0
10
2.0184277220287061
20
-0.086648986871588243
30
0
10
2.0303221574382238
20
-0.08618489842320895
30
0
10
2.042228192778508
20
-0.085718203606489116
30
0
10
2.0541430294487113
20
-0.085249034217081396
30
0
10
2.0660640220986011
20
-0.084777624527840933
30
0
10
2.0779889528429463
20
-0.084304233621670985
30
0
10
2.0899163686966711
20
-0.083829052383631544
30
0
10
2.1018457349314787
20
-0.083352151990584294
30
0
10
2.1137771600614448
20
-0.082873527464341845
30
0
10
2.1257112051340532
20
-0.082393122557708656
30
0
10
2.1376486599263447
20
-0.081910861994461334
30
0
10
2.149590332311742
20
-0.081426680715941141
30
0
10
2.1615368342360211
20
-0.080940554068642395
30
0
10
2.1734883628879369
20
-0.080452528542635779
30
0
10
2.1854447875389154
20
-0.079962705774433263
30
0
10
2.1974057457526452
20
-0.079471225055541272
30
0
10
2.2093707346848976
20
-0.078978246666813981
30
0
10
2.2213392077034806
20
-0.078483934253883461
30
0
10
2.2333106611529807
20
-0.077988439037125906
30
0
10
2.2452847444295174
20
-0.077491879648252632
30
0
10
2.2572612685892617
20
-0.076994341036168853
30
0
10
2.2692401551009405
20
-0.076495884634309744
30
0
10
2.2812214031924714
20
-0.075996555015032372
30
0
10
2.2932050487652362
20
-0.075496388168160941
30
0
10
2.3051911286311095
20
-0.07499541868876429
30
0
10
2.3171796383515453
20
-0.074493688383178436
30
0
10
2.3291705058560268
20
-0.073991251256313825
30
0
10
2.3411636089885217
20
-0.073488168356879519
30
0
10
2.3531587853163485
20
-0.072984504397928654
30
0
10
2.3651558449401042
20
-0.072480323717733025
30
0
10
2.3771545821381364
20
-0.071975686429144509
30
0
10
2.3891547872413259
20
-0.071470644706793859
30
0
10
2.401156259134237
20
-0.070965238426195995
30
0
10
2.4131588072590819
20
-0.070459499559733324
30
0
10
2.4251622525102285
20
-0.069953457570030339
30
0
10
2.4371664284508605
20
-0.069447144312579201
30
0
10
2.4491711825684979
20
-0.068940599445366235
30
0
10
2.4611763771068609
20
-0.068433874922103038
30
0
10
2.4731818910902814
20
-0.067927041613341191
30
0
10
2.4851876176886267
20
-0.067420187900270365
30
0
10
2.4971934573689012
20
-0.066913411074496221
30
0
10
2.5091993122701699
20
-0.066406810798235405
30
0
10
2.5212050799757582
20
-0.065900481603793068
30
0
10
2.5332106477772571
20
-0.065394506072780953
30
0
10
2.5452158861694358
20
-0.064888947082848702
30
0
10
2.5572206443283392
20
-0.064383842352728107
30
0
10
2.5692247569938673
20
-0.063879212082101136
30
0
10
2.5812280500721743
20
-0.063375065118317517
30
0
10
2.5932303466520232
20
-0.062871405611876707
30
0
10
2.6052314730272177
20
-0.062368239644929262
30
0
10
2.6172312642888569
20
-0.061865581446723876
30
0
10
2.6292295712153222
20
-0.06136346089168726
30
0
10
2.6412262584606263
20
-0.060861922365690713
30
0
10
2.6532212004253362
20
-0.060361021342065155
30
0
10
2.6652142779460175
20
-0.059860821748183489
30
0
10
2.6772053745684978
20
-0.059361392969658699
30
0
10
2.6891943731699355
20
-0.058862807082551379
30
0
10
2.7011811520150695
20
-0.058365135810595471
30
0
10
2.7131655825493999
20
-0.057868448235654693
30
0
10
2.7251475296286474
20
-0.057372809533210355
30
0
10
2.7371268511659061
20
-0.056878279469837076
30
0
10
2.7491033980012465
20
-0.056384910978957155
30
0
10
2.7610770137055742
20
-0.055892748743981396
30
0
10
2.773047534343005
20
-0.055401827681277188
30
0
10
2.7850147884467922
20
-0.054912171738773698
30
0
10
2.7969786011371109
20
-0.054423798507800644
30
0
10
2.8089387980968232
20
-0.053936723624158293
30
0
10
2.8208952094928956
20
-0.053450965125733128
30
0
10
2.8328476741659494
20
-0.052966548107354176
30
0
10
2.8447960431311357
20
-0.052483508595564297
30
0
10
2.8567401848439196
20
-0.052001899429813772
30
0
10
2.8686799812144161
20
-0.051521785610053189
30
0
10
2.880615319841612
20
-0.051043235319886311
30
0
10
2.892546087617534
20
-0.050566312550127938
30
0
10
2.9044721634382578
20
-0.050091068613102113
30
0
10
2.9163934120452319
20
-0.049617535158322797
30
0
10
2.9283096755629852
20
-0.049145714047666086
30
0
10
2.9402207722922071
20
-0.048675577181187459
30
0
10
2.9521265080803847
20
-0.048207083602091201
30
0
10
2.9640266848339176
20
-0.047740192662798685
30
0
10
2.9759211102372145
20
-0.047274878877438697
30
0
10
2.9878096068209787
20
-0.046811145814481737
30
0
10
2.999692021630278
20
-0.046349040968860201
30
0
10
3.0115682347337764
20
-0.045888668618602475
30
0
10
3.0234381468556708
20
-0.045430165920077037
30
0
10
3.0353016677992484
20
-0.044973680352784151
30
0
10
3.0471587047964448
20
-0.044519347149591805
30
0
10
3.0590091503829582
20
-0.044067265617080319
30
0
10
3.0708528716620367
20
-0.043617478546910268
30
0
10
3.0826896959064576
20
-0.043169943534931095
30
0
10
3.0945194180617852
20
-0.042724552687609024
30
0
10
3.1063418152151776
20
-0.042281167804467362
30
0
10
3.1181566584834868
20
-0.041839649671399748
30
0
10
3.129963726554974
20
-0.041399891439098051
30
0
10
3.1417628171864891
20
-0.040961846478706494
30
0
10
3.1535537628693149
20
-0.040525567902670458
30
0
10
3.1653364320329911
20
-0.040091207273929522
30
0
10
3.1771107143884922
20
-0.039658968396444103
30
0
10
3.1888765105688468
20
-0.039229073403559314
30
0
10
3.2006337197638075
20
-0.038801722845790206
30
0
10
3.2123822288009736
20
-0.038377060628481868
30
0
10
3.2241218991946856
20
-0.037955131390374645
30
0
10
3.2358525594349064
20
-0.037535858080033117
30
0
10
3.2475740154708808
20
-0.037119090229553141
30
0
10
3.2592860583094185
20
-0.036704640991726073
30
0
10
3.2709884727487153
20
-0.036292328617996097
30
0
10
3.2826810456166853
20
-0.035882015959108726
30
0
10
3.2943635742491675
20
-0.035473651014778465
30
0
10
3.3060358747906129
20
-0.035067306489772035
30
0
10
3.3176977786607411
20
-0.034663139511972772
30
0
10
3.3293491290866757
20
-0.034261351567945499
30
0
10
3.3409897776196957
20
-0.03386214894423531
30
0
10
3.3526195806407264
20
-0.033465701636105835
30
0
10
3.3642383959124764
20
-0.033072106007311308
30
0
10
3.3758460790030087
20
-0.032681337707992121
30
0
10
3.3874424806463881
20
-0.032293279090738633
30
0
10
3.3990274442361494
20
-0.031907762300853883
30
0
10
3.4106008033805817
20
-0.031524606152836955
30
0
10
3.4221623791909734
20
-0.031143657403487329
30
0
10
3.433711978246782
20
-0.030764825967836133
30
0
10
3.4452493888398044
20
-0.030388133335964532
30
0
10
3.456774385531205
20
-0.030013699354549155
30
0
10
3.468286737795375
20
-0.029641699313325814
30
0
10
3.4797862171782397
20
-0.029272331126678042
30
0
10
3.4912726055022438
20
-0.028905776724518266
30
0
10
3.5027457016247512
20
-0.028542169636764713
30
0
10
3.5142053313053938
20
-0.028181550668328729
30
0
10
3.5256513450631761
20
-0.027823868351474036
30
0
10
3.5370836065173514
20
-0.027469014570720603
30
0
10
3.5485019836524168
20
-0.027116849570863692
30
0
10
3.559906338469526
20
-0.02676723245368632
30
0
10
3.5712965182820327
20
-0.026420046718414823
30
0
10
3.5826723439536887
20
-0.026075234358389873
30
0
10
3.5940336086176741
20
-0.02573280121968689
30
0
10
3.6053800874073514
20
-0.025392792278516232
30
0
10
3.6167115441221651
20
-0.025055275305976999
30
0
10
3.6280277394265519
20
-0.024720320293265138
30
0
10
3.6393284377383441
20
-0.024387982585013849
30
0
10
3.6506134162890866
20
-0.024058279763084826
30
0
10
3.6618824671552388
20
-0.023731188878853803
30
0
10
3.6731353911826621
20
-0.023406667315347556
30
0
10
3.684371994085907
20
-0.023084667122849612
30
0
10
3.6955920814895431
20
-0.022765152916124121
30
0
10
3.7067954548235935
20
-0.022448116149623217
30
0
10
3.717981905861834
20
-0.022133596125826792
30
0
10
3.7291512157086317
20
-0.021821677865041012
30
0
10
3.7403031583846298
20
-0.021512465621401366
30
0
10
3.7514375031413691
20
-0.021206063426035565
30
0
10
3.7625540173940366
20
-0.020902551618977989
30
0
10
3.7736524691586135
20
-0.020601967748275642
30
0
10
3.7847326302781057
20
-0.020304278979200299
30
0
10
3.7957942768067956
20
-0.020009386937730401
30
0
10
3.8068371872933611
20
-0.01971715705279917
30
0
10
3.8178611416753689
20
-0.019427440396146439
30
0
10
3.8288659199143362
20
-0.019140099486214181
30
0
10
3.83985130076046
20
-0.018855030354117529
30
0
10
3.8508170604145939
20
-0.018572191426660833
30
0
10
3.8617629714947159
20
-0.01829159989725013
30
0
10
3.8726888020974273
20
-0.01801331493859307
30
0
10
3.8835943148519165
20
-0.017737425185094635
30
0
10
3.8944792659276986
20
-0.017464034363426188
30
0
10
3.9053434041775548
20
-0.017193247891448344
30
0
10
3.9161864699142899
20
-0.016925158592636578
30
0
10
3.9270081980051277
20
-0.016659839442660841
30
0
10
3.9378083213908588
20
-0.016397337138468356
30
0
10
3.9485865745372193
20
-0.016137665125316728
30
0
10
3.9593426967258121
20
-0.015880797421271953
30
0
10
3.9700764358640432
20
-0.015626660743582835
30
0
10
3.980787550730867
20
-0.015375131407485828
30
0
10
3.9914758034700877
20
-0.015126061743895799
30
0
10
4.0021409533729413
20
-0.014879302531203032
30
0
10
4.0127827498202251
20
-0.014634728188928558
30
0
10
4.0234009263665147
20
-0.014392257995214184
30
0
10
4.0339951924040998
20
-0.014151885902243021
30
0
10
4.0445652332834676
20
-0.013913680174141362
30
0
10
4.0551107198059846
20
-0.013677749538925667
30
0
10
4.0656313151683241
20
-0.013444218462960912
30
0
10
4.0761266831252074
20
-0.013213198029186782
30
0
10
4.0865964952105713
20
-0.012984760281578233
30
0
10
4.0970404394778726
20
-0.012758906878064677
30
0
10
4.1074582160352966
20
-0.012535587418608916
30
0
10
4.1178495309147145
20
-0.012314723975276548
30
0
10
4.1282140903166935
20
-0.01209623436906203
30
0
10
4.138551595170477
20
-0.011880053881665652
30
0
10
4.1488617344154779
20
-0.011666162694078155
30
0
10
4.1591441826739626
20
-0.011454593882685599
30
0
10
4.1693986069602564
20
-0.011245401537951219
30
0
10
4.1796246713645857
20
-0.011038637758192015
30
0
10
4.189822042761195
20
-0.01083432527495448
30
0
10
4.1999903955815174
20
-0.010632433845835499
30
0
10
4.2101294183075355
20
-0.010432849982159523
30
0
10
4.220238802880556
20
-0.010235412529762317
30
0
10
4.2303182325756863
20
-0.010039954438582913
30
0
10
4.240367369595532
20
-0.0098463449682111587
30
0
10
4.2503858446459724
20
-0.0096545257666303189
30
0
10
4.2603732410641291
20
-0.0094645642370998467
30
0
10
4.2703290997925825
20
-0.0092766404683708708
30
0
10
4.2802529433895531
20
-0.0090909734510277243
30
0
10
4.2901442954229676
20
-0.0089077620174063676
30
0
10
4.3000027003496246
20
-0.0087271242366884477
30
0
10
4.3098277465290051
20
-0.0085490268043383055
30
0
10
4.3196190775213195
20
-0.0083732518185077928
30
0
10
4.329376361309623
20
-0.0081994977434823955
30
0
10
4.3390992662697938
20
-0.0080274589247139282
30
0
10
4.3487874347331008
20
-0.0078569126041440722
30
0
10
4.3584404570048934
20
-0.0076878049048023714
30
0
10
4.3680578467950646
20
-0.007520331141583147
30
0
10
4.3776390672258279
20
-0.0073548227874543608
30
0
10
4.3871835548467386
20
-0.0071916422080993015
30
0
10
4.3966907446915755
20
-0.0070310729557121285
30
0
10
4.4061600942266592
20
-0.0068732154250434494
30
0
10
4.4155911095795197
20
-0.0067178707948278536
30
0
10
4.424983327342618
20
-0.0065646557181840556
30
0
10
4.4343362940447459
20
-0.0064131288804976944
30
0
10
4.4436495462749432
20
-0.0062629148007554329
30
0
10
4.4529225909754349
20
-0.0061138252384271259
30
0
10
4.4621548844543311
20
-0.005965991301025598
30
0
10
4.471345842485146
20
-0.0058197455353417443
30
0
10
4.4804948521781638
20
-0.0056754896158839555
30
0
10
4.4896012830534655
20
-0.0055335689773645868
30
0
10
4.4986644987994122
20
-0.0053941406186950131
30
0
10
4.5076838677736708
20
-0.0052570546736701038
30
0
10
4.5166587523743305
20
-0.00512198208795237
30
0
10
4.5255884987649067
20
-0.0049885359261759889
30
0
10
4.5344724275359667
20
-0.0048563869531981965
30
0
10
4.5433098214620831
20
-0.0047254006958287144
30
0
10
4.5520999223450183
20
-0.0045957052771657299
30
0
10
4.5608419526222903
20
-0.0044675620529675579
30
0
10
4.5695351341823729
20
-0.0043412664198704751
30
0
10
4.5781787048274962
20
-0.0042170475816752833
30
0
10
4.5867719442706738
20
-0.0040949419131006961
30
0
10
4.5953141571092013
20
-0.0039747999785856676
30
0
10
4.6038046264257195
20
-0.0038563857736593752
30
0
10
4.6122425767781898
20
-0.0037394475817085129
30
0
10
4.620627131946077
20
-0.0036238022085115272
30
0
10
4.6289572786532425
20
-0.0035094088972191908
30
0
10
4.6372319178759378
20
-0.0033963260343853178
30
0
10
4.6454499159055027
20
-0.0032846703649846475
30
0
10
4.6536101496909064
20
-0.0031745777671145642
30
0
10
4.6617115688629926
20
-0.0030661573465359661
30
0
10
4.6697531823316991
20
-0.002959476796168958
30
0
10
4.6777339978653245
20
-0.0028545660043457271
30
0
10
4.6856529788731605
20
-0.0027514161625942944
30
0
10
4.6935089874716223
20
-0.0026499782846508683
30
0
10
4.7013007551719443
20
-0.0025501701463519167
30
0
10
4.7090269058924106
20
-0.0024519048449347684
30
0
10
4.7166859684893803
20
-0.0023551135499438173
30
0
10
4.7242763931697933
20
-0.0022597732518659123
30
0
10
4.7317965672168079
20
-0.0021659244557229377
30
0
10
4.73924484113628
20
-0.002073640685426576
30
0
10
4.746619550566348
20
-0.0019830045567478323
30
0
10
4.7539190454970184
20
-0.0018940802120281724
30
0
10
4.7611416993341775
20
-0.001806890344308084
30
0
10
4.7682857902586138
20
-0.0017214070370636218
30
0
10
4.775349409630067
20
-0.0016375447590953253
30
0
10
4.7823303351989246
20
-0.0015551446059664787
30
0
10
4.7892260015884478
20
-0.0014739885787344229
30
0
10
4.7960337379303555
20
-0.001393899543756614
30
0
10
4.8027509062028617
20
-0.0013148094974136547
30
0
10
4.8093751853812705
20
-0.0012368739700740212
30
0
10
4.8159043073235868
20
-0.0011604130660921
30
0
10
4.8223354711229263
20
-0.0010857494218501327
30
0
10
4.8286648326349235
20
-0.0010130728534281318
30
0
10
4.8348870344184336
20
-0.00094230788762379215
30
0
10
4.8409966856382409
20
-0.00087334266585647352
30
0
10
4.8469893334929459
20
-0.0008061672508495963
30
0
10
4.8528634253266851
20
-0.00074118354184043252
30
0
10
4.85861753222306
20
-0.0006787346773022777
30
0
10
4.8642472342423009
20
-0.00061865305610734375
30
0
10
4.869739863519654
20
-0.00055929473147629566
30
0
10
4.8750791728761698
20
-0.00049879404969480523
30
0
10
4.880253986006263
20
-0.00043708500156033826
30
0
10
4.8852706543691626
20
-0.0003789995108977058
30
0
10
4.8901391417004252
20
-0.00033047143955325213
30
0
10
4.8948423469738502
20
-0.00029047711658795612
30
0
10
4.8993140149246663
20
-0.0002450325275295082
30
0
10
4.9034935727467106
20
-0.00018281225018555494
30
0
10
4.9074398723137813
20
-0.00012566687559814802
30
0
10
4.9112552568155365
20
-0.00011085708688814532
30
0
10
4.9147901916887697
20
-0.00011281220235259578
30
0
10
4.9175080827466804
20
-1.3942700141844061e-05
30
0
10
4.9194178961181692
20
2.9758020819687739e-05
30
0
10
4.9209180807203898
20
-4.9216457040366095e-05
30
0
10
4.9212559261352498
20
-3.0844788512898162e-05
30
0
10
4.9212598425196843
20
-1.0927391974657051e-15
30
0
0
SPLINE
5
114
100
AcDbEntity
8
0
100
AcDbSpline
70
4
71
5
72
445
73
439
74
0
42
0.000000001
43
0.0000000001
44
0.0000000001
40
0
40
0
40
0
40
0
40
0
40
0
40
0.001
40
0.002
40
0.0030000000000000001
40
0.0040000000000000001
40
0.0050000000000000001
40
0.0060000000000000001
40
0.0070000000000000001
40
0.0080000000000000002
40
0.0090000000000000011
40
0.010000000000000002
40
0.011000000000000003
40
0.012000000000000004
40
0.013000000000000005
40
0.014000000000000005
40
0.015000000000000006
40
0.016000000000000007
40
0.017000000000000008
40
0.018000000000000009
40
0.01900000000000001
40
0.020000000000000011
40
0.021000000000000012
40
0.022000000000000013
40
0.023000000000000013
40
0.024000000000000014
40
0.025000000000000015
40
0.026000000000000016
40
0.027000000000000017
40
0.028000000000000018
40
0.029000000000000019
40
0.03000000000000002
40
0.031000000000000021
40
0.032000000000000021
40
0.033000000000000022
40
0.034000000000000023
40
0.035000000000000024
40
0.036000000000000025
40
0.037000000000000026
40
0.038000000000000027
40
0.039000000000000028
40
0.040000000000000029
40
0.041000000000000029
40
0.04200000000000003
40
0.043000000000000031
40
0.044000000000000032
40
0.045000000000000033
40
0.046000000000000034
40
0.047000000000000035
40
0.048000000000000036
40
0.049000000000000037
40
0.050000000000000037
40
0.051000000000000038
40
0.052000000000000039
40
0.05300000000000004
40
0.054000000000000041
40
0.055000000000000042
40
0.056000000000000043
40
0.057000000000000044
40
0.058000000000000045
40
0.059000000000000045
40
0.060000000000000046
40
0.061000000000000047
40
0.062000000000000048
40
0.063000000000000042
40
0.064000000000000043
40
0.065000000000000044
40
0.066000000000000045
40
0.067000000000000046
40
0.068000000000000047
40
0.069000000000000047
40
0.070000000000000048
40
0.071000000000000049
40
0.07200000000000005
40
0.073000000000000051
40
0.074000000000000052
40
0.075000000000000053
40
0.076000000000000054
40
0.077000000000000055
40
0.078000000000000055
40
0.079000000000000056
40
0.080000000000000057
40
0.081000000000000058
40
0.082000000000000059
40
0.08300000000000006
40
0.084000000000000061
40
0.085000000000000062
40
0.086000000000000063
40
0.087000000000000063
40
0.088000000000000064
40
0.089000000000000065
40
0.090000000000000066
40
0.091000000000000067
40
0.092000000000000068
40
0.093000000000000069
40
0.09400000000000007
40
0.09500000000000007
40
0.096000000000000071
40
0.097000000000000072
40
0.098000000000000073
40
0.099000000000000074
40
0.10000000000000007
40
0.10100000000000008
40
0.10200000000000008
40
0.10300000000000008
40
0.10400000000000008
40
0.10500000000000008
40
0.10600000000000008
40
0.10700000000000008
40
0.10800000000000008
40
0.10900000000000008
40
0.11000000000000008
40
0.11100000000000008
40
0.11200000000000009
40
0.11300000000000009
40
0.11400000000000009
40
0.11500000000000009
40
0.11600000000000009
40
0.11700000000000009
40
0.11800000000000009
40
0.11900000000000009
40
0.12000000000000009
40
0.12100000000000009
40
0.12200000000000009
40
0.1230000000000001
40
0.1240000000000001
40
0.12500000000000008
40
0.12600000000000008
40
0.12700000000000009
40
0.12800000000000009
40
0.12900000000000009
40
0.13000000000000009
40
0.13100000000000009
40
0.13200000000000009
40
0.13300000000000009
40
0.13400000000000009
40
0.13500000000000009
40
0.13600000000000009
40
0.13700000000000009
40
0.13800000000000009
40
0.1390000000000001
40
0.1400000000000001
40
0.1410000000000001
40
0.1420000000000001
40
0.1430000000000001
40
0.1440000000000001
40
0.1450000000000001
40
0.1460000000000001
40
0.1470000000000001
40
0.1480000000000001
40
0.1490000000000001
40
0.15000000000000011
40
0.15100000000000011
40
0.15200000000000011
40
0.15300000000000011
40
0.15400000000000011
40
0.15500000000000011
40
0.15600000000000011
40
0.15700000000000011
40
0.15800000000000011
40
0.15900000000000011
40
0.16000000000000011
40
0.16100000000000012
40
0.16200000000000012
40
0.16300000000000012
40
0.16400000000000012
40
0.16500000000000012
40
0.16600000000000012
40
0.16700000000000012
40
0.16800000000000012
40
0.16900000000000012
40
0.17000000000000012
40
0.17100000000000012
40
0.17200000000000013
40
0.17300000000000013
40
0.17400000000000013
40
0.17500000000000013
40
0.17600000000000013
40
0.17700000000000013
40
0.17800000000000013
40
0.17900000000000013
40
0.18000000000000013
40
0.18100000000000013
40
0.18200000000000013
40
0.18300000000000013
40
0.18400000000000014
40
0.18500000000000014
40
0.18600000000000014
40
0.18700000000000014
40
0.18800000000000014
40
0.18900000000000014
40
0.19000000000000014
40
0.19100000000000014
40
0.19200000000000014
40
0.19300000000000014
40
0.19400000000000014
40
0.19500000000000015
40
0.19600000000000015
40
0.19700000000000015
40
0.19800000000000015
40
0.19900000000000015
40
0.20000000000000015
40
0.20100000000000015
40
0.20200000000000015
40
0.20300000000000015
40
0.20400000000000015
40
0.20500000000000015
40
0.20600000000000016
40
0.20700000000000016
40
0.20800000000000016
40
0.20900000000000016
40
0.21000000000000016
40
0.21100000000000016
40
0.21200000000000016
40
0.21300000000000016
40
0.21400000000000016
40
0.21500000000000016
40
0.21600000000000016
40
0.21700000000000016
40
0.21800000000000017
40
0.21900000000000017
40
0.22000000000000017
40
0.22100000000000017
40
0.22200000000000017
40
0.22300000000000017
40
0.22400000000000017
40
0.22500000000000017
40
0.22600000000000017
40
0.22700000000000017
40
0.22800000000000017
40
0.22900000000000018
40
0.23000000000000018
40
0.23100000000000018
40
0.23200000000000018
40
0.23300000000000018
40
0.23400000000000018
40
0.23500000000000018
40
0.23600000000000018
40
0.23700000000000018
40
0.23800000000000018
40
0.23900000000000018
40
0.24000000000000019
40
0.24100000000000019
40
0.24200000000000019
40
0.24300000000000019
40
0.24400000000000019
40
0.24500000000000019
40
0.24600000000000019
40
0.24700000000000019
40
0.24800000000000019
40
0.24900000000000019
40
0.25000000000000017
40
0.25100000000000017
40
0.25200000000000017
40
0.25300000000000017
40
0.25400000000000017
40
0.25500000000000017
40
0.25600000000000017
40
0.25700000000000017
40
0.25800000000000017
40
0.25900000000000017
40
0.26000000000000018
40
0.26100000000000018
40
0.26200000000000018
40
0.26300000000000018
40
0.26400000000000018
40
0.26500000000000018
40
0.26600000000000018
40
0.26700000000000018
40
0.26800000000000018
40
0.26900000000000018
40
0.27000000000000018
40
0.27100000000000019
40
0.27200000000000019
40
0.27300000000000019
40
0.27400000000000019
40
0.27500000000000019
40
0.27600000000000019
40
0.27700000000000019
40
0.27800000000000019
40
0.27900000000000019
40
0.28000000000000019
40
0.28100000000000019
40
0.28200000000000019
40
0.2830000000000002
40
0.2840000000000002
40
0.2850000000000002
40
0.2860000000000002
40
0.2870000000000002
40
0.2880000000000002
40
0.2890000000000002
40
0.2900000000000002
40
0.2910000000000002
40
0.2920000000000002
40
0.2930000000000002
40
0.29400000000000021
40
0.29500000000000021
40
0.29600000000000021
40
0.29700000000000021
40
0.29800000000000021
40
0.29900000000000021
40
0.30000000000000021
40
0.30100000000000021
40
0.30200000000000021
40
0.30300000000000021
40
0.30400000000000021
40
0.30500000000000022
40
0.30600000000000022
40
0.30700000000000022
40
0.30800000000000022
40
0.30900000000000022
40
0.31000000000000022
40
0.31100000000000022
40
0.31200000000000022
40
0.31300000000000022
40
0.31400000000000022
40
0.31500000000000022
40
0.31600000000000023
40
0.31700000000000023
40
0.31800000000000023
40
0.31900000000000023
40
0.32000000000000023
40
0.32100000000000023
40
0.32200000000000023
40
0.32300000000000023
40
0.32400000000000023
40
0.32500000000000023
40
0.32600000000000023
40
0.32700000000000023
40
0.32800000000000024
40
0.32900000000000024
40
0.33000000000000024
40
0.33100000000000024
40
0.33200000000000024
40
0.33300000000000024
40
0.33400000000000024
40
0.33500000000000024
40
0.33600000000000024
40
0.33700000000000024
40
0.33800000000000024
40
0.33900000000000025
40
0.34000000000000025
40
0.34100000000000025
40
0.34200000000000025
40
0.34300000000000025
40
0.34400000000000025
40
0.34500000000000025
40
0.34600000000000025
40
0.34700000000000025
40
0.34800000000000025
40
0.34900000000000025
40
0.35000000000000026
40
0.35100000000000026
40
0.35200000000000026
40
0.35300000000000026
40
0.35400000000000026
40
0.35500000000000026
40
0.35600000000000026
40
0.35700000000000026
40
0.35800000000000026
40
0.35900000000000026
40
0.36000000000000026
40
0.36100000000000027
40
0.36200000000000027
40
0.36300000000000027
40
0.36400000000000027
40
0.36500000000000027
40
0.36600000000000027
40
0.36700000000000027
40
0.36800000000000027
40
0.36900000000000027
40
0.37000000000000027
40
0.37100000000000027
40
0.37200000000000027
40
0.37300000000000028
40
0.37400000000000028
40
0.37500000000000028
40
0.37600000000000028
40
0.37700000000000028
40
0.37800000000000028
40
0.37900000000000028
40
0.38000000000000028
40
0.38100000000000028
40
0.38200000000000028
40
0.38300000000000028
40
0.38400000000000029
40
0.38500000000000029
40
0.38600000000000029
40
0.38700000000000029
40
0.38800000000000029
40
0.38900000000000029
40
0.39000000000000029
40
0.39100000000000029
40
0.39200000000000029
40
0.39300000000000029
40
0.39400000000000029
40
0.3950000000000003
40
0.3960000000000003
40
0.3970000000000003
40
0.3980000000000003
40
0.3990000000000003
40
0.4000000000000003
40
0.4010000000000003
40
0.4020000000000003
40
0.4030000000000003
40
0.4040000000000003
40
0.4050000000000003
40
0.40600000000000031
40
0.40700000000000031
40
0.40800000000000031
40
0.40900000000000031
40
0.41000000000000031
40
0.41100000000000031
40
0.41200000000000031
40
0.41300000000000031
40
0.41400000000000031
40
0.41500000000000031
40
0.41600000000000031
40
0.41700000000000031
40
0.41800000000000032
40
0.41900000000000032
40
0.42000000000000032
40
0.42100000000000032
40
0.42200000000000032
40
0.42300000000000032
40
0.42400000000000032
40
0.42500000000000032
40
0.42600000000000032
40
0.42700000000000032
40
0.42800000000000032
40
0.42900000000000033
40
0.43000000000000033
40
0.43100000000000033
40
0.43200000000000033
40
0.43300000000000033
40
0.43352847884242662
40
0.43352847884242662
40
0.43352847884242662
40
0.43352847884242662
40
0.43352847884242662
40
0.43352847884242662
41
1
41
1
41
1
41
1
41
1
41
1
41
1
41
1
41
1
41
1
41
1
41
1
41
1
41
1
41
1
41
1
41
1
41
1
41
1
41
1
41
1
41
1
41
1
41
1
41
1
41
1
41
1
41
1
41
1
41
1
41
1
41
1
41
1
41
1
41
1
41
1
41
1
41
1
41
1
41
1
41
1
41
1
41
1
41
1
41
1
41
1
41
1
41
1
41
1
41
1
41
1
41
1
41
1
41
1
41
1
41
1
41
1
41
1
41
1
41
1
41
1
41
1
41
1
41
1
41
1
41
1
41
1
41
1
41
1
41
1
41
1
41
1
41
1
41
1
41
1
41
1
41
1
41
1
41
1
41
1
41
1
41
1
41
1
41
1
41
1
41
1
41
1
41
1
41
1
41
1
41
1
41
1
41
1
41
1
41
1
41
1
41
1
41
1
41
1
41
1
41
1
41
1
41
1
41
1
41
1
41
1
41
1
41
1
41
1
41
1
41
1
41
1
41
1
41
1
41
1
41
1
41
1
41
1
41
1
41
1
41
1
41
1
41
1
41
1
41
1
41
1
41
1
41
1
41
1
41
1
41
1
41
1
41
1
41
1
41
1
41
1
41
1
41
1
41
1
41
1
41
1
41
1
41
1
41
1
41
1
41
1
41
1
41
1
41
1
41
1
41
1
41
1
41
1
41
1
41
1
41
1
41
1
41
1
41
1
41
1
41
1
41
1
41
1
41
1
41
1
41
1
41
1
41
1
41
1
41
1
41
1
41
1
41
1
41
1
41
1
41
1
41
1
41
1
41
1
41
1
41
1
41
1
41
1
41
1
41
1
41
1
41
1
41
1
41
1
41
1
41
1
41
1
41
1
41
1
41
1
41
1
41
1
41
1
41
1
41
1
41
1
41
1
41
1
41
1
41
1
41
1
41
1
41
1
41
1
41
1
41
1
41
1
41
1
41
1
41
1
41
1
41
1
41
1
41
1
41
1
41
1
41
1
41
1
41
1
41
1
41
1
41
1
41
1
41
1
41
1
41
1
41
1
41
1
41
1
41
1
41
1
41
1
41
1
41
1
41
1
41
1
41
1
41
1
41
1
41
1
41
1
41
1
41
1
41
1
41
1
41
1
41
1
41
1
41
1
41
1
41
1
41
1
41
1
41
1
41
1
41
1
41
1
41
1
41
1
41
1
41
1
41
1
41
1
41
1
41
1
41
1
41
1
41
1
41
1
41
1
41
1
41
1
41
1
41
1
41
1
41
1
41
1
41
1
41
1
41
1
41
1
41
1
41
1
41
1
41
1
41
1
41
1
41
1
41
1
41
1
41
1
41
1
41
1
41
1
41
1
41
1
41
1
41
1
41
1
41
1
41
1
41
1
41
1
41
1
41
1
41
1
41
1
41
1
41
1
41
1
41
1
41
1
41
1
41
1
41
1
41
1
41
1
41
1
41
1
41
1
41
1
41
1
41
1
41
1
41
1
41
1
41
1
41
1
41
1
41
1
41
1
41
1
41
1
41
1
41
1
41
1
41
1
41
1
41
1
41
1
41
1
41
1
41
1
41
1
41
1
41
1
41
1
41
1
41
1
41
1
41
1
41
1
41
1
41
1
41
1
41
1
41
1
41
1
41
1
41
1
41
1
41
1
41
1
41
1
41
1
41
1
41
1
41
1
41
1
41
1
41
1
41
1
41
1
41
1
41
1
41
1
41
1
41
1
41
1
41
1
41
1
41
1
41
1
41
1
41
1
41
1
41
1
41
1
41
1
41
1
41
1
41
1
41
1
41
1
41
1
41
1
41
1
41
1
41
1
41
1
41
1
41
1
41
1
41
1
41
1
41
1
41
1
41
1
41
1
41
1
41
1
41
1
41
1
41
1
41
1
41
1
41
1
41
1
41
1
41
1
41
1
41
1
41
1
41
1
41
1
41
1
41
1
41
1
41
1
41
1
41
1
41
1
41
1
41
1
10
4.9212598425196843
20
-1.0927391974657051e-15
30
0
10
4.9212637589041206
20
3.0844788510736636e-05
30
0
10
4.9209415790270077
20
0.0001358522740306126
30
0
10
4.9194716498153044
20
0.00044673897263642145
30
0
10
4.9176427194676569
20
0.00099331548405020968
30
0
10
4.9150475302271142
20
0.0018067148030610335
30
0
10
4.911631336295577
20
0.0027265842422707974
30
0
10
4.9079504763117123
20
0.0037342698281915944
30
0
10
4.9041572790047381
20
0.0048179038860232124
30
0
10
4.9001396081525606
20
0.0059664306605151599
30
0
10
4.8958328985148416
20
0.0071727215345216934
30
0
10
4.891299501934502
20
0.0084320057101879946
30
0
10
4.8866083581309141
20
0.009740613748217981
30
0
10
4.8817764720092143
20
0.011094529133018685
30
0
10
4.8767922520177009
20
0.012489939943166547
30
0
10
4.8716478920853765
20
0.013923739654126898
30
0
10
4.8663541650887501
20
0.015393745522853046
30
0
10
4.8609273236983794
20
0.016898253834200922
30
0
10
4.8553800343192632
20
0.018435695778479425
30
0
10
4.8497164166028259
20
0.020004408839367403
30
0
10
4.8439375178797706
20
0.021602708001138005
30
0
10
4.8380445300242805
20
0.023228870806534501
30
0
10
4.8320416961199397
20
0.024881185923565533
30
0
10
4.8259342990402558
20
0.026558099089978242
30
0
10
4.8197276700133198
20
0.02825833665769617
30
0
10
4.8134256748660951
20
0.029981059045240815
30
0
10
4.8070311101554495
20
0.031725699334702852
30
0
10
4.8005461564594656
20
0.033491788173336444
30
0
10
4.7939728783976197
20
0.035278755476073419
30
0
10
4.7873134948960798
20
0.037085836595697988
30
0
10
4.780570242911355
20
0.03891216122869235
30
0
10
4.7737453397415504
20
0.040756798599464669
30
0
10
4.7668408957295734
20
0.042618823431989854
30
0
10
4.7598589011533345
20
0.044497356987001774
30
0
10
4.7528012316915857
20
0.046391605887096517
30
0
10
4.7456696492590682
20
0.048300896990538182
30
0
10
4.7384658034168181
20
0.050224724759051889
30
0
10
4.7311912440088433
20
0.052162696982854181
30
0
10
4.7238474368444621
20
0.054114456830659852
30
0
10
4.7164357779096608
20
0.056079618804840532
30
0
10
4.7089576091506213
20
0.058057684381487069
30
0
10
4.7014142265348422
20
0.060048087272987577
30
0
10
4.6938068873501306
20
0.062050271322608673
30
0
10
4.6861368162363464
20
0.064063748760250214
30
0
10
4.6784052154710469
20
0.066088187388469277
30
0
10
4.6706132542219718
20
0.068123380373961595
30
0
10
4.6627620448618696
20
0.070169151422247375
30
0
10
4.6548526261943453
20
0.072225287123077186
30
0
10
4.6468859371755009
20
0.07429144153239782
30
0
10
4.6388628169219164
20
0.076367107923632591
30
0
10
4.6307840533355273
20
0.078451711291192799
30
0
10
4.6226504219989124
20
0.080544676202607052
30
0
10
4.6144627274114907
20
0.082645502051403807
30
0
10
4.6062218473776628
20
0.084753841695895601
30
0
10
4.5979287035514913
20
0.086869465553454012
30
0
10
4.5895842241652129
20
0.088992213751336438
30
0
10
4.5811893118418459
20
0.09112195508885057
30
0
10
4.5727448039734009
20
0.093258537347756909
30
0
10
4.5642514541997494
20
0.095401760870850574
30
0
10
4.5557099519787165
20
0.097551393580345522
30
0
10
4.5471209340096372
20
0.099707177216026663
30
0
10
4.5384849985464939
20
0.10186883655171503
30
0
10
4.5298027194146915
20
0.10403608868647281
30
0
10
4.5210746551085741
20
0.10620864516341479
30
0
10
4.5123013549733884
20
0.1083862103171621
30
0
10
4.5034833664945193
20
0.11056848061171731
30
0
10
4.494621241783701
20
0.11275514410028774
30
0
10
4.4857155453132318
20
0.1149458784153157
30
0
10
4.4767668500760385
20
0.11714036660616335
30
0
10
4.4677757323279153
20
0.11933831520648695
30
0
10
4.4587427668283786
20
0.12153947164660522
30
0
10
4.4496685218770846
20
0.12374364162435125
30
0
10
4.4405535544219488
20
0.1259507073617768
30
0
10
4.4313984061583716
20
0.12816060229857057
30
0
10
4.4222035997001816
20
0.13037328473616483
30
0
10
4.4129696346675074
20
0.13258871173520806
30
0
10
4.4036969839369373
20
0.13480681321412533
30
0
10
4.3943860894770319
20
0.13702746511507441
30
0
10
4.3850373698865637
20
0.13925049322555208
30
0
10
4.375651228289982
20
0.14147567837774314
30
0
10
4.3662280602573746
20
0.14370276072900626
30
0
10
4.3567682613589644
20
0.14593144537541786
30
0
10
4.3472722358124587
20
0.14816140492638577
30
0
10
4.3377403954367715
20
0.15039230638440509
30
0
10
4.328173156933925
20
0.15262384094714948
30
0
10
4.3185709398042293
20
0.15485575493127873
30
0
10
4.3089341638863754
20
0.15708787538698432
30
0
10
4.2992632473309103
20
0.159320150139447
30
0
10
4.2895586030867401
20
0.16155262249091307
30
0
10
4.2798206347122738
20
0.1637853706709613
30
0
10
4.2700497322133764
20
0.1660184560129781
30
0
10
4.2602462682653304
20
0.16825187224080529
30
0
10
4.2504105933197192
20
0.17048548290894172
30
0
10
4.240543034358919
20
0.17271900185823583
30
0
10
4.2306439012852728
20
0.17495206555134521
30
0
10
4.2207134917034512
20
0.17718428574819026
30
0
10
4.2107520963575737
20
0.17941531075856113
30
0
10
4.2007600042582416
20
0.18164488135565257
30
0
10
4.1907375080298115
20
0.18387289350793823
30
0
10
4.1806849065935188
20
0.18609935491047022
30
0
10
4.1706025075529762
20
0.18832433661091258
30
0
10
4.1604906300104219
20
0.19054792466556253
30
0
10
4.1503496064669356
20
0.19277017571456384
30
0
10
4.1401797869168337
20
0.19499106123539658
30
0
10
4.129981535162961
20
0.19721045320224231
30
0
10
4.1197552160362072
20
0.19942815811117309
30
0
10
4.1095011850849499
20
0.20164393832167751
30
0
10
4.0992197770250227
20
0.20385753880467897
30
0
10
4.088911295266894
20
0.20606871100446209
30
0
10
4.0785759995134629
20
0.20827723948099849
30
0
10
4.0682141167624133
20
0.21048294312082749
30
0
10
4.0578258542954622
20
0.2126856740732585
30
0
10
4.0474114122355056
20
0.21488531772581954
30
0
10
4.0369709956568238
20
0.2170817917112253
30
0
10
4.0265048283981253
20
0.21927504660662814
30
0
10
4.016013161317014
20
0.22146506180246409
30
0
10
4.0054962650454993
20
0.22365182781580079
30
0
10
3.9949544255989893
20
0.22583533151715315
30
0
10
3.9843879388458001
20
0.22801553929639201
30
0
10
3.9737971054864585
20
0.23019238320001315
30
0
10
3.9631822257564058
20
0.23236574057209619
30
0
10
3.9525435944760137
20
0.23453543932046181
30
0
10
3.941881496159207
20
0.23670128238459334
30
0
10
3.9311962002569776
20
0.23886306629819462
30
0
10
3.9204879560240586
20
0.24102060287790386
30
0
10
3.9097569882950234
20
0.24317373795215547
30
0
10
3.8990034909180933
20
0.2453223755883551
30
0
10
3.8882276361995243
20
0.24746646749669854
30
0
10
3.8774295882735377
20
0.2496059940593256
30
0
10
3.8666095150734519
20
0.25174094826782056
30
0
10
3.8557676010237394
20
0.25387131830827991
30
0
10
3.8449040591066472
20
0.25599707104068575
30
0
10
3.8340191440596803
20
0.25811813423824975
30
0
10
3.8231131390690574
20
0.26023440523735797
30
0
10
3.8121863413750066
20
0.2623457606617724
30
0
10
3.8012390482071567
20
0.26445206579620717
30
0
10
3.7902715427297649
20
0.26655318401963085
30
0
10
3.7792840796291691
20
0.2686489864218306
30
0
10
3.7682768718562607
20
0.27073936074883498
30
0
10
3.7572501010712482
20
0.27282420625615084
30
0
10
3.7462039270063117
20
0.2749034292238649
30
0
10
3.7351384972881343
20
0.27697693815843938
30
0
10
3.7240539569463373
20
0.27904463927257983
30
0
10
3.7129504583388577
20
0.2811064315012809
30
0
10
3.701828170086884
20
0.28316220271038117
30
0
10
3.6906872757483393
20
0.28521183865034011
30
0
10
3.6795279732351633
20
0.287255230912703
30
0
10
3.6683504739753459
20
0.28929228537259222
30
0
10
3.6571550021214518
20
0.29132293018199162
30
0
10
3.6459417938863639
20
0.29334712453200606
30
0
10
3.6347110964038056
20
0.2953648654382538
30
0
10
3.6234631599992309
20
0.29737616879321332
30
0
10
3.6121982308836311
20
0.29938105204361037
30
0
10
3.6009165436769708
20
0.30137951622977882
30
0
10
3.5896183140263571
20
0.30337152834718117
30
0
10
3.5783037311303008
20
0.30535700344821354
30
0
10
3.5669729504486831
20
0.30733578718796828
30
0
10
3.555626105488058
20
0.30930768201452147
30
0
10
3.5442633194904181
20
0.31127247314210876
30
0
10
3.5328847170412705
20
0.31322995433767048
30
0
10
3.5214904359754047
20
0.31517995439026908
30
0
10
3.5100806385351562
20
0.31712236186736376
30
0
10
3.4986555245129929
20
0.31905715441808619
30
0
10
3.4872153205448058
20
0.32098437341824221
30
0
10
3.4757602666704233
20
0.32290409234658651
30
0
10
3.4642906041169508
20
0.32481638797666601
30
0
10
3.4528065620101125
20
0.32672130908194036
30
0
10
3.4413083458471521
20
0.32861884924786788
30
0
10
3.4297961218610631
20
0.33050891009158384
30
0
10
3.4182700240996295
20
0.33239131751921441
30
0
10
3.4067301694889314
20
0.33426585660718666
30
0
10
3.3951766699710997
20
0.33613229969353364
30
0
10
3.3836096465194219
20
0.33799043875730761
30
0
10
3.3720292408236592
20
0.33984011258041752
30
0
10
3.360435631762583
20
0.34168124454110116
30
0
10
3.3488290341457772
20
0.34351384111176431
30
0
10
3.3372096819909673
20
0.34533795611969992
30
0
10
3.3255778163431198
20
0.34715366502887868
30
0
10
3.3139336707876703
20
0.34896103420348756
30
0
10
3.3022774589757762
20
0.35076009442088585
30
0
10
3.2906093588132257
20
0.35255080749017892
30
0
10
3.2789295060809245
20
0.35433305223343836
30
0
10
3.2672380113567359
20
0.35610665823793908
30
0
10
3.2555349724682259
20
0.35787143044776476
30
0
10
3.2438204887446878
20
0.3596271774448993
30
0
10
3.2320946744400803
20
0.3613737380270291
30
0
10
3.220357672656847
20
0.36311100882139186
30
0
10
3.2086096686549901
20
0.3648389706149418
30
0
10
3.1968508770493744
20
0.36655766046128119
30
0
10
3.1850815293096737
20
0.3682671443613536
30
0
10
3.1733018613567192
20
0.36996749027379794
30
0
10
3.1615121006486873
20
0.37165873976239638
30
0
10
3.1497124545843787
20
0.37334088309067609
30
0
10
3.1379030955262377
20
0.37501382549829765
30
0
10
3.1260841637790819
20
0.37667740035565883
30
0
10
3.1142557775554436
20
0.37833140069703175
30
0
10
3.1024180405860333
20
0.37997560432124361
30
0
10
3.0905710508943125
20
0.38160980258140076
30
0
10
3.0787149086485761
20
0.38323382525596267
30
0
10
3.0668497254403699
20
0.3848475727917236
30
0
10
3.0549756293781893
20
0.38645102564724682
30
0
10
3.043092763294267
20
0.38804421546910994
30
0
10
3.0312012845146019
20
0.38962720498438402
30
0
10
3.0193013640072159
20
0.39120006435198407
30
0
10
3.0073931857812721
20
0.39276284911169135
30
0
10
2.9954769462139486
20
0.39431557724784522
30
0
10
2.9835528533116857
20
0.39585820718280107
30
0
10
2.9716211201788902
20
0.39739065233967208
30
0
10
2.9596819585062466
20
0.39891279527200291
30
0
10
2.947735572216919
20
0.40042450172019212
30
0
10
2.9357821506706521
20
0.40192563522298025
30
0
10
2.9238218629344486
20
0.40341607026640203
30
0
10
2.9118548493798899
20
0.40489570915330553
30
0
10
2.8998812253348438
20
0.40636448206108772
30
0
10
2.8879010914821803
20
0.40782233772140725
30
0
10
2.8759145420858037
20
0.40926923706081481
30
0
10
2.8639216743201685
20
0.41070514546306369
30
0
10
2.8519225966564847
20
0.4121300259730144
30
0
10
2.839917438783671
20
0.41354383125390365
30
0
10
2.8279063573571372
20
0.41494649869892486
30
0
10
2.8158895278315343
20
0.41633795589766498
30
0
10
2.803867138530769
20
0.41771812444284961
30
0
10
2.7918393839083318
20
0.41908692433754507
30
0
10
2.7798064579962558
20
0.42044427826240988
30
0
10
2.7677685481409871
20
0.42179011563057228
30
0
10
2.7557258276494196
20
0.42312437744973846
30
0
10
2.7436784572183783
20
0.4244470146877849
30
0
10
2.7316265882056427
20
0.42575798528671233
30
0
10
2.7195703652262919
20
0.42705725165309927
30
0
10
2.707509929116203
20
0.42834477792866993
30
0
10
2.6954454195433883
20
0.42962052740123485
30
0
10
2.6833769782449499
20
0.43088445974322181
30
0
10
2.6713047503294924
20
0.43213652871882557
30
0
10
2.6592288825568153
20
0.4333766806118019
30
0
10
2.647149522317946
20
0.43460485247531228
30
0
10
2.635066816341721
20
0.43582097047657531
30
0
10
2.6229809094981897
20
0.43702494814752735
30
0
10
2.6108919436077258
20
0.4382166848020434
30
0
10
2.5988000561170375
20
0.43939606353302546
30
0
10
2.5867053829475002
20
0.44056296046956839
30
0
10
2.5746080615767664
20
0.44171725467623379
30
0
10
2.56250823394566
20
0.44285883752741628
30
0
10
2.550406049640205
20
0.44398762295911404
30
0
10
2.5383016684866027
20
0.44510355581707228
30
0
10
2.5261952645594739
20
0.44620662480355655
30
0
10
2.5140870249277691
20
0.44729685828768417
30
0
10
2.5019771433552673
20
0.4483743036728341
30
0
10
2.4898658153976063
20
0.4494390113308207
30
0
10
2.4777532328986327
20
0.45049101653868107
30
0
10
2.4656395788115231
20
0.4515303225683503
30
0
10
2.4535250217199107
20
0.45255688257440374
30
0
10
2.4414097109440589
20
0.45357058399763456
30
0
10
2.4292937804194956
20
0.45457127048384932
30
0
10
2.4171773521031659
20
0.45555876205449269
30
0
10
2.4050605395875073
20
0.45653287550796323
30
0
10
2.3929434515581547
20
0.45749344569338879
30
0
10
2.3808261954780687
20
0.4584403441430821
30
0
10
2.3687088807725525
20
0.4593735045464723
30
0
10
2.3565916241598255
20
0.46029291825112628
30
0
10
2.3444745563789913
20
0.46119861146805929
30
0
10
2.3323578283304927
20
0.462090628182937
30
0
10
2.3202416178196335
20
0.46296901037474264
30
0
10
2.3081261352097862
20
0.46383378015749493
30
0
10
2.2960116315323154
20
0.46468491925801941
30
0
10
2.2838983996033764
20
0.46552235514039819
30
0
10
2.2717867404154277
20
0.46634597970903946
30
0
10
2.2596769334621123
20
0.46715566400035485
30
0
10
2.2475692066082233
20
0.46795127412674198
30
0
10
2.2354637037127825
20
0.46873268737563534
30
0
10
2.2233604589355411
20
0.46949980662906698
30
0
10
2.2112593534235585
20
0.47025257966275263
30
0
10
2.1991601728319914
20
0.4709909901349813
30
0
10
2.1870627003948333
20
0.47171503871905496
30
0
10
2.1749667960803287
20
0.47242472783556605
30
0
10
2.1628724863886024
20
0.47312004411959652
30
0
10
2.1507800383881532
20
0.47380094362482172
30
0
10
2.1386900675956002
20
0.47446733158403998
30
0
10
2.1266035426625978
20
0.47511905847791719
30
0
10
2.1145215537199138
20
0.47575595324686809
30
0
10
2.1024451268474134
20
0.47637784934454402
30
0
10
2.0903750223609823
20
0.47698461311711365
30
0
10
2.0783115350290893
20
0.47757617238710054
30
0
10
2.0662543051858147
20
0.47815254212807357
30
0
10
2.0542020936606411
20
0.47871385898384711
30
0
10
2.042153015324943
20
0.47926030388164498
30
0
10
2.0301048242024988
20
0.47979201133450317
30
0
10
2.0180551757860403
20
0.48030898598782823
30
0
10
2.0060019087514798
20
0.4808110105204163
30
0
10
1.9939432955608922
20
0.48129757027019587
30
0
10
1.9818783627402781
20
0.48176773850688853
30
0
10
1.9698069590006295
20
0.48222020561903345
30
0
10
1.9577295700661628
20
0.48265345346723038
30
0
10
1.9456472021473312
20
0.48306588991937988
30
0
10
1.9335612369717008
20
0.48345600088890595
30
0
10
1.9214732999265824
20
0.48382249202883459
30
0
10
1.9093851203534764
20
0.48416444164762956
30
0
10
1.8972984015966721
20
0.48448142935633204
30
0
10
1.8852147749225707
20
0.48477341353714792
30
0
10
1.8731357470108221
20
0.48504062611719673
30
0
10
1.8610626512030399
20
0.48528346234320863
30
0
10
1.8489965941236941
20
0.48550236912088957
30
0
10
1.8369384113796965
20
0.48569774229885249
30
0
10
1.8248886012859391
20
0.4858697988919744
30
0
10
1.8128473663743956
20
0.48601857540314125
30
0
10
1.8008147036198581
20
0.48614398306759166
30
0
10
1.7887904782721871
20
0.48624584451787373
30
0
10
1.7767745064114198
20
0.48632393909855115
30
0
10
1.7647666293482631
20
0.48637804233579718
30
0
10
1.752766802188499
20
0.48640797307510414
30
0
10
1.7407751416275652
20
0.48641362054927151
30
0
10
1.7287918766343442
20
0.48639492462236861
30
0
10
1.7168173180011517
20
0.4863518651055701
30
0
10
1.7048518205249168
20
0.48628444750908006
30
0
10
1.6928957480491866
20
0.4861926902305666
30
0
10
1.6809494379497296
20
0.48607661132681551
30
0
10
1.6690131640209886
20
0.48593621491765532
30
0
10
1.6570871487669343
20
0.48577149208260512
30
0
10
1.6451715784302972
20
0.48558242253780126
30
0
10
1.6332666168011154
20
0.48536897605005319
30
0
10
1.6213724200282933
20
0.48513111390604824
30
0
10
1.609489149863842
20
0.48486879048871179
30
0
10
1.5976169904454174
20
0.48458195447700975
30
0
10
1.5857561497801904
20
0.48427055181148365
30
0
10
1.5739068522760282
20
0.48393452975436591
30
0
10
1.5620693340707885
20
0.48357384053082708
30
0
10
1.5502438370617126
20
0.48318844532821015
30
0
10
1.5384306038208093
20
0.48277831771467727
30
0
10
1.5266298713328781
20
0.48234344834302401
30
0
10
1.5148418679076836
20
0.48188384563170461
30
0
10
1.5030668163130043
20
0.4813995282963322
30
0
10
1.4913049355905266
20
0.48089051963057428
30
0
10
1.4795564434159483
20
0.48035684103485421
30
0
10
1.4678215581847496
20
0.4797985059879179
30
0
10
1.4561005013154196
20
0.47921551353932873
30
0
10
1.4443934991737488
20
0.47860784283653379
30
0
10
1.4327007812449721
20
0.47797545863277113
30
0
10
1.4210225785539299
20
0.47731831603541536
30
0
10
1.4093591220193649
20
0.47663636550754607
30
0
10
1.3977106407725444
20
0.4759295578412141
30
0
10
1.3860773606408574
20
0.47519784895642936
30
0
10
1.374459502160515
20
0.47444120527251005
30
0
10
1.3628572837348121
20
0.47365960276454622
30
0
10
1.3512709254913624
20
0.47285302521351508
30
0
10
1.3397006528047
20
0.47202146274697343
30
0
10
1.3281467001544534
20
0.47116491024805662
30
0
10
1.3166093143847932
20
0.47028336584276659
30
0
10
1.3050887593876812
20
0.46937682929841285
30
0
10
1.2935853132663477
20
0.46844530077529983
30
0
10
1.282099262592777
20
0.46748877968194757
30
0
10
1.2706308976982554
20
0.46650726353669031
30
0
10
1.2591805073411337
20
0.46550074673859887
30
0
10
1.2477483740885229
20
0.46446921958203213
30
0
10
1.2363347682704304
20
0.46341266665249359
30
0
10
1.2249399476809455
20
0.46233106785231548
30
0
10
1.2135641610200192
20
0.46122440119017366
30
0
10
1.2022076502194379
20
0.46009264498785707
30
0
10
1.1908706532280509
20
0.45893578044922334
30
0
10
1.1795534066031275
20
0.45775379379192754
30
0
10
1.1682561481768681
20
0.45654667926759124
30
0
10
1.1569791197419634
20
0.45531443889322915
30
0
10
1.1457225698855431
20
0.45405707929170108
30
0
10
1.1344867566541301
20
0.45277460942260916
30
0
10
1.123271950560397
20
0.45146703777550495
30
0
10
1.1120784368128622
20
0.45013437019315283
30
0
10
1.1009065194439658
20
0.44877660643239409
30
0
10
1.0897565182215452
20
0.44739374132899223
30
0
10
1.0786287588091459
20
0.44598577025734398
30
0
10
1.067523565051465
20
0.44455269320709073
30
0
10
1.0564412498439895
20
0.44309451984471154
30
0
10
1.0453821078724734
20
0.44161127318345333
30
0
10
1.0343464043939643
20
0.44010299627378274
30
0
10
1.0233343795065224
20
0.43856974698739837
30
0
10
1.0123462641718115
20
0.4370115836634641
30
0
10
1.0013822925002125
20
0.43542855380197215
30
0
10
0.99044271628120506
20
0.43382068064542045
30
0
10
0.97952781690870272
20
0.43218795265811605
30
0
10
0.96863792260485937
20
0.4305303066908821
30
0
10
0.95777340100188713
20
0.42884764101261802
30
0
10
0.94693464026070395
20
0.42713984233669888
30
0
10
0.93612203405081129
20
0.42540680803672926
30
0
10
0.92533596441787447
20
0.4236484711903335
30
0
10
0.91457678674410903
20
0.4218648224728484
30
0
10
0.90384481067422684
20
0.42005593852200268
30
0
10
0.89314031359004664
20
0.41822195722921807
30
0
10
0.88246355939070276
20
0.41636304435625171
30
0
10
0.87181481559386242
20
0.41447936288880144
30
0
10
0.86119437075569283
20
0.41257104189457167
30
0
10
0.85060255267174711
20
0.41063814404109111
30
0
10
0.84003974358891831
20
0.40868063817356787
30
0
10
0.82950635806952377
20
0.40669843461569277
30
0
10
0.81900282400208602
20
0.40469141533384356
30
0
10
0.80852956143059107
20
0.40265946741387787
30
0
10
0.79808696455619421
20
0.40060251203134628
30
0
10
0.78767537690590583
20
0.39852054290663802
30
0
10
0.77729508880656462
20
0.39641363396311735
30
0
10
0.76694636960661666
20
0.3942818991318176
30
0
10
0.75662949117910661
20
0.39212546406786497
30
0
10
0.74634475607412221
20
0.38994443170253806
30
0
10
0.73609252105310596
20
0.38773885358907284
30
0
10
0.72587322943806676
20
0.38550869055867093
30
0
10
0.71568738981164981
20
0.38325383779790306
30
0
10
0.70553554143481145
20
0.38097416579654442
30
0
10
0.69541822326165348
20
0.37866955708876587
30
0
10
0.68533594345068594
20
0.37633994216262773
30
0
10
0.67528914386882644
20
0.37398534193468208
30
0
10
0.66527818180830345
20
0.37160588788976623
30
0
10
0.65530336840895154
20
0.36920176857061165
30
0
10
0.64536499691509952
20
0.36677318944837772
30
0
10
0.63546337596769109
20
0.36432032580458457
30
0
10
0.62559885836637807
20
0.36184328256375392
30
0
10
0.61577187797756139
20
0.35934204081434817
30
0
10
0.60598293584461027
20
0.3568164885885925
30
0
10
0.59623257467897706
20
0.35426647066349493
30
0
10
0.58652135641765246
20
0.35169183394014719
30
0
10
0.57684984048046306
20
0.34909247007718497
30
0
10
0.5672185568911855
20
0.34646837050788809
30
0
10
0.55762799918586992
20
0.34381963541283933
30
0
10
0.54807864453629307
20
0.34114641982318245
30
0
10
0.53857096736982835
20
0.33844889461870237
30
0
10
0.52910545510141527
20
0.33572720294285202
30
0
10
0.51968262419706146
20
0.33298141515253521
30
0
10
0.51030303243856856
20
0.33021149453696863
30
0
10
0.50096726474541198
20
0.32741733616603674
30
0
10
0.49167592212949002
20
0.32459879716610929
30
0
10
0.48242960933120832
20
0.3217557304827684
30
0
10
0.47322892326173532
20
0.31888801676572537
30
0
10
0.46407444043541135
20
0.31599559813669426
30
0
10
0.45496673041338592
20
0.31307846764623215
30
0
10
0.44590636980324871
20
0.31013665745500618
30
0
10
0.43689395648579782
20
0.30717022746924544
30
0
10
0.42793012276531761
20
0.30417925379987798
30
0
10
0.4190155515818601
20
0.30116381725312685
30
0
10
0.4101509601453534
20
0.29812399261023659
30
0
10
0.40133707978061284
20
0.29505983821034326
30
0
10
0.39340097197124041
20
0.29226263928046486
30
0
10
0.38724981004915754
20
0.2900680009726373
30
0
10
0.38285878182039329
20
0.28848755691423311
30
0
10
0.38021057554365789
20
0.28752932072807613
30
0
10
0.379295687610188
20
0.2871976651557005
30
0
0
LINE
5
115
100
AcDbEntity
8
0
100
AcDbLine
10
0.37929568761018811
20
0.28719766515570055
30
0
11
0.39017342576877329
21
0.25790197754556721
31
0
0
LINE
5
116
100
AcDbEntity
8
0
100
AcDbLine
10
0.39017342576877329
20
0.25790197754556721
30
0
11
0.36087773815858037
21
0.24702423938696541
31
0
0
LINE
5
117
100
AcDbEntity
8
0
100
AcDbLine
10
0.36087773815858037
20
0.24702423938696541
30
0
11
0.34999999999999998
21
0.27631992699717839
31
0
0
SPLINE
5
118
100
AcDbEntity
8
0
100
AcDbSpline
70
4
71
5
72
42
73
36
74
0
42
0.000000001
43
0.0000000001
44
0.0000000001
40
0.43694940845741209
40
0.43694940845741209
40
0.43694940845741209
40
0.43694940845741209
40
0.43694940845741209
40
0.43694940845741209
40
0.43700000000000033
40
0.43800000000000033
40
0.43900000000000033
40
0.44000000000000034
40
0.44100000000000034
40
0.44200000000000034
40
0.44300000000000034
40
0.44400000000000034
40
0.44500000000000034
40
0.44600000000000034
40
0.44700000000000034
40
0.44800000000000034
40
0.44900000000000034
40
0.45000000000000034
40
0.45100000000000035
40
0.45200000000000035
40
0.45300000000000035
40
0.45400000000000035
40
0.45500000000000035
40
0.45600000000000035
40
0.45700000000000035
40
0.45800000000000035
40
0.45900000000000035
40
0.46000000000000035
40
0.46100000000000035
40
0.46200000000000035
40
0.46300000000000036
40
0.46400000000000036
40
0.46500000000000036
40
0.46600000000000036
40
0.46692015125868935
40
0.46692015125868935
40
0.46692015125868935
40
0.46692015125868935
40
0.46692015125868935
40
0.46692015125868935
41
1
41
1
41
1
41
1
41
1
41
1
41
1
41
1
41
1
41
1
41
1
41
1
41
1
41
1
41
1
41
1
41
1
41
1
41
1
41
1
41
1
41
1
41
1
41
1
41
1
41
1
41
1
41
1
41
1
41
1
41
1
41
1
41
1
41
1
41
1
41
1
10
0.34999999999998405
20
0.27631992699714114
30
0
10
0.34991429734163743
20
0.27628732723417282
30
0
10
0.34813473094428671
20
0.27561029005970611
30
0
10
0.34466728710431455
20
0.27428615885830249
30
0
10
0.33952639495969744
20
0.27230856878575421
30
0
10
0.33273526129786263
20
0.26966744351175381
30
0
10
0.32441000207433501
20
0.26638256015075346
30
0
10
0.31614343078829404
20
0.2630729638289
30
0
10
0.3079365786859049
20
0.25973861987000058
30
0
10
0.29979039204244379
20
0.25637942919766432
30
0
10
0.29170570426815395
20
0.25299521553335874
30
0
10
0.28368330991238816
20
0.24958577123820178
30
0
10
0.2757240247508369
20
0.24615089568107218
30
0
10
0.26782874460198169
20
0.24269043154253969
30
0
10
0.25999852130487139
20
0.23920431432707645
30
0
10
0.25223455649029752
20
0.23569256070140235
30
0
10
0.24453813707868693
20
0.23215521374895198
30
0
10
0.236910588836904
20
0.22859230149388438
30
0
10
0.22935322087519325
20
0.22500378891638889
30
0
10
0.22186727845167933
20
0.22138953563597136
30
0
10
0.21445399357884221
20
0.21774932165901309
30
0
10
0.20711463439653147
20
0.21408287110765226
30
0
10
0.19985055016265471
20
0.21038987569795817
30
0
10
0.19266322998043509
20
0.20667002074619784
30
0
10
0.18555429722420533
20
0.20292299856452028
30
0
10
0.17852546581293979
20
0.19914851546510151
30
0
10
0.17157851103132579
20
0.19534629931699382
30
0
10
0.16471522789239254
20
0.19151611014495459
30
0
10
0.15793741632743555
20
0.18765773843193009
30
0
10
0.15124691440253793
20
0.18377097749605967
30
0
10
0.14464562149216778
20
0.17985560230096495
30
0
10
0.13823948992974119
20
0.17597433266173981
30
0
10
0.13320706640582508
20
0.17285946693786119
30
0
10
0.12949908712394514
20
0.1705265650243567
30
0
10
0.12707878604256828
20
0.16898705700537836
30
0
10
0.1259230995643813
20
0.16824804337638555
30
0
0
LINE
5
119
100
AcDbEntity
8
0
100
AcDbLine
10
0.1259230995643813
20
0.16824804337638555
30
0
11
0.14337461551497865
21
0.1423249438119783
31
0
0
LINE
5
120
100
AcDbEntity
8
0
100
AcDbLine
10
0.14337461551497865
20
0.1423249438119783
30
0
11
0.1174515159505256
21
0.12487342786145275
31
0
0
SPLINE
5
121
100
AcDbEntity
8
0
100
AcDbSpline
70
0
71
3
72
14
73
10
74
0
42
0.000000001
43
0.0000000001
44
0.0000000001
40
-0.78547397733679869
40
-0.78547397733679869
40
-0.78547397733679869
40
-0.78547397733679869
40
-0.72540828094396592
40
-0.72540828094396592
40
-0.72540828094396592
40
-0.67920171822253428
40
-0.67920171822253428
40
-0.67920171822253428
40
-0.6580885285230188
40
-0.6580885285230188
40
-0.6580885285230188
40
-0.6580885285230188
10
2.8240649606299213
20
0.0091349229619966492
30
0
10
2.5846505956926129
20
-0.00062912050726452329
30
0
10
2.3429275192065626
20
-0.011133671595225667
30
0
10
2.104213009804385
20
-0.020706709291727618
30
0
10
1.9205777968024484
20
-0.028070932023203821
30
0
10
1.7397990711093654
20
-0.03548278905244686
30
0
10
1.5632326524531255
20
-0.044219236399364537
30
0
10
1.4825540632637986
20
-0.048211186011529641
30
0
10
1.4027150032634104
20
-0.052341635324886129
30
0
10
1.3240649606299209
20
-0.056319339035885797
30
0
0
LINE
5
122
100
AcDbEntity
8
0
100
AcDbLine
10
1.3240649606299211
20
-0.056319339035885797
30
0
11
1.3240649606299206
21
0.40808236662480257
31
0
0
SPLINE
5
123
100
AcDbEntity
8
0
100
AcDbSpline
70
0
71
3
72
14
73
10
74
0
42
0.000000001
43
0.0000000001
44
0.0000000001
40
-0.34275592852340292
40
-0.34275592852340292
40
-0.34275592852340292
40
-0.34275592852340292
40
-0.29386333072543352
40
-0.29386333072543352
40
-0.29386333072543352
40
-0.23707432571224188
40
-0.23707432571224188
40
-0.23707432571224188
40
-0.21672334037324725
40
-0.21672334037324725
40
-0.21672334037324725
40
-0.21672334037324725
10
1.3240649606299213
20
0.40808236662480263
30
0
10
1.5097316931782971
20
0.42236225225480756
30
0
10
1.7024922978318489
20
0.42691830265945652
30
0
10
1.8973590352737326
20
0.42195360709402169
30
0
10
2.1236977578594862
20
0.41618708753784139
30
0
10
2.3521053500204494
20
0.40026409984403377
30
0
10
2.5798412036570992
20
0.37843128635280771
30
0
10
2.6614529349675227
20
0.37060724951388557
30
0
10
2.742942711501267
20
0.36191007632342248
30
0
10
2.8240649606299209
20
0.35243815580753268
30
0
0
LINE
5
124
100
AcDbEntity
8
0
100
AcDbLine
10
2.8240649606299204
20
0.35243815580753268
30
0
11
2.8240649606299213
21
0.0091349229619966492
31
0
0
LINE
5
125
100
AcDbEntity
8
0
100
AcDbLine
10
3.999459842519685
20
0.047554445708247232
30
0
11
3.999459842519685
21
0.1610626346961252
31
0
0
SPLINE
5
126
100
AcDbEntity
8
0
100
AcDbSpline
70
0
71
3
72
8
73
4
74
0
42
0.000000001
43
0.0000000001
44
0.0000000001
40
-0.11336576832559024
40
-0.11336576832559024
40
-0.11336576832559024
40
-0.11336576832559024
40
-0.06604432631969015
40
-0.06604432631969015
40
-0.06604432631969015
40
-0.06604432631969015
10
3.9994598425196854
20
0.16106263469612514
30
0
10
4.1646746837661812
20
0.12666398072992174
30
0
10
4.3208617715329209
20
0.090959793120754348
30
0
10
4.461496985868699
20
0.056531234529033164
30
0
0
SPLINE
5
127
100
AcDbEntity
8
0
100
AcDbSpline
70
0
71
3
72
11
73
7
74
0
42
0.000000001
43
0.0000000001
44
0.0000000001
40
-0.93403794614077995
40
-0.93403794614077995
40
-0.93403794614077995
40
-0.93403794614077995
40
-0.90707489551057563
40
-0.90707489551057563
40
-0.90707489551057563
40
-0.88786831622201301
40
-0.88786831622201301
40
-0.88786831622201301
40
-0.88786831622201301
10
4.4614969858687008
20
0.056531234529034045
30
0
10
4.3786746480703886
20
0.055209780439905563
30
0
10
4.2908414573090017
20
0.053674414601680182
30
0
10
4.1995087820840151
20
0.051869822105305802
30
0
10
4.1344498133343821
20
0.050584357439585323
30
0
10
4.0676791196562956
20
0.049146035907496735
30
0
10
3.9994598425196863
20
0.047554445708247267
30
0
0
SPLINE
5
128
100
AcDbEntity
8
0
100
AcDbSpline
70
0
71
3
72
35
73
31
74
0
42
0.000000001
43
0.0000000001
44
0.0000000001
40
-0.64108744358133007
40
-0.64108744358133007
40
-0.64108744358133007
40
-0.64108744358133007
40
-0.59983797793604643
40
-0.59983797793604643
40
-0.59983797793604643
40
-0.55244246474797898
40
-0.55244246474797898
40
-0.55244246474797898
40
-0.52655622152595705
40
-0.52655622152595705
40
-0.52655622152595705
40
-0.51034973735389411
40
-0.51034973735389411
40
-0.51034973735389411
40
-0.49834464119283767
40
-0.49834464119283767
40
-0.49834464119283767
40
-0.48571945552585138
40
-0.48571945552585138
40
-0.48571945552585138
40
-0.46727368645583295
40
-0.46727368645583295
40
-0.46727368645583295
40
-0.43175859888622181
40
-0.43175859888622181
40
-0.43175859888622181
40
-0.38213041438475437
40
-0.38213041438475437
40
-0.38213041438475437
40
-0.35944958473036431
40
-0.35944958473036431
40
-0.35944958473036431
40
-0.35944958473036431
10
1.1365649606299253
20
-0.0654791141512375
30
0
10
0.98708792348529617
20
-0.072400918312153673
30
0
10
0.84322363436622116
20
-0.077844502765036128
30
0
10
0.70757840237691649
20
-0.079637904811091995
30
0
10
0.55172243476433647
20
-0.081698518421369562
30
0
10
0.40603083604369888
20
-0.079031077052841611
30
0
10
0.28413048425329807
20
-0.064183983403006087
30
0
10
0.21755156268375997
20
-0.056074872402673212
30
0
10
0.15743261319861471
20
-0.043825953107205384
30
0
10
0.11504661963773495
20
-0.026736205789185105
30
0
10
0.088510210786520258
20
-0.016036904347930335
30
0
10
0.070588274785551283
20
-0.0027533455099115925
30
0
10
0.064862578029743753
20
0.0049274357558224567
30
0
10
0.060621217632711472
20
0.010617042255801578
30
0
10
0.060540829719824218
20
0.012082076009581234
30
0
10
0.061160694411417665
20
0.017054594640507129
30
0
10
0.06181257647173493
20
0.022283954747728745
30
0
10
0.066193215843024664
20
0.033612168048272897
30
0
10
0.077458637317960169
20
0.047551966070163869
30
0
10
0.093917750750760073
20
0.067918422610036638
30
0
10
0.12260279457442362
20
0.091749775130196609
30
0
10
0.15757553474422531
20
0.11429730627261295
30
0
10
0.22491129748553573
20
0.15770983843442049
30
0
10
0.31499335611679274
20
0.19822419984051079
30
0
10
0.415540714833674
20
0.23379079166780686
30
0
10
0.55604389843855817
20
0.28349094735047975
30
0
10
0.71832646693148738
20
0.32403144768452796
30
0
10
0.89190541881877916
20
0.35455721532735501
30
0
10
0.97123362070427888
20
0.36850795204946862
30
0
10
1.0529527714491596
20
0.38033097483694045
30
0
10
1.1365649606299257
20
0.39004655745523353
30
0
0
LINE
5
129
100
AcDbEntity
8
0
100
AcDbLine
10
1.1365649606299257
20
0.39004655745523353
30
0
11
1.1365649606299253
21
-0.0654791141512375
31
0
0
LINE
5
130
100
AcDbEntity
8
0
100
AcDbLine
10
3.936959842519685
20
0.17392313793590447
30
0
11
3.936959842519685
21
0.046063098333624437
31
0
0
SPLINE
5
131
100
AcDbEntity
8
0
100
AcDbSpline
70
0
71
3
72
11
73
7
74
0
42
0.000000001
43
0.0000000001
44
0.0000000001
40
-0.88203973041724038
40
-0.88203973041724038
40
-0.88203973041724038
40
-0.88203973041724038
40
-0.81414979102115137
40
-0.81414979102115137
40
-0.81414979102115137
40
-0.79070545521937496
40
-0.79070545521937496
40
-0.79070545521937496
40
-0.79070545521937496
10
3.9369598425196859
20
0.046063098333624437
30
0
10
3.6928015252297151
20
0.040108318402148131
30
0
10
3.4315419494448731
20
0.032236997375906094
30
0
10
3.1648024359426303
20
0.022430948577175303
30
0
10
3.072689660739456
20
0.019044639751875415
30
0
10
2.9798384449049191
20
0.015423914026495402
30
0
10
2.8865649606299542
20
0.011668191909644353
30
0
0
LINE
5
132
100
AcDbEntity
8
0
100
AcDbLine
10
2.8865649606299546
20
0.011668191909644353
30
0
11
2.8865649606299209
21
0.34497959239651088
31
0
0
SPLINE
5
133
100
AcDbEntity
8
0
100
AcDbSpline
70
0
71
3
72
11
73
7
74
0
42
0.000000001
43
0.0000000001
44
0.0000000001
40
-0.21149047632044704
40
-0.21149047632044704
40
-0.21149047632044704
40
-0.21149047632044704
40
-0.12098697710882264
40
-0.12098697710882264
40
-0.12098697710882264
40
-0.11929357737091148
40
-0.11929357737091148
40
-0.11929357737091148
40
-0.11929357737091148
10
2.8865649606354928
20
0.3449795923958317
30
0
10
3.2464134992574989
20
0.30111381141303345
30
0
10
3.5977446549683569
20
0.24242620672678145
30
0
10
3.9189601189077918
20
0.17757017178818379
30
0
10
3.9249703415752721
20
0.17635665857020125
30
0
10
3.9309703491023131
20
0.17514094119199303
30
0
10
3.936959842519685
20
0.17392313793590455
30
0
0
ENDSEC
0
SECTION
2
OBJECTS
0
DICTIONARY
5
C
100
AcDbDictionary
3
ACAD_GROUP
350
D
3
ACAD_MLINESTYLE
350
17
0
DICTIONARY
5
D
100
AcDbDictionary
0
DICTIONARY
5
1A
330
C
100
AcDbDictionary
0
DICTIONARY
5
17
100
AcDbDictionary
0
ENDSEC
0
EOF
